# Blender v2.74 (sub 0) OBJ File: ''
# www.blender.org
mtllib click_5.mtl
o Torus.006
v 1.125926 0.035543 -0.000948
v 1.055901 0.080061 -0.000948
v 1.055901 -0.008976 -0.000948
v 0.974752 0.035543 -0.565134
v 0.914110 0.080061 -0.530122
v 0.914110 -0.008976 -0.530122
v 0.561739 0.035543 -0.978147
v 0.526727 0.080061 -0.917504
v 0.526727 -0.008976 -0.917504
v -0.002447 0.035543 -1.129320
v -0.002447 0.080061 -1.059296
v -0.002447 -0.008976 -1.059296
v -0.566633 0.035543 -0.978147
v -0.531621 0.080061 -0.917504
v -0.531621 -0.008976 -0.917504
v -0.979646 0.035543 -0.565134
v -0.919004 0.080061 -0.530122
v -0.919004 -0.008976 -0.530122
v -1.130819 0.035543 -0.000948
v -1.060796 0.080061 -0.000948
v -1.060796 -0.008976 -0.000948
v -0.979646 0.035543 0.563238
v -0.919004 0.080061 0.528227
v -0.919004 -0.008976 0.528227
v -0.566633 0.035543 0.976252
v -0.531621 0.080061 0.915609
v -0.531621 -0.008976 0.915609
v -0.002447 0.035543 1.127425
v -0.002447 0.080061 1.057401
v -0.002447 -0.008976 1.057401
v 0.561739 0.035543 0.976252
v 0.526727 0.080061 0.915609
v 0.526727 -0.008976 0.915609
v 0.974752 0.035543 0.563239
v 0.914110 0.080061 0.528227
v 0.914110 -0.008976 0.528227
vn -0.258800 0.000000 0.965900
vn -0.965900 0.000000 0.258800
vn 0.388800 0.835300 -0.388800
vn 0.531100 -0.835300 -0.142300
vn 0.707100 0.000000 0.707100
vn -0.142300 0.835300 -0.531100
vn -0.142300 -0.835300 -0.531100
vn -0.531100 -0.835300 -0.142300
vn -0.388800 0.835300 -0.388800
vn -0.388800 -0.835300 -0.388800
vn -0.531100 0.835300 -0.142300
vn -0.531100 0.835300 0.142300
vn -0.531100 -0.835300 0.142300
vn -0.388800 0.835300 0.388800
vn 0.965900 0.000000 -0.258800
vn 0.707100 0.000000 -0.707100
vn -0.388800 -0.835300 0.388800
vn -0.142300 -0.835300 0.531100
vn -0.142300 0.835300 0.531100
vn 0.258800 0.000000 -0.965900
vn 0.142300 0.835300 0.531100
vn 0.142300 -0.835300 0.531100
vn -0.258800 0.000000 -0.965900
vn 0.388800 0.835300 0.388800
vn 0.388800 -0.835300 0.388800
vn 0.531100 0.835300 0.142300
vn -0.707100 0.000000 -0.707100
vn 0.388800 -0.835300 -0.388800
vn 0.531100 -0.835300 0.142300
vn -0.965900 0.000000 -0.258800
vn -0.707100 0.000000 0.707100
vn 0.531100 0.835300 -0.142300
vn 0.142300 -0.835300 -0.531100
vn 0.965900 0.000000 0.258800
vn 0.142300 0.835300 -0.531100
vn 0.258800 0.000000 0.965900
usemtl Material.011
s off
f 8//1 11//1 12//1
f 3//2 2//2 5//2
f 5//3 4//3 7//3
f 4//4 1//4 3//4
f 15//5 14//5 17//5
f 11//6 10//6 13//6
f 10//7 12//7 15//7
f 18//8 21//8 19//8
f 14//9 13//9 16//9
f 16//10 13//10 15//10
f 17//11 16//11 19//11
f 20//12 19//12 22//12
f 21//13 24//13 22//13
f 23//14 22//14 25//14
f 21//15 20//15 23//15
f 23//16 26//16 27//16
f 25//17 22//17 24//17
f 27//18 30//18 28//18
f 26//19 25//19 28//19
f 27//20 26//20 29//20
f 29//21 28//21 31//21
f 31//22 28//22 30//22
f 30//23 29//23 32//23
f 35//24 32//24 31//24
f 31//25 33//25 36//25
f 1//26 2//26 35//26
f 33//27 32//27 35//27
f 7//28 4//28 6//28
f 1//29 34//29 36//29
f 3//30 36//30 35//30
f 6//31 5//31 8//31
f 2//32 1//32 4//32
f 7//33 9//33 12//33
f 18//34 17//34 20//34
f 7//35 10//35 11//35
f 12//36 11//36 14//36
f 9//1 8//1 12//1
f 6//2 3//2 5//2
f 8//3 5//3 7//3
f 6//4 4//4 3//4
f 18//5 15//5 17//5
f 14//6 11//6 13//6
f 13//7 10//7 15//7
f 16//8 18//8 19//8
f 17//9 14//9 16//9
f 18//10 16//10 15//10
f 20//11 17//11 19//11
f 23//12 20//12 22//12
f 19//13 21//13 22//13
f 26//14 23//14 25//14
f 24//15 21//15 23//15
f 24//16 23//16 27//16
f 27//17 25//17 24//17
f 25//18 27//18 28//18
f 29//19 26//19 28//19
f 30//20 27//20 29//20
f 32//21 29//21 31//21
f 33//22 31//22 30//22
f 33//23 30//23 32//23
f 34//24 35//24 31//24
f 34//25 31//25 36//25
f 34//26 1//26 35//26
f 36//27 33//27 35//27
f 9//28 7//28 6//28
f 3//29 1//29 36//29
f 2//30 3//30 35//30
f 9//31 6//31 8//31
f 5//32 2//32 4//32
f 10//33 7//33 12//33
f 21//34 18//34 20//34
f 8//35 7//35 11//35
f 15//36 12//36 14//36
