# Blender v2.74 (sub 0) OBJ File: ''
# www.blender.org
mtllib click_1.mtl
o Torus.010
v 0.147189 0.049573 -0.256517
v -0.000813 0.049573 -0.296174
v -0.000813 0.024671 -0.296174
v 0.295191 0.024671 -0.000170
v 0.295191 0.049573 -0.000170
v 0.255534 0.049573 -0.148172
v 0.301139 0.037122 -0.174502
v 0.173519 0.037122 -0.302122
v 0.347851 0.037122 -0.000170
v 0.255534 0.024671 -0.148172
v -0.148815 0.024671 -0.256517
v -0.148815 0.049573 -0.256517
v -0.257161 0.049573 -0.148172
v -0.000813 0.037122 -0.348834
v -0.175145 0.037122 -0.302122
v -0.257161 0.024671 -0.148172
v -0.296818 0.024671 -0.000170
v -0.349478 0.037122 -0.000170
v -0.302765 0.037122 -0.174502
v -0.296818 0.049573 -0.000170
v -0.302766 0.037122 0.174162
v -0.257161 0.024671 0.147832
v -0.257161 0.049573 0.147832
v -0.175145 0.037122 0.301782
v -0.148815 0.049573 0.256177
v -0.148815 0.024671 0.256177
v -0.000813 0.024671 0.295834
v -0.000813 0.037122 0.348495
v -0.000813 0.049573 0.295834
v 0.173519 0.037122 0.301782
v 0.147189 0.049573 0.256177
v 0.255534 0.049573 0.147832
v 0.147189 0.024671 0.256177
v 0.255534 0.024671 0.147832
v 0.301139 0.037122 0.174162
v 0.147189 0.024671 -0.256517
vn -0.258800 0.000000 0.965900
vn -0.965900 0.000000 0.258800
vn 0.168100 0.971300 -0.168100
vn 0.229700 -0.971300 -0.061500
vn 0.707100 0.000000 0.707100
vn -0.061500 0.971300 -0.229700
vn -0.061500 -0.971300 -0.229700
vn -0.229700 -0.971300 -0.061500
vn -0.168100 0.971300 -0.168100
vn -0.168100 -0.971300 -0.168100
vn -0.229700 0.971300 -0.061500
vn -0.229700 0.971300 0.061500
vn -0.229700 -0.971300 0.061500
vn -0.168100 0.971300 0.168100
vn 0.965900 0.000000 -0.258800
vn 0.707100 0.000000 -0.707100
vn -0.168100 -0.971300 0.168100
vn -0.061500 -0.971300 0.229700
vn -0.061500 0.971300 0.229700
vn 0.258800 0.000000 -0.965900
vn 0.061500 0.971300 0.229700
vn 0.061500 -0.971300 0.229700
vn -0.258800 0.000000 -0.965900
vn 0.168100 0.971300 0.168100
vn 0.168100 -0.971300 0.168100
vn 0.229700 0.971300 0.061500
vn -0.707100 0.000000 -0.707100
vn 0.168100 -0.971300 -0.168100
vn 0.229700 -0.971300 0.061500
vn -0.965900 0.000000 -0.258800
vn -0.707100 0.000000 0.707100
vn 0.229700 0.971300 -0.061500
vn 0.061500 -0.971300 -0.229700
vn 0.965900 0.000000 0.258800
vn 0.061500 0.971300 -0.229700
vn 0.258800 0.000000 0.965900
usemtl Material.015
s 1
f 1//1 2//1 3//1
f 4//2 5//2 6//2
f 6//3 7//3 8//3
f 9//4 4//4 10//4
f 11//5 12//5 13//5
f 2//6 14//6 15//6
f 15//7 14//7 3//7
f 16//8 17//8 18//8
f 12//9 15//9 19//9
f 19//10 15//10 11//10
f 13//11 19//11 18//11
f 20//12 18//12 21//12
f 17//13 22//13 21//13
f 23//14 21//14 24//14
f 17//15 20//15 23//15
f 23//16 25//16 26//16
f 24//17 21//17 22//17
f 26//18 27//18 28//18
f 25//19 24//19 28//19
f 26//20 25//20 29//20
f 29//21 28//21 30//21
f 30//22 28//22 27//22
f 27//23 29//23 31//23
f 32//24 31//24 30//24
f 30//25 33//25 34//25
f 5//26 32//26 35//26
f 33//27 31//27 32//27
f 8//28 7//28 10//28
f 4//29 9//29 35//29
f 4//30 34//30 32//30
f 10//31 6//31 1//31
f 5//32 9//32 7//32
f 8//33 36//33 3//33
f 16//34 13//34 20//34
f 8//35 14//35 2//35
f 3//36 2//36 12//36
f 36//1 1//1 3//1
f 10//2 4//2 6//2
f 1//3 6//3 8//3
f 7//4 9//4 10//4
f 16//5 11//5 13//5
f 12//6 2//6 15//6
f 11//7 15//7 3//7
f 19//8 16//8 18//8
f 13//9 12//9 19//9
f 16//10 19//10 11//10
f 20//11 13//11 18//11
f 23//12 20//12 21//12
f 18//13 17//13 21//13
f 25//14 23//14 24//14
f 22//15 17//15 23//15
f 22//16 23//16 26//16
f 26//17 24//17 22//17
f 24//18 26//18 28//18
f 29//19 25//19 28//19
f 27//20 26//20 29//20
f 31//21 29//21 30//21
f 33//22 30//22 27//22
f 33//23 27//23 31//23
f 35//24 32//24 30//24
f 35//25 30//25 34//25
f 9//26 5//26 35//26
f 34//27 33//27 32//27
f 36//28 8//28 10//28
f 34//29 4//29 35//29
f 5//30 4//30 32//30
f 36//31 10//31 1//31
f 6//32 5//32 7//32
f 14//33 8//33 3//33
f 17//34 16//34 20//34
f 1//35 8//35 2//35
f 11//36 3//36 12//36
