# Blender v2.74 (sub 0) OBJ File: ''
# www.blender.org
mtllib click_4.mtl
o Torus.007
v 0.448411 0.073473 -0.781856
v -0.002447 0.073473 -0.902664
v -0.002447 -0.002387 -0.902664
v 0.899269 -0.002387 -0.000948
v 0.899269 0.073473 -0.000948
v 0.778462 0.073473 -0.451806
v 0.974752 0.035543 -0.565134
v 0.561739 0.035543 -0.978147
v 1.125926 0.035543 -0.000948
v -0.453305 -0.002387 -0.781856
v -0.453305 0.073473 -0.781856
v -0.783356 0.073473 -0.451806
v -0.002447 0.035543 -1.129320
v -0.566633 0.035543 -0.978147
v -0.783356 -0.002387 -0.451806
v -0.904163 -0.002387 -0.000948
v -1.130819 0.035543 -0.000948
v -0.979646 0.035543 -0.565134
v -0.904163 0.073473 -0.000948
v -0.979646 0.035543 0.563238
v -0.783356 -0.002387 0.449910
v -0.783356 0.073473 0.449910
v -0.566633 0.035543 0.976252
v -0.453305 0.073473 0.779962
v -0.453305 -0.002387 0.779962
v -0.002447 -0.002387 0.900769
v -0.002447 0.035543 1.127425
v -0.002447 0.073473 0.900769
v 0.561739 0.035543 0.976252
v 0.448411 0.073473 0.779961
v 0.778462 0.073473 0.449911
v 0.448411 -0.002387 0.779961
v 0.778462 -0.002387 0.449911
v 0.974752 0.035543 0.563239
v 0.778462 -0.002387 -0.451806
v 0.448411 -0.002387 -0.781856
vn -0.258800 0.000000 0.965900
vn -0.965900 0.000000 0.258800
vn 0.120700 0.985300 -0.120700
vn 0.164900 -0.985300 -0.044200
vn 0.707100 0.000000 0.707100
vn -0.044200 0.985300 -0.164900
vn -0.044200 -0.985300 -0.164900
vn -0.164900 -0.985300 -0.044200
vn -0.120700 0.985300 -0.120700
vn -0.120700 -0.985300 -0.120700
vn -0.164900 0.985300 -0.044200
vn -0.164900 0.985300 0.044200
vn -0.164900 -0.985300 0.044200
vn -0.120700 0.985300 0.120700
vn 0.965900 -0.000000 -0.258800
vn 0.707100 0.000000 -0.707100
vn -0.120700 -0.985300 0.120700
vn -0.044200 -0.985300 0.164900
vn -0.044200 0.985300 0.164900
vn 0.258800 0.000000 -0.965900
vn 0.044200 0.985300 0.164900
vn 0.044200 -0.985300 0.164900
vn -0.258800 0.000000 -0.965900
vn 0.120700 0.985300 0.120700
vn 0.120700 -0.985300 0.120700
vn 0.164900 0.985300 0.044200
vn -0.707100 0.000000 -0.707100
vn 0.120700 -0.985300 -0.120700
vn 0.164900 -0.985300 0.044200
vn -0.965900 -0.000000 -0.258800
vn -0.707100 0.000000 0.707100
vn 0.164900 0.985300 -0.044200
vn 0.044200 -0.985300 -0.164900
vn 0.965900 0.000000 0.258800
vn 0.044200 0.985300 -0.164900
vn 0.258800 0.000000 0.965900
usemtl Material.012
s 1
f 1//1 2//1 3//1
f 4//2 5//2 6//2
f 6//3 7//3 8//3
f 7//4 9//4 4//4
f 10//5 11//5 12//5
f 2//6 13//6 14//6
f 14//7 13//7 3//7
f 15//8 16//8 17//8
f 11//9 14//9 18//9
f 18//10 14//10 10//10
f 12//11 18//11 17//11
f 19//12 17//12 20//12
f 16//13 21//13 20//13
f 22//14 20//14 23//14
f 21//15 16//15 19//15
f 22//16 24//16 25//16
f 23//17 20//17 21//17
f 25//18 26//18 27//18
f 24//19 23//19 27//19
f 25//20 24//20 28//20
f 28//21 27//21 29//21
f 29//22 27//22 26//22
f 26//23 28//23 30//23
f 31//24 30//24 29//24
f 29//25 32//25 33//25
f 5//26 31//26 34//26
f 32//27 30//27 31//27
f 8//28 7//28 35//28
f 4//29 9//29 34//29
f 4//30 33//30 31//30
f 35//31 6//31 1//31
f 5//32 9//32 7//32
f 8//33 36//33 3//33
f 15//34 12//34 19//34
f 8//35 13//35 2//35
f 3//36 2//36 11//36
f 36//1 1//1 3//1
f 35//2 4//2 6//2
f 1//3 6//3 8//3
f 35//4 7//4 4//4
f 15//5 10//5 12//5
f 11//6 2//6 14//6
f 10//7 14//7 3//7
f 18//8 15//8 17//8
f 12//9 11//9 18//9
f 15//10 18//10 10//10
f 19//11 12//11 17//11
f 22//12 19//12 20//12
f 17//13 16//13 20//13
f 24//14 22//14 23//14
f 22//15 21//15 19//15
f 21//16 22//16 25//16
f 25//17 23//17 21//17
f 23//18 25//18 27//18
f 28//19 24//19 27//19
f 26//20 25//20 28//20
f 30//21 28//21 29//21
f 32//22 29//22 26//22
f 32//23 26//23 30//23
f 34//24 31//24 29//24
f 34//25 29//25 33//25
f 9//26 5//26 34//26
f 33//27 32//27 31//27
f 36//28 8//28 35//28
f 33//29 4//29 34//29
f 5//30 4//30 31//30
f 36//31 35//31 1//31
f 6//32 5//32 7//32
f 13//33 8//33 3//33
f 16//34 15//34 19//34
f 1//35 8//35 2//35
f 10//36 3//36 11//36
