# Blender v2.72 (sub 0) OBJ File: 'leaves_5.blend'
# www.blender.org
mtllib leaves_5.mtl
o leaves_5
v -0.283522 -8.148958 -3.055815
v -0.616012 -7.451570 -4.065771
v -0.271901 -8.034459 -2.980576
v -0.604391 -7.337070 -3.990533
v -1.486790 -7.636970 -3.649126
v -1.475169 -7.522470 -3.573889
v -2.474874 -7.039989 -4.405019
v -2.463253 -6.925490 -4.329781
v -2.721165 -7.768041 -3.259004
v -2.709544 -7.653542 -3.183766
v -3.690163 -7.777996 -3.094189
v -3.678543 -7.663496 -3.018952
v -3.248316 -8.463771 -2.118795
v -3.236695 -8.349273 -2.043558
v -4.263289 -8.714432 -1.580565
v -4.251668 -8.599933 -1.505328
v -2.545728 -9.442153 -0.738378
v -2.534108 -9.327654 -0.663140
v -3.091175 -9.794358 -0.118134
v -3.079555 -9.679859 -0.042897
v -1.214591 -9.693959 -0.560772
v -1.202971 -9.579460 -0.485534
v -0.279742 -10.961055 1.223149
v -0.268122 -10.846556 1.298386
v -0.788917 -9.648759 -0.695305
v -0.777296 -9.534260 -0.620068
v 0.983183 -9.361725 -1.405831
v 0.994804 -9.247226 -1.330594
v 0.126724 -9.158381 -1.583004
v 0.138345 -9.043883 -1.507765
v 0.882457 -8.168034 -3.206873
v 0.894078 -8.053535 -3.131636
v -1.205371 -9.307645 -1.150100
v -1.193751 -9.193147 -1.074863
v 1.176486 10.345077 -0.260780
v 1.146625 10.838123 -1.432500
v 1.102298 10.451093 -0.214279
v 1.072437 10.944139 -1.385999
v 0.342328 10.273057 -1.427399
v 0.268140 10.379073 -1.380898
v -0.278936 10.376822 -2.655134
v -0.353124 10.482838 -2.608633
v -0.750260 9.593606 -1.621454
v -0.824448 9.699623 -1.574953
v -1.574411 9.145984 -1.915785
v -1.648599 9.252000 -1.869283
v -1.447754 8.713133 -0.726874
v -1.521941 8.819149 -0.680373
v -2.397710 8.022608 -0.668127
v -2.471898 8.128625 -0.621626
v -1.205903 8.128269 0.992387
v -1.280091 8.234286 1.038888
v -1.794908 7.556493 1.356265
v -1.869096 7.662509 1.402766
v -0.169561 8.498219 1.802330
v -0.243749 8.604235 1.848831
v 0.164770 7.752046 4.036899
v 0.090583 7.858061 4.083400
v 0.207218 8.732527 1.869250
v 0.133030 8.838543 1.915751
v 1.811445 9.799187 1.996789
v 1.737257 9.905203 2.043290
v 1.159575 9.599297 1.412520
v 1.085387 9.705313 1.459020
v 2.156965 10.855039 0.140829
v 2.082777 10.961055 0.187330
v -0.022329 8.858844 1.215045
v -0.096517 8.964860 1.261546
v 9.106605 -1.130073 -1.573356
v 8.972914 -0.663707 -2.118993
v 9.151855 -1.075836 -1.538085
v 9.018164 -0.609470 -2.083723
v 8.553545 -0.547583 -1.759544
v 8.598794 -0.493346 -1.724273
v 8.105466 0.027734 -2.069384
v 8.150715 0.081971 -2.034114
v 7.963600 -0.310593 -1.367121
v 8.008850 -0.256356 -1.331851
v 7.503685 -0.073494 -1.141683
v 7.548934 -0.019257 -1.106413
v 7.689641 -0.560856 -0.630812
v 7.734890 -0.506619 -0.595542
v 7.199638 -0.444489 -0.181119
v 7.244887 -0.390252 -0.145849
v 7.989190 -1.274241 0.081894
v 8.034439 -1.220004 0.117165
v 7.718376 -1.331196 0.516909
v 7.763626 -1.276959 0.552180
v 8.611849 -1.745799 0.008207
v 8.657098 -1.691562 0.043478
v 9.011617 -2.675941 0.925657
v 9.056866 -2.621704 0.960927
v 8.815292 -1.827525 -0.127120
v 8.860541 -1.773288 -0.091849
v 9.665635 -2.113439 -0.778379
v 9.710884 -2.059202 -0.743109
v 9.266434 -1.787330 -0.767711
v 9.311684 -1.733093 -0.732440
v 9.658945 -1.432430 -1.817015
v 9.704194 -1.378193 -1.781744
v 8.629517 -1.535873 -0.337272
v 8.674767 -1.481636 -0.302002
v -9.336361 3.047502 0.885108
v -9.612138 3.116884 -0.049442
v -9.435108 3.021701 0.912331
v -9.710884 3.091082 -0.022219
v -9.408627 2.391452 0.001192
v -9.507373 2.365650 0.028415
v -9.549211 1.932333 -0.943883
v -9.647957 1.906531 -0.916660
v -9.180763 1.422516 -0.090623
v -9.279509 1.396715 -0.063400
v -9.044653 0.703797 -0.278104
v -9.143399 0.677995 -0.250880
v -8.789064 0.720256 0.664581
v -8.887810 0.694454 0.691804
v -8.535951 -0.140886 0.766514
v -8.634696 -0.166688 0.793737
v -8.434224 0.796966 2.024380
v -8.532969 0.771164 2.051603
v -8.198117 0.236117 2.349238
v -8.296863 0.210315 2.376461
v -8.499039 1.664582 2.611585
v -8.597785 1.638780 2.638808
v -8.042872 1.782305 4.377796
v -8.141617 1.756504 4.405018
v -8.577618 1.998721 2.643247
v -8.676364 1.972919 2.670471
v -8.950240 3.434328 2.652294
v -9.048985 3.408525 2.679518
v -8.927556 2.894735 2.223161
v -9.026301 2.868933 2.250385
v -9.485851 3.898323 1.149262
v -9.584596 3.872521 1.176486
v -8.678055 1.845568 2.133784
v -8.776801 1.819767 2.161007
v 7.168122 6.981779 2.368494
v 7.030854 7.153315 1.899865
v 7.173878 7.059175 2.395138
v 7.036611 7.230711 1.926509
v 6.676681 7.116827 2.082369
v 6.682437 7.194223 2.109012
v 6.272658 7.270351 1.723689
v 6.278415 7.347747 1.750333
v 6.174273 7.096913 2.248755
v 6.180028 7.174310 2.275399
v 5.779630 7.103720 2.314243
v 5.785387 7.181116 2.340887
v 5.961408 6.933948 2.768131
v 5.967164 7.011343 2.794775
v 5.548677 6.883076 3.005073
v 5.554433 6.960472 3.031717
v 6.250159 6.691051 3.411322
v 6.255915 6.768448 3.437966
v 6.028933 6.611200 3.691071
v 6.034689 6.688598 3.717715
v 6.792992 6.617606 3.507399
v 6.798748 6.695003 3.534043
v 7.177105 6.302796 4.338887
v 7.182862 6.380193 4.365531
v 6.966247 6.624474 3.450021
v 6.972003 6.701869 3.476665
v 7.687256 6.676931 3.141871
v 7.693012 6.754329 3.168515
v 7.337885 6.734167 3.051091
v 7.343642 6.811563 3.077735
v 7.643071 6.966092 2.311456
v 7.648827 7.043488 2.338100
v 6.795724 6.710789 3.236128
v 6.801480 6.788186 3.262771
vn 0.961500 0.076000 -0.264100
vn 0.961500 0.075900 -0.264100
vn -0.456200 0.520600 -0.721700
vn -0.456200 0.520600 -0.721800
vn 0.692900 0.345500 -0.632900
vn -0.980300 0.167900 -0.104000
vn -0.145200 0.553600 -0.820000
vn -0.933900 -0.125300 0.334900
vn -0.497800 0.511000 -0.700800
vn -0.537200 -0.424400 0.728900
vn -0.789800 0.390800 -0.472700
vn 0.219400 -0.551200 0.805000
vn -0.915700 -0.151600 0.372200
vn 0.973200 0.049000 -0.224800
vn 0.973200 0.048900 -0.224800
vn 0.387800 -0.533300 0.751800
vn 0.288200 0.505200 -0.813400
vn 0.288200 0.505300 -0.813400
vn 0.925500 -0.269100 0.266600
vn -0.098100 0.553400 -0.827100
vn -0.084500 -0.832700 -0.547200
vn 0.084500 0.832700 0.547200
vn 0.841600 0.505100 0.191100
vn -0.198400 0.273900 -0.941100
vn 0.711500 0.632300 -0.306600
vn -0.769600 -0.288700 -0.569600
vn 0.076900 0.445100 -0.892200
vn -0.836000 -0.538200 -0.106900
vn -0.237100 0.246300 -0.939700
vn -0.608100 -0.634700 0.476800
vn -0.527800 0.003200 -0.849400
vn -0.013200 -0.409400 0.912300
vn -0.830100 -0.554200 -0.060900
vn 0.841800 0.485500 0.236100
vn 0.135900 -0.316600 0.938800
vn 0.135900 -0.316700 0.938800
vn 0.426400 0.596600 -0.679900
vn 0.686600 0.170400 0.706800
vn 0.116700 0.466300 -0.876900
vn 0.539600 -0.771000 -0.338200
vn -0.539600 0.771000 0.338200
vn 0.798700 -0.346500 -0.491900
vn -0.345600 0.696900 -0.628400
vn -0.345600 0.697000 -0.628400
vn 0.593000 0.028500 -0.804700
vn -0.799700 0.588000 0.121700
vn -0.086700 0.593000 -0.800600
vn -0.778900 0.287200 0.557500
vn -0.380600 0.705900 -0.597300
vn -0.469200 -0.171900 0.866200
vn -0.629000 0.718200 -0.297500
vn 0.148200 -0.623100 0.768000
vn -0.765400 0.254100 0.591200
vn 0.806800 -0.377400 -0.454600
vn 0.288400 -0.679400 0.674800
vn 0.268400 0.357800 -0.894400
vn 0.748300 -0.661000 0.056400
vn -0.047900 0.572300 -0.818600
vn -0.573100 -0.687000 -0.446700
vn 0.573100 0.687000 0.446700
vn -0.215400 0.967100 0.135400
vn -0.231200 -0.132100 -0.963900
vn -0.329400 0.867600 -0.372500
vn 0.072700 -0.842000 -0.534500
vn -0.305900 0.185600 -0.933800
vn 0.240100 -0.969600 -0.048200
vn -0.218100 -0.177700 -0.959600
vn 0.349100 -0.764600 0.541800
vn -0.094500 -0.528500 -0.843700
vn 0.291400 -0.113100 0.949900
vn 0.252600 -0.967600 -0.000800
vn -0.201300 0.962500 0.182100
vn 0.250900 0.059000 0.966200
vn 0.251000 0.059000 0.966200
vn -0.353600 0.573100 -0.739300
vn -0.002300 0.730000 0.683400
vn -0.314200 0.230700 -0.920900
vn 0.934800 0.244300 -0.257700
vn -0.934800 -0.244300 0.257700
vn 0.961600 0.022600 -0.273400
vn -0.459900 0.319400 -0.828600
vn 0.691100 0.188800 -0.697700
vn -0.982000 0.122500 -0.143600
vn -0.982000 0.122400 -0.143600
vn -0.148900 0.331800 -0.931500
vn -0.933700 -0.052500 0.354300
vn -0.501500 0.314700 -0.805900
vn -0.534800 -0.239200 0.810400
vn -0.792900 0.250200 -0.555600
vn 0.223100 -0.332100 0.916500
vn -0.915300 -0.068600 0.396900
vn 0.973500 0.006300 -0.228700
vn 0.973500 0.006300 -0.228600
vn 0.391500 -0.325400 0.860700
vn 0.285100 0.293000 -0.912600
vn 0.927800 -0.181200 0.326000
vn -0.101800 0.330600 -0.938300
vn -0.070100 -0.943200 -0.324700
vn 0.070100 0.943200 0.324700
usemtl pasted__phong1SG6
s off
f 1//1 2//1 3//1
f 3//2 2//2 4//2
f 2//3 5//3 4//3
f 4//4 5//4 6//4
f 5//5 7//5 6//5
f 6//5 7//5 8//5
f 7//6 9//6 8//6
f 8//6 9//6 10//6
f 9//7 11//7 10//7
f 10//7 11//7 12//7
f 11//8 13//8 12//8
f 12//8 13//8 14//8
f 13//9 15//9 14//9
f 14//9 15//9 16//9
f 15//10 17//10 16//10
f 16//10 17//10 18//10
f 17//11 19//11 18//11
f 18//11 19//11 20//11
f 19//12 21//12 20//12
f 20//12 21//12 22//12
f 21//13 23//13 22//13
f 22//13 23//13 24//13
f 23//14 25//14 24//14
f 24//15 25//15 26//15
f 25//16 27//16 26//16
f 26//16 27//16 28//16
f 27//17 29//17 28//17
f 28//18 29//18 30//18
f 29//19 31//19 30//19
f 30//19 31//19 32//19
f 31//20 1//20 32//20
f 32//20 1//20 3//20
f 2//21 1//21 33//21
f 5//21 2//21 33//21
f 7//21 5//21 33//21
f 9//21 7//21 33//21
f 11//21 9//21 33//21
f 13//21 11//21 33//21
f 15//21 13//21 33//21
f 17//21 15//21 33//21
f 19//21 17//21 33//21
f 21//21 19//21 33//21
f 23//21 21//21 33//21
f 25//21 23//21 33//21
f 27//21 25//21 33//21
f 29//21 27//21 33//21
f 31//21 29//21 33//21
f 1//21 31//21 33//21
f 3//22 4//22 34//22
f 4//22 6//22 34//22
f 6//22 8//22 34//22
f 8//22 10//22 34//22
f 10//22 12//22 34//22
f 12//22 14//22 34//22
f 14//22 16//22 34//22
f 16//22 18//22 34//22
f 18//22 20//22 34//22
f 20//22 22//22 34//22
f 22//22 24//22 34//22
f 24//22 26//22 34//22
f 26//22 28//22 34//22
f 28//22 30//22 34//22
f 30//22 32//22 34//22
f 32//22 3//22 34//22
f 35//23 36//23 37//23
f 37//23 36//23 38//23
f 36//24 39//24 38//24
f 38//24 39//24 40//24
f 39//25 41//25 40//25
f 40//25 41//25 42//25
f 41//26 43//26 42//26
f 42//26 43//26 44//26
f 43//27 45//27 44//27
f 44//27 45//27 46//27
f 45//28 47//28 46//28
f 46//28 47//28 48//28
f 47//29 49//29 48//29
f 48//29 49//29 50//29
f 49//30 51//30 50//30
f 50//30 51//30 52//30
f 51//31 53//31 52//31
f 52//31 53//31 54//31
f 53//32 55//32 54//32
f 54//32 55//32 56//32
f 55//33 57//33 56//33
f 56//33 57//33 58//33
f 57//34 59//34 58//34
f 58//34 59//34 60//34
f 59//35 61//35 60//35
f 60//36 61//36 62//36
f 61//37 63//37 62//37
f 62//37 63//37 64//37
f 63//38 65//38 64//38
f 64//38 65//38 66//38
f 65//39 35//39 66//39
f 66//39 35//39 37//39
f 36//40 35//40 67//40
f 39//40 36//40 67//40
f 41//40 39//40 67//40
f 43//40 41//40 67//40
f 45//40 43//40 67//40
f 47//40 45//40 67//40
f 49//40 47//40 67//40
f 51//40 49//40 67//40
f 53//40 51//40 67//40
f 55//40 53//40 67//40
f 57//40 55//40 67//40
f 59//40 57//40 67//40
f 61//40 59//40 67//40
f 63//40 61//40 67//40
f 65//40 63//40 67//40
f 35//40 65//40 67//40
f 37//41 38//41 68//41
f 38//41 40//41 68//41
f 40//41 42//41 68//41
f 42//41 44//41 68//41
f 44//41 46//41 68//41
f 46//41 48//41 68//41
f 48//41 50//41 68//41
f 50//41 52//41 68//41
f 52//41 54//41 68//41
f 54//41 56//41 68//41
f 56//41 58//41 68//41
f 58//41 60//41 68//41
f 60//41 62//41 68//41
f 62//41 64//41 68//41
f 64//41 66//41 68//41
f 66//41 37//41 68//41
f 69//42 70//42 71//42
f 71//42 70//42 72//42
f 70//43 73//43 72//43
f 72//44 73//44 74//44
f 73//45 75//45 74//45
f 74//45 75//45 76//45
f 75//46 77//46 76//46
f 76//46 77//46 78//46
f 77//47 79//47 78//47
f 78//47 79//47 80//47
f 79//48 81//48 80//48
f 80//48 81//48 82//48
f 81//49 83//49 82//49
f 82//49 83//49 84//49
f 83//50 85//50 84//50
f 84//50 85//50 86//50
f 85//51 87//51 86//51
f 86//51 87//51 88//51
f 87//52 89//52 88//52
f 88//52 89//52 90//52
f 89//53 91//53 90//53
f 90//53 91//53 92//53
f 91//54 93//54 92//54
f 92//54 93//54 94//54
f 93//55 95//55 94//55
f 94//55 95//55 96//55
f 95//56 97//56 96//56
f 96//56 97//56 98//56
f 97//57 99//57 98//57
f 98//57 99//57 100//57
f 99//58 69//58 100//58
f 100//58 69//58 71//58
f 70//59 69//59 101//59
f 73//59 70//59 101//59
f 75//59 73//59 101//59
f 77//59 75//59 101//59
f 79//59 77//59 101//59
f 81//59 79//59 101//59
f 83//59 81//59 101//59
f 85//59 83//59 101//59
f 87//59 85//59 101//59
f 89//59 87//59 101//59
f 91//59 89//59 101//59
f 93//59 91//59 101//59
f 95//59 93//59 101//59
f 97//59 95//59 101//59
f 99//59 97//59 101//59
f 69//59 99//59 101//59
f 71//60 72//60 102//60
f 72//60 74//60 102//60
f 74//60 76//60 102//60
f 76//60 78//60 102//60
f 78//60 80//60 102//60
f 80//60 82//60 102//60
f 82//60 84//60 102//60
f 84//60 86//60 102//60
f 86//60 88//60 102//60
f 88//60 90//60 102//60
f 90//60 92//60 102//60
f 92//60 94//60 102//60
f 94//60 96//60 102//60
f 96//60 98//60 102//60
f 98//60 100//60 102//60
f 100//60 71//60 102//60
f 103//61 104//61 105//61
f 105//61 104//61 106//61
f 104//62 107//62 106//62
f 106//62 107//62 108//62
f 107//63 109//63 108//63
f 108//63 109//63 110//63
f 109//64 111//64 110//64
f 110//64 111//64 112//64
f 111//65 113//65 112//65
f 112//65 113//65 114//65
f 113//66 115//66 114//66
f 114//66 115//66 116//66
f 115//67 117//67 116//67
f 116//67 117//67 118//67
f 117//68 119//68 118//68
f 118//68 119//68 120//68
f 119//69 121//69 120//69
f 120//69 121//69 122//69
f 121//70 123//70 122//70
f 122//70 123//70 124//70
f 123//71 125//71 124//71
f 124//71 125//71 126//71
f 125//72 127//72 126//72
f 126//72 127//72 128//72
f 127//73 129//73 128//73
f 128//74 129//74 130//74
f 129//75 131//75 130//75
f 130//75 131//75 132//75
f 131//76 133//76 132//76
f 132//76 133//76 134//76
f 133//77 103//77 134//77
f 134//77 103//77 105//77
f 104//78 103//78 135//78
f 107//78 104//78 135//78
f 109//78 107//78 135//78
f 111//78 109//78 135//78
f 113//78 111//78 135//78
f 115//78 113//78 135//78
f 117//78 115//78 135//78
f 119//78 117//78 135//78
f 121//78 119//78 135//78
f 123//78 121//78 135//78
f 125//78 123//78 135//78
f 127//78 125//78 135//78
f 129//78 127//78 135//78
f 131//78 129//78 135//78
f 133//78 131//78 135//78
f 103//78 133//78 135//78
f 105//79 106//79 136//79
f 106//79 108//79 136//79
f 108//79 110//79 136//79
f 110//79 112//79 136//79
f 112//79 114//79 136//79
f 114//79 116//79 136//79
f 116//79 118//79 136//79
f 118//79 120//79 136//79
f 120//79 122//79 136//79
f 122//79 124//79 136//79
f 124//79 126//79 136//79
f 126//79 128//79 136//79
f 128//79 130//79 136//79
f 130//79 132//79 136//79
f 132//79 134//79 136//79
f 134//79 105//79 136//79
f 137//80 138//80 139//80
f 139//80 138//80 140//80
f 138//81 141//81 140//81
f 140//81 141//81 142//81
f 141//82 143//82 142//82
f 142//82 143//82 144//82
f 143//83 145//83 144//83
f 144//84 145//84 146//84
f 145//85 147//85 146//85
f 146//85 147//85 148//85
f 147//86 149//86 148//86
f 148//86 149//86 150//86
f 149//87 151//87 150//87
f 150//87 151//87 152//87
f 151//88 153//88 152//88
f 152//88 153//88 154//88
f 153//89 155//89 154//89
f 154//89 155//89 156//89
f 155//90 157//90 156//90
f 156//90 157//90 158//90
f 157//91 159//91 158//91
f 158//91 159//91 160//91
f 159//92 161//92 160//92
f 160//93 161//93 162//93
f 161//94 163//94 162//94
f 162//94 163//94 164//94
f 163//95 165//95 164//95
f 164//95 165//95 166//95
f 165//96 167//96 166//96
f 166//96 167//96 168//96
f 167//97 137//97 168//97
f 168//97 137//97 139//97
f 138//98 137//98 169//98
f 141//98 138//98 169//98
f 143//98 141//98 169//98
f 145//98 143//98 169//98
f 147//98 145//98 169//98
f 149//98 147//98 169//98
f 151//98 149//98 169//98
f 153//98 151//98 169//98
f 155//98 153//98 169//98
f 157//98 155//98 169//98
f 159//98 157//98 169//98
f 161//98 159//98 169//98
f 163//98 161//98 169//98
f 165//98 163//98 169//98
f 167//98 165//98 169//98
f 137//98 167//98 169//98
f 139//99 140//99 170//99
f 140//99 142//99 170//99
f 142//99 144//99 170//99
f 144//99 146//99 170//99
f 146//99 148//99 170//99
f 148//99 150//99 170//99
f 150//99 152//99 170//99
f 152//99 154//99 170//99
f 154//99 156//99 170//99
f 156//99 158//99 170//99
f 158//99 160//99 170//99
f 160//99 162//99 170//99
f 162//99 164//99 170//99
f 164//99 166//99 170//99
f 166//99 168//99 170//99
f 168//99 139//99 170//99
