# Blender v2.72 (sub 0) OBJ File: 'leaves_0.blend'
# www.blender.org
mtllib leaves_0.mtl
o leaves_0
v 1.604649 -3.256336 -1.835163
v 1.327955 -3.367299 -3.071302
v 1.601376 -3.119364 -1.846725
v 1.324683 -3.230326 -3.082865
v 0.434490 -3.354069 -2.661711
v 0.431218 -3.217097 -2.673275
v -0.511591 -3.460987 -3.660496
v -0.514863 -3.324015 -3.672059
v -0.820991 -3.355211 -2.319916
v -0.824263 -3.218239 -2.331481
v -1.798759 -3.370142 -2.220078
v -1.802031 -3.233171 -2.231642
v -1.410838 -3.259079 -1.014220
v -1.414110 -3.122107 -1.025783
v -2.455155 -3.238438 -0.474158
v -2.458428 -3.101467 -0.485721
v -0.784595 -3.099401 0.700055
v -0.787868 -2.962429 0.688492
v -1.364062 -3.055461 1.384560
v -1.367335 -2.918489 1.372998
v 0.536312 -3.038794 1.044158
v 0.533039 -2.901822 1.032595
v 1.372491 -2.831573 3.262200
v 1.369218 -2.694602 3.250637
v 0.969264 -3.038400 0.926289
v 0.965992 -2.901428 0.914726
v 2.779960 -3.051692 0.256380
v 2.776688 -2.914720 0.244818
v 1.933551 -3.096929 -0.039942
v 1.930278 -2.959957 -0.051504
v 2.778574 -3.233678 -1.899004
v 2.775302 -3.096706 -1.910565
v 0.578023 -3.096981 0.343082
v 0.574751 -2.960009 0.331520
v 1.308359 2.686730 -0.052016
v 1.469951 3.375895 -1.108354
v 1.249865 2.794853 0.009577
v 1.411457 3.484018 -1.046762
v 0.582493 2.979811 -1.255854
v 0.524000 3.087934 -1.194262
v 0.101456 3.413631 -2.474245
v 0.042962 3.521755 -2.412652
v -0.589698 2.562471 -1.636449
v -0.648192 2.670594 -1.574857
v -1.449335 2.336530 -2.056206
v -1.507829 2.444653 -1.994614
v -1.507079 1.684339 -0.966149
v -1.565572 1.792462 -0.904557
v -2.564008 1.184859 -1.093085
v -2.622501 1.292981 -1.031493
v -1.525880 0.769900 0.621258
v -1.584373 0.878022 0.682850
v -2.235569 0.263530 0.836184
v -2.294063 0.371653 0.897776
v -0.517929 0.789841 1.543491
v -0.576423 0.897964 1.605083
v -0.520327 -0.388911 3.610466
v -0.578820 -0.280789 3.672058
v -0.113699 0.933761 1.674739
v -0.172192 1.041884 1.736331
v 1.633537 1.641065 2.092426
v 1.575044 1.749188 2.154019
v 1.011944 1.673451 1.445252
v 0.953450 1.781574 1.506845
v 2.322514 2.924627 0.493497
v 2.264020 3.032750 0.555090
v -0.258138 1.214520 1.044705
v -0.316631 1.322643 1.106297
v 3.552021 -0.879820 0.316412
v 3.728170 -0.386560 -0.192269
v 3.480001 -0.848015 0.322314
v 3.656151 -0.354755 -0.186368
v 3.516979 -0.806916 -0.504132
v 3.444960 -0.775111 -0.498230
v 3.547222 -0.596794 -1.267479
v 3.475203 -0.564989 -1.261578
v 3.261643 -1.290671 -1.013032
v 3.189624 -1.258866 -1.007131
v 3.092270 -1.591329 -1.459661
v 3.020251 -1.559524 -1.453759
v 2.938741 -2.041731 -0.905894
v 2.866722 -2.009926 -0.899993
v 2.681025 -2.561106 -1.251873
v 2.609006 -2.529301 -1.245971
v 2.732080 -2.662534 -0.082188
v 2.660060 -2.630729 -0.076286
v 2.520877 -3.126751 -0.157807
v 2.448858 -3.094946 -0.151906
v 2.876007 -2.475451 0.666001
v 2.803988 -2.443646 0.671903
v 2.612634 -3.271931 1.744400
v 2.540615 -3.240126 1.750301
v 2.964060 -2.308628 0.841496
v 2.892041 -2.276823 0.847397
v 3.363675 -1.529997 1.521944
v 3.291656 -1.498192 1.527845
v 3.284887 -1.615192 1.019593
v 3.212868 -1.583387 1.025495
v 3.745444 -0.544472 0.869582
v 3.673425 -0.512667 0.875484
v 3.006725 -2.143897 0.474370
v 2.934706 -2.112092 0.480272
v -3.427591 0.210782 -0.853091
v -3.319955 1.029755 -1.374578
v -3.532527 0.222348 -0.856586
v -3.424891 1.041321 -1.378074
v -3.359983 0.503406 -1.914567
v -3.464919 0.514972 -1.918062
v -3.276215 0.978117 -2.858683
v -3.381150 0.989683 -2.862178
v -3.395644 -0.067798 -2.734105
v -3.500580 -0.056232 -2.737600
v -3.408768 -0.392801 -3.415599
v -3.513704 -0.381234 -3.419094
v -3.513245 -1.161169 -2.821506
v -3.618181 -1.149603 -2.825001
v -3.565431 -1.820561 -3.436729
v -3.670367 -1.808995 -3.440224
v -3.661440 -2.234146 -1.922836
v -3.766376 -2.222580 -1.926331
v -3.724289 -2.877288 -2.164183
v -3.829225 -2.865722 -2.167679
v -3.685893 -2.140170 -0.877684
v -3.790829 -2.128604 -0.881179
v -3.877524 -3.521754 0.303817
v -3.982460 -3.510188 0.300322
v -3.673596 -1.943190 -0.595066
v -3.778532 -1.931624 -0.598562
v -3.606579 -0.991887 0.540904
v -3.711515 -0.980321 0.537409
v -3.584232 -0.997474 -0.148516
v -3.689168 -0.985909 -0.152011
v -3.416769 0.560621 -0.020316
v -3.521705 0.572187 -0.023811
v -3.623968 -1.624278 -1.029725
v -3.728904 -1.612712 -1.033220
v 2.990313 0.965081 0.036471
v 2.662696 1.116510 -0.334497
v 3.031377 1.035734 0.029046
v 2.703760 1.187163 -0.341921
v 2.484359 1.254875 -0.004151
v 2.525422 1.325528 -0.011576
v 2.009239 1.515504 -0.151759
v 2.050303 1.586158 -0.159183
v 2.187046 1.467924 0.378878
v 2.228110 1.538577 0.371453
v 1.922255 1.647098 0.619418
v 1.963318 1.717751 0.611993
v 2.276211 1.476794 0.956451
v 2.317275 1.547448 0.949027
v 2.080017 1.633636 1.363863
v 2.121081 1.704289 1.356439
v 2.801177 1.220378 1.419843
v 2.842241 1.291031 1.412419
v 2.769222 1.276748 1.779534
v 2.810286 1.347401 1.772110
v 3.254617 0.940167 1.261204
v 3.295681 1.010820 1.253779
v 3.941396 0.603441 1.855317
v 3.982460 0.674094 1.847892
v 3.357145 0.866697 1.129117
v 3.398209 0.937350 1.121692
v 3.750573 0.573528 0.515253
v 3.791637 0.644181 0.507829
v 3.444865 0.759122 0.590576
v 3.485929 0.829775 0.583152
v 3.319423 0.745498 -0.232871
v 3.360487 0.816151 -0.240296
v 3.126657 0.988034 1.008986
v 3.167720 1.058687 1.001562
vn 0.975700 0.004800 -0.218800
vn -0.416200 -0.086400 -0.905200
vn 0.727600 -0.040400 -0.684800
vn -0.974200 -0.042000 -0.221500
vn -0.099900 -0.086100 -0.991300
vn -0.952000 0.003100 0.306000
vn -0.459000 -0.085600 -0.884300
vn -0.577200 0.055000 0.814700
vn -0.763500 -0.072400 -0.641700
vn 0.174900 0.087000 0.980700
vn -0.935900 0.007400 0.352100
vn 0.985200 0.009100 -0.170900
vn 0.346200 0.087100 0.934100
vn 0.333000 -0.071400 -0.940200
vn 0.910500 0.056300 0.409700
vn -0.052500 -0.085200 -0.995000
vn 0.023800 -0.996200 0.084100
vn -0.023800 0.996200 -0.084100
vn 0.896000 0.296500 0.330500
vn -0.062500 0.468300 -0.881400
vn 0.835200 0.531800 -0.140400
vn -0.753800 -0.033900 -0.656300
vn 0.232800 0.573400 -0.785500
vn -0.903900 -0.344300 -0.253900
vn -0.105400 0.448600 -0.887500
vn -0.749500 -0.583500 0.312600
vn -0.749500 -0.583600 0.312600
vn -0.440800 0.252200 -0.861400
vn -0.166000 -0.554400 0.815600
vn -0.905000 -0.369100 -0.211500
vn 0.888700 0.269500 0.370900
vn -0.006000 -0.497400 0.867500
vn 0.582900 0.616700 -0.529000
vn 0.639500 -0.089000 0.763600
vn 0.274200 0.583700 -0.764300
vn 0.425400 -0.786400 -0.448000
vn 0.425400 -0.786400 -0.447900
vn -0.425400 0.786400 0.448000
vn 0.331200 0.617500 0.713500
vn 0.166900 0.532000 -0.830100
vn 0.407900 0.876000 0.257300
vn -0.194800 -0.266000 -0.944100
vn 0.279000 0.744300 -0.606800
vn -0.351700 -0.676100 -0.647400
vn -0.351600 -0.676100 -0.647400
vn 0.148900 0.496000 -0.855500
vn -0.407400 -0.911200 -0.061200
vn -0.008200 0.164400 -0.986400
vn -0.255500 -0.701800 0.665000
vn -0.255400 -0.701800 0.665000
vn -0.361500 -0.705600 -0.609400
vn -0.361600 -0.705600 -0.609400
vn 0.318900 0.583600 0.746800
vn -0.194800 -0.586900 0.785900
vn 0.380200 0.900200 -0.212300
vn 0.119500 0.087100 0.989000
vn 0.292900 0.768800 -0.568500
vn 0.912200 -0.402800 -0.074800
vn 0.912200 -0.402800 -0.074700
vn 0.912200 -0.402900 -0.074800
vn -0.912200 0.402800 0.074700
vn -0.912200 0.402900 0.074700
vn -0.912200 0.402800 0.074800
vn -0.912200 0.402900 0.074800
vn 0.030700 0.534000 0.844900
vn 0.101400 0.708600 -0.698300
vn 0.082700 0.887400 0.453500
vn 0.019800 -0.120500 -0.992500
vn 0.113100 0.896000 -0.429500
vn -0.040600 -0.607700 -0.793100
vn 0.098700 0.674700 -0.731500
vn -0.096700 -0.958600 -0.268000
vn -0.096700 -0.958500 -0.268000
vn 0.069200 0.344600 -0.936200
vn -0.111400 -0.860800 0.496500
vn -0.045800 -0.645600 -0.762300
vn 0.025300 0.492200 0.870100
vn -0.105100 -0.759400 0.642100
vn 0.109700 0.994000 -0.004500
vn -0.041700 -0.077500 0.996100
vn 0.113800 0.915400 -0.386000
vn 0.993400 -0.109500 0.033100
vn -0.993400 0.109500 -0.033100
vn 0.590700 -0.416000 -0.691400
vn -0.742200 0.372900 -0.556900
vn 0.184300 -0.208100 -0.960600
vn -0.805800 0.501400 0.315000
vn -0.558200 0.241000 -0.794000
vn -0.530900 0.387800 0.753500
vn -0.530900 0.387700 0.753500
vn -0.762600 0.388900 -0.516900
vn -0.013000 0.112000 0.993600
vn -0.013000 0.111900 0.993600
vn -0.861300 0.484600 -0.152500
vn 0.606700 -0.274200 0.746200
vn -0.496700 0.371100 0.784500
vn -0.496700 0.371100 0.784600
vn 0.621000 -0.429800 -0.655400
vn 0.706300 -0.345600 0.617800
vn -0.223400 0.027500 -0.974300
vn 0.852600 -0.508300 -0.121500
vn -0.526100 0.219400 -0.821700
vn -0.500400 -0.861000 0.090500
vn 0.500400 0.861000 -0.090500
usemtl phong1SG
s off
f 1//1 2//1 3//1
f 3//1 2//1 4//1
f 2//2 5//2 4//2
f 4//2 5//2 6//2
f 5//3 7//3 6//3
f 6//3 7//3 8//3
f 7//4 9//4 8//4
f 8//4 9//4 10//4
f 9//5 11//5 10//5
f 10//5 11//5 12//5
f 11//6 13//6 12//6
f 12//6 13//6 14//6
f 13//7 15//7 14//7
f 14//7 15//7 16//7
f 15//8 17//8 16//8
f 16//8 17//8 18//8
f 17//9 19//9 18//9
f 18//9 19//9 20//9
f 19//10 21//10 20//10
f 20//10 21//10 22//10
f 21//11 23//11 22//11
f 22//11 23//11 24//11
f 23//12 25//12 24//12
f 24//12 25//12 26//12
f 25//13 27//13 26//13
f 26//13 27//13 28//13
f 27//14 29//14 28//14
f 28//14 29//14 30//14
f 29//15 31//15 30//15
f 30//15 31//15 32//15
f 31//16 1//16 32//16
f 32//16 1//16 3//16
f 2//17 1//17 33//17
f 5//17 2//17 33//17
f 7//17 5//17 33//17
f 9//17 7//17 33//17
f 11//17 9//17 33//17
f 13//17 11//17 33//17
f 15//17 13//17 33//17
f 17//17 15//17 33//17
f 19//17 17//17 33//17
f 21//17 19//17 33//17
f 23//17 21//17 33//17
f 25//17 23//17 33//17
f 27//17 25//17 33//17
f 29//17 27//17 33//17
f 31//17 29//17 33//17
f 1//17 31//17 33//17
f 3//18 4//18 34//18
f 4//18 6//18 34//18
f 6//18 8//18 34//18
f 8//18 10//18 34//18
f 10//18 12//18 34//18
f 12//18 14//18 34//18
f 14//18 16//18 34//18
f 16//18 18//18 34//18
f 18//18 20//18 34//18
f 20//18 22//18 34//18
f 22//18 24//18 34//18
f 24//18 26//18 34//18
f 26//18 28//18 34//18
f 28//18 30//18 34//18
f 30//18 32//18 34//18
f 32//18 3//18 34//18
f 35//19 36//19 37//19
f 37//19 36//19 38//19
f 36//20 39//20 38//20
f 38//20 39//20 40//20
f 39//21 41//21 40//21
f 40//21 41//21 42//21
f 41//22 43//22 42//22
f 42//22 43//22 44//22
f 43//23 45//23 44//23
f 44//23 45//23 46//23
f 45//24 47//24 46//24
f 46//24 47//24 48//24
f 47//25 49//25 48//25
f 48//25 49//25 50//25
f 49//26 51//26 50//26
f 50//27 51//27 52//27
f 51//28 53//28 52//28
f 52//28 53//28 54//28
f 53//29 55//29 54//29
f 54//29 55//29 56//29
f 55//30 57//30 56//30
f 56//30 57//30 58//30
f 57//31 59//31 58//31
f 58//31 59//31 60//31
f 59//32 61//32 60//32
f 60//32 61//32 62//32
f 61//33 63//33 62//33
f 62//33 63//33 64//33
f 63//34 65//34 64//34
f 64//34 65//34 66//34
f 65//35 35//35 66//35
f 66//35 35//35 37//35
f 36//36 35//36 67//36
f 39//36 36//36 67//36
f 41//36 39//36 67//36
f 43//36 41//36 67//36
f 45//36 43//36 67//36
f 47//36 45//36 67//36
f 49//36 47//36 67//36
f 51//36 49//36 67//36
f 53//36 51//36 67//36
f 55//36 53//36 67//36
f 57//36 55//36 67//36
f 59//36 57//36 67//36
f 61//36 59//36 67//36
f 63//37 61//37 67//37
f 65//36 63//36 67//36
f 35//36 65//36 67//36
f 37//38 38//38 68//38
f 38//38 40//38 68//38
f 40//38 42//38 68//38
f 42//38 44//38 68//38
f 44//38 46//38 68//38
f 46//38 48//38 68//38
f 48//38 50//38 68//38
f 50//38 52//38 68//38
f 52//38 54//38 68//38
f 54//38 56//38 68//38
f 56//38 58//38 68//38
f 58//38 60//38 68//38
f 60//38 62//38 68//38
f 62//38 64//38 68//38
f 64//38 66//38 68//38
f 66//38 37//38 68//38
f 69//39 70//39 71//39
f 71//39 70//39 72//39
f 70//40 73//40 72//40
f 72//40 73//40 74//40
f 73//41 75//41 74//41
f 74//41 75//41 76//41
f 75//42 77//42 76//42
f 76//42 77//42 78//42
f 77//43 79//43 78//43
f 78//43 79//43 80//43
f 79//44 81//44 80//44
f 80//45 81//45 82//45
f 81//46 83//46 82//46
f 82//46 83//46 84//46
f 83//47 85//47 84//47
f 84//47 85//47 86//47
f 85//48 87//48 86//48
f 86//48 87//48 88//48
f 87//49 89//49 88//49
f 88//50 89//50 90//50
f 89//51 91//51 90//51
f 90//52 91//52 92//52
f 91//53 93//53 92//53
f 92//53 93//53 94//53
f 93//54 95//54 94//54
f 94//54 95//54 96//54
f 95//55 97//55 96//55
f 96//55 97//55 98//55
f 97//56 99//56 98//56
f 98//56 99//56 100//56
f 99//57 69//57 100//57
f 100//57 69//57 71//57
f 70//58 69//58 101//58
f 73//59 70//59 101//59
f 75//59 73//59 101//59
f 77//59 75//59 101//59
f 79//59 77//59 101//59
f 81//59 79//59 101//59
f 83//59 81//59 101//59
f 85//59 83//59 101//59
f 87//59 85//59 101//59
f 89//59 87//59 101//59
f 91//60 89//60 101//60
f 93//59 91//59 101//59
f 95//59 93//59 101//59
f 97//59 95//59 101//59
f 99//59 97//59 101//59
f 69//59 99//59 101//59
f 71//61 72//61 102//61
f 72//61 74//61 102//61
f 74//61 76//61 102//61
f 76//61 78//61 102//61
f 78//61 80//61 102//61
f 80//61 82//61 102//61
f 82//61 84//61 102//61
f 84//62 86//62 102//62
f 86//63 88//63 102//63
f 88//61 90//61 102//61
f 90//63 92//63 102//63
f 92//64 94//64 102//64
f 94//61 96//61 102//61
f 96//63 98//63 102//63
f 98//61 100//61 102//61
f 100//61 71//61 102//61
f 103//65 104//65 105//65
f 105//65 104//65 106//65
f 104//66 107//66 106//66
f 106//66 107//66 108//66
f 107//67 109//67 108//67
f 108//67 109//67 110//67
f 109//68 111//68 110//68
f 110//68 111//68 112//68
f 111//69 113//69 112//69
f 112//69 113//69 114//69
f 113//70 115//70 114//70
f 114//70 115//70 116//70
f 115//71 117//71 116//71
f 116//71 117//71 118//71
f 117//72 119//72 118//72
f 118//73 119//73 120//73
f 119//74 121//74 120//74
f 120//74 121//74 122//74
f 121//75 123//75 122//75
f 122//75 123//75 124//75
f 123//76 125//76 124//76
f 124//76 125//76 126//76
f 125//77 127//77 126//77
f 126//77 127//77 128//77
f 127//78 129//78 128//78
f 128//78 129//78 130//78
f 129//79 131//79 130//79
f 130//79 131//79 132//79
f 131//80 133//80 132//80
f 132//80 133//80 134//80
f 133//81 103//81 134//81
f 134//81 103//81 105//81
f 104//82 103//82 135//82
f 107//82 104//82 135//82
f 109//82 107//82 135//82
f 111//82 109//82 135//82
f 113//82 111//82 135//82
f 115//82 113//82 135//82
f 117//82 115//82 135//82
f 119//82 117//82 135//82
f 121//82 119//82 135//82
f 123//82 121//82 135//82
f 125//82 123//82 135//82
f 127//82 125//82 135//82
f 129//82 127//82 135//82
f 131//82 129//82 135//82
f 133//82 131//82 135//82
f 103//82 133//82 135//82
f 105//83 106//83 136//83
f 106//83 108//83 136//83
f 108//83 110//83 136//83
f 110//83 112//83 136//83
f 112//83 114//83 136//83
f 114//83 116//83 136//83
f 116//83 118//83 136//83
f 118//83 120//83 136//83
f 120//83 122//83 136//83
f 122//83 124//83 136//83
f 124//83 126//83 136//83
f 126//83 128//83 136//83
f 128//83 130//83 136//83
f 130//83 132//83 136//83
f 132//83 134//83 136//83
f 134//83 105//83 136//83
f 137//84 138//84 139//84
f 139//84 138//84 140//84
f 138//85 141//85 140//85
f 140//85 141//85 142//85
f 141//86 143//86 142//86
f 142//86 143//86 144//86
f 143//87 145//87 144//87
f 144//87 145//87 146//87
f 145//88 147//88 146//88
f 146//88 147//88 148//88
f 147//89 149//89 148//89
f 148//90 149//90 150//90
f 149//91 151//91 150//91
f 150//91 151//91 152//91
f 151//92 153//92 152//92
f 152//93 153//93 154//93
f 153//94 155//94 154//94
f 154//94 155//94 156//94
f 155//95 157//95 156//95
f 156//95 157//95 158//95
f 157//96 159//96 158//96
f 158//97 159//97 160//97
f 159//98 161//98 160//98
f 160//98 161//98 162//98
f 161//99 163//99 162//99
f 162//99 163//99 164//99
f 163//100 165//100 164//100
f 164//100 165//100 166//100
f 165//101 167//101 166//101
f 166//101 167//101 168//101
f 167//102 137//102 168//102
f 168//102 137//102 139//102
f 138//103 137//103 169//103
f 141//103 138//103 169//103
f 143//103 141//103 169//103
f 145//103 143//103 169//103
f 147//103 145//103 169//103
f 149//103 147//103 169//103
f 151//103 149//103 169//103
f 153//103 151//103 169//103
f 155//103 153//103 169//103
f 157//103 155//103 169//103
f 159//103 157//103 169//103
f 161//103 159//103 169//103
f 163//103 161//103 169//103
f 165//103 163//103 169//103
f 167//103 165//103 169//103
f 137//103 167//103 169//103
f 139//104 140//104 170//104
f 140//104 142//104 170//104
f 142//104 144//104 170//104
f 144//104 146//104 170//104
f 146//104 148//104 170//104
f 148//104 150//104 170//104
f 150//104 152//104 170//104
f 152//104 154//104 170//104
f 154//104 156//104 170//104
f 156//104 158//104 170//104
f 158//104 160//104 170//104
f 160//104 162//104 170//104
f 162//104 164//104 170//104
f 164//104 166//104 170//104
f 166//104 168//104 170//104
f 168//104 139//104 170//104
