# Blender v2.72 (sub 0) OBJ File: 'leaves_3.blend'
# www.blender.org
mtllib leaves_3.mtl
o leaves_3
v -0.488306 -5.037136 -2.811109
v -0.824823 -4.766352 -4.007080
v -0.503503 -4.904836 -2.776878
v -0.840020 -4.634053 -3.972849
v -1.691577 -4.973264 -3.592176
v -1.706774 -4.840966 -3.557945
v -2.680942 -4.840422 -4.544845
v -2.696139 -4.708123 -4.510615
v -2.921202 -5.206583 -3.236308
v -2.936399 -5.074285 -3.202077
v -3.887144 -5.347423 -3.120808
v -3.902341 -5.215124 -3.086578
v -3.441690 -5.597536 -1.956365
v -3.456887 -5.465237 -1.922135
v -4.451723 -5.854447 -1.411825
v -4.466920 -5.722148 -1.377595
v -2.734180 -5.944207 -0.302381
v -2.749377 -5.811908 -0.268151
v -3.275397 -6.181309 0.373732
v -3.290593 -6.049011 0.407963
v -1.405318 -5.871618 0.007026
v -1.420515 -5.739319 0.041256
v -0.464171 -6.317083 2.146570
v -0.479368 -6.184784 2.180800
v -0.981282 -5.791158 -0.115695
v -0.996479 -5.658859 -0.081465
v 0.783282 -5.411180 -0.800899
v 0.768085 -5.278881 -0.766669
v -0.072013 -5.439065 -1.072845
v -0.087210 -5.306766 -1.038615
v 0.674221 -4.881805 -2.895336
v 0.659024 -4.749506 -2.861105
v -1.398925 -5.694415 -0.675022
v -1.414122 -5.562115 -0.640792
v 2.018679 3.945126 -0.034639
v 2.176286 4.586696 -1.121129
v 2.094086 4.039008 0.031737
v 2.251693 4.680578 -1.054754
v 1.355869 4.991321 -0.761388
v 1.431276 5.085203 -0.695013
v 0.919812 5.962367 -1.639451
v 0.995219 6.056249 -1.573075
v 0.273638 5.648433 -0.461328
v 0.349045 5.742315 -0.394953
v -0.518959 6.223201 -0.373845
v -0.443552 6.317083 -0.307469
v -0.580687 5.523416 0.686062
v -0.505280 5.617298 0.752438
v -1.558143 5.973132 1.160432
v -1.482737 6.067014 1.226808
v -0.610141 4.481743 2.192869
v -0.534734 4.575625 2.259244
v -1.268746 4.585514 2.794311
v -1.193339 4.679396 2.860687
v 0.315939 3.523840 2.495646
v 0.391345 3.617723 2.562022
v 0.298030 2.159826 4.445260
v 0.373436 2.253708 4.511635
v 0.689146 3.297235 2.392171
v 0.764553 3.391118 2.458546
v 2.303426 2.416556 1.803887
v 2.378833 2.510438 1.870263
v 1.732917 3.059081 1.543229
v 1.808324 3.152963 1.609605
v 2.953362 3.233827 -0.090432
v 3.028769 3.327709 -0.024056
v 0.560218 3.763257 1.879499
v 0.635625 3.857139 1.945875
v 7.246185 1.669825 -0.523636
v 7.685921 1.890024 -1.063297
v 7.210834 1.740419 -0.523636
v 7.650571 1.960618 -1.063297
v 7.250235 1.671853 -1.348145
v 7.214885 1.742447 -1.348145
v 7.392863 1.743274 -2.124239
v 7.357512 1.813868 -2.124239
v 6.736573 1.414636 -1.825833
v 6.701223 1.485230 -1.825833
v 6.406671 1.249436 -2.252955
v 6.371321 1.320030 -2.252955
v 6.012441 1.052025 -1.670974
v 5.977091 1.122619 -1.670974
v 5.477341 0.784073 -1.983606
v 5.441991 0.854667 -1.983606
v 5.474003 0.782401 -0.808428
v 5.438653 0.852995 -0.808428
v 5.014833 0.552470 -0.854434
v 4.979482 0.623064 -0.854434
v 5.717734 0.904450 -0.072764
v 5.682384 0.975044 -0.072764
v 5.028692 0.559411 1.055447
v 4.993342 0.630005 1.055447
v 5.894871 0.993151 0.091966
v 5.859520 1.063745 0.091966
v 6.710302 1.401480 0.722290
v 6.674951 1.472074 0.722290
v 6.586094 1.339283 0.225776
v 6.550744 1.409877 0.225776
v 7.618649 1.856337 0.007731
v 7.583298 1.926931 0.007731
v 6.025600 1.058614 -0.285343
v 5.990250 1.129208 -0.285343
v -7.156801 1.531185 0.379318
v -7.189866 1.952335 -0.501471
v -7.248399 1.482470 0.359464
v -7.281464 1.903621 -0.521326
v -6.817578 1.311708 -0.647174
v -6.909176 1.262993 -0.667029
v -6.579288 1.284494 -1.679744
v -6.670886 1.235779 -1.699599
v -6.319888 0.517763 -0.995233
v -6.411486 0.469048 -1.015088
v -5.950394 -0.024947 -1.368294
v -6.041992 -0.073661 -1.388148
v -5.961421 -0.375759 -0.456669
v -6.053019 -0.424474 -0.476524
v -5.519602 -1.152422 -0.589379
v -5.611199 -1.201136 -0.609233
v -6.004521 -0.836453 0.872523
v -6.096119 -0.885168 0.852669
v -5.717477 -1.442333 1.034837
v -5.809075 -1.491048 1.014982
v -6.451549 -0.321004 1.670176
v -6.543147 -0.369719 1.650321
v -6.516816 -0.903906 3.401479
v -6.608414 -0.952620 3.381625
v -6.623178 -0.047212 1.790204
v -6.714776 -0.095927 1.770349
v -7.360224 1.178279 2.183688
v -7.451822 1.129564 2.163833
v -7.082031 0.882458 1.626078
v -7.173629 0.833743 1.606223
v -7.594324 2.157303 0.861573
v -7.685921 2.108588 0.841718
v -6.543159 0.018885 1.258862
v -6.634756 -0.029830 1.239007
v 6.051808 5.231255 2.474273
v 5.944192 5.167790 1.972007
v 6.044081 5.312491 2.465664
v 5.936465 5.249026 1.963398
v 5.580558 5.150795 2.138015
v 5.572830 5.232031 2.129406
v 5.200760 5.071629 1.731886
v 5.193033 5.152865 1.723277
v 5.070442 5.116931 2.276330
v 5.062715 5.198169 2.267721
v 4.673774 5.083456 2.316474
v 4.666047 5.164691 2.307864
v 4.826584 5.149920 2.806486
v 4.818856 5.231156 2.797877
v 4.401329 5.132674 3.025431
v 4.393602 5.213910 3.016822
v 5.074124 5.247293 3.503130
v 5.066397 5.328529 3.494520
v 4.836750 5.254157 3.780947
v 4.829023 5.335393 3.772338
v 5.608243 5.312971 3.643470
v 5.600517 5.394207 3.634861
v 5.939028 5.439958 4.544845
v 5.931300 5.521194 4.536236
v 5.784157 5.324648 3.595773
v 5.776429 5.405885 3.587163
v 6.520510 5.365931 3.324404
v 6.512783 5.447167 3.315795
v 6.178536 5.320608 3.203674
v 6.170809 5.401845 3.195065
v 6.527849 5.273839 2.448836
v 6.520122 5.355076 2.440227
v 5.627719 5.284644 3.358695
v 5.619992 5.365880 3.350086
vn 0.958000 0.169800 -0.231100
vn -0.458500 0.172900 -0.871700
vn 0.688300 0.254800 -0.679200
vn -0.978500 -0.061500 -0.196900
vn -0.148700 0.231700 -0.961400
vn -0.930100 -0.188400 0.315300
vn -0.500000 0.162700 -0.850600
vn -0.532500 -0.268800 0.802600
vn -0.790200 0.066800 -0.609100
vn 0.222700 -0.220200 0.949700
vn 0.222700 -0.220100 0.949700
vn -0.911800 -0.197800 0.359900
vn 0.969800 0.159200 -0.184700
vn 0.390500 -0.188300 0.901100
vn 0.283700 0.270600 -0.919900
vn 0.924600 0.007600 0.380900
vn -0.101800 0.238200 -0.965900
vn 0.110500 -0.962200 -0.249000
vn 0.110500 -0.962200 -0.248900
vn -0.110500 0.962200 0.249000
vn -0.110500 0.962200 0.248900
vn 0.827000 -0.528400 -0.192100
vn -0.051200 0.603600 -0.795600
vn 0.774200 -0.196400 -0.601700
vn -0.692800 0.694300 -0.195000
vn 0.221500 0.438100 -0.871200
vn -0.834800 0.480600 0.268700
vn -0.090800 0.622500 -0.777300
vn -0.696200 0.053000 0.715900
vn -0.696200 0.053100 0.715900
vn -0.401600 0.721400 -0.564200
vn -0.159800 -0.481100 0.862000
vn -0.836200 0.453000 0.309200
vn 0.819900 -0.552500 -0.149900
vn -0.012200 -0.570700 0.821100
vn -0.012200 -0.570700 0.821000
vn 0.543600 0.147500 -0.826300
vn 0.586200 -0.725600 0.360300
vn 0.259600 0.409700 -0.874500
vn -0.548400 -0.682800 -0.482700
vn 0.548400 0.682800 0.482700
vn 0.660900 0.331000 0.673600
vn 0.660900 0.330900 0.673600
vn 0.451300 0.226000 -0.863300
vn 0.875800 0.438600 0.201300
vn -0.336800 -0.168600 -0.926400
vn 0.676700 0.338800 -0.653700
vn -0.712700 -0.356900 -0.603900
vn 0.414000 0.207300 -0.886300
vn -0.894200 -0.447700 -0.003200
vn -0.894200 -0.447800 -0.003200
vn 0.079800 0.040000 -0.996000
vn -0.630500 -0.315700 0.709100
vn -0.738400 -0.369700 -0.564000
vn 0.630600 0.315700 0.709000
vn 0.630500 0.315800 0.709000
vn -0.508400 -0.254600 0.822600
vn 0.861100 0.431200 -0.269400
vn 0.165900 0.083100 0.982600
vn 0.703700 0.352400 -0.617000
vn 0.447800 -0.894200 0.000000
vn 0.447700 -0.894200 -0.000000
vn -0.447800 0.894200 -0.000000
vn -0.447700 0.894200 0.000000
vn -0.496900 0.775500 0.389500
vn 0.070500 0.260000 -0.963000
vn -0.444400 0.886900 -0.125900
vn 0.433800 -0.514000 -0.740100
vn -0.092700 0.520400 -0.848900
vn -0.092800 0.520400 -0.848900
vn 0.497900 -0.811400 -0.306200
vn 0.093900 0.219300 -0.971100
vn 0.391000 -0.864200 0.316500
vn 0.273600 -0.125800 -0.953600
vn 0.055400 -0.464500 0.883800
vn 0.496700 -0.828000 -0.260100
vn -0.494600 0.753400 0.433200
vn -0.033000 -0.323500 0.945700
vn -0.292200 0.776800 -0.557900
vn -0.376700 0.360400 0.853400
vn -0.115900 0.554000 -0.824400
vn 0.867200 0.461200 0.188000
vn -0.867200 -0.461200 -0.188000
vn 0.973600 0.069600 -0.217400
vn -0.406300 -0.134400 -0.903800
vn 0.730700 -0.002900 -0.682700
vn -0.968100 -0.115600 -0.222100
vn -0.090600 -0.113500 -0.989400
vn -0.950800 -0.058200 0.304400
vn -0.449100 -0.136300 -0.883000
vn -0.582100 0.030700 0.812500
vn -0.754500 -0.139700 -0.641200
vn 0.165300 0.119500 0.979000
vn -0.935100 -0.051800 0.350500
vn 0.982600 0.075500 -0.169500
vn 0.336400 0.130800 0.932600
vn 0.340000 -0.067100 -0.938000
vn 0.902900 0.129300 0.409800
vn -0.043300 -0.109400 -0.993100
vn 0.094200 -0.990000 0.104900
vn -0.094200 0.990000 -0.104900
usemtl pasted__phong1SG3
s off
f 1//1 2//1 3//1
f 3//1 2//1 4//1
f 2//2 5//2 4//2
f 4//2 5//2 6//2
f 5//3 7//3 6//3
f 6//3 7//3 8//3
f 7//4 9//4 8//4
f 8//4 9//4 10//4
f 9//5 11//5 10//5
f 10//5 11//5 12//5
f 11//6 13//6 12//6
f 12//6 13//6 14//6
f 13//7 15//7 14//7
f 14//7 15//7 16//7
f 15//8 17//8 16//8
f 16//8 17//8 18//8
f 17//9 19//9 18//9
f 18//9 19//9 20//9
f 19//10 21//10 20//10
f 20//11 21//11 22//11
f 21//12 23//12 22//12
f 22//12 23//12 24//12
f 23//13 25//13 24//13
f 24//13 25//13 26//13
f 25//14 27//14 26//14
f 26//14 27//14 28//14
f 27//15 29//15 28//15
f 28//15 29//15 30//15
f 29//16 31//16 30//16
f 30//16 31//16 32//16
f 31//17 1//17 32//17
f 32//17 1//17 3//17
f 2//18 1//18 33//18
f 5//18 2//18 33//18
f 7//18 5//18 33//18
f 9//18 7//18 33//18
f 11//18 9//18 33//18
f 13//18 11//18 33//18
f 15//18 13//18 33//18
f 17//18 15//18 33//18
f 19//18 17//18 33//18
f 21//19 19//19 33//19
f 23//18 21//18 33//18
f 25//18 23//18 33//18
f 27//18 25//18 33//18
f 29//19 27//19 33//19
f 31//18 29//18 33//18
f 1//18 31//18 33//18
f 3//20 4//20 34//20
f 4//20 6//20 34//20
f 6//20 8//20 34//20
f 8//20 10//20 34//20
f 10//20 12//20 34//20
f 12//20 14//20 34//20
f 14//21 16//21 34//21
f 16//20 18//20 34//20
f 18//20 20//20 34//20
f 20//20 22//20 34//20
f 22//20 24//20 34//20
f 24//20 26//20 34//20
f 26//20 28//20 34//20
f 28//21 30//21 34//21
f 30//20 32//20 34//20
f 32//20 3//20 34//20
f 35//22 36//22 37//22
f 37//22 36//22 38//22
f 36//23 39//23 38//23
f 38//23 39//23 40//23
f 39//24 41//24 40//24
f 40//24 41//24 42//24
f 41//25 43//25 42//25
f 42//25 43//25 44//25
f 43//26 45//26 44//26
f 44//26 45//26 46//26
f 45//27 47//27 46//27
f 46//27 47//27 48//27
f 47//28 49//28 48//28
f 48//28 49//28 50//28
f 49//29 51//29 50//29
f 50//30 51//30 52//30
f 51//31 53//31 52//31
f 52//31 53//31 54//31
f 53//32 55//32 54//32
f 54//32 55//32 56//32
f 55//33 57//33 56//33
f 56//33 57//33 58//33
f 57//34 59//34 58//34
f 58//34 59//34 60//34
f 59//35 61//35 60//35
f 60//36 61//36 62//36
f 61//37 63//37 62//37
f 62//37 63//37 64//37
f 63//38 65//38 64//38
f 64//38 65//38 66//38
f 65//39 35//39 66//39
f 66//39 35//39 37//39
f 36//40 35//40 67//40
f 39//40 36//40 67//40
f 41//40 39//40 67//40
f 43//40 41//40 67//40
f 45//40 43//40 67//40
f 47//40 45//40 67//40
f 49//40 47//40 67//40
f 51//40 49//40 67//40
f 53//40 51//40 67//40
f 55//40 53//40 67//40
f 57//40 55//40 67//40
f 59//40 57//40 67//40
f 61//40 59//40 67//40
f 63//40 61//40 67//40
f 65//40 63//40 67//40
f 35//40 65//40 67//40
f 37//41 38//41 68//41
f 38//41 40//41 68//41
f 40//41 42//41 68//41
f 42//41 44//41 68//41
f 44//41 46//41 68//41
f 46//41 48//41 68//41
f 48//41 50//41 68//41
f 50//41 52//41 68//41
f 52//41 54//41 68//41
f 54//41 56//41 68//41
f 56//41 58//41 68//41
f 58//41 60//41 68//41
f 60//41 62//41 68//41
f 62//41 64//41 68//41
f 64//41 66//41 68//41
f 66//41 37//41 68//41
f 69//42 70//42 71//42
f 71//43 70//43 72//43
f 70//44 73//44 72//44
f 72//44 73//44 74//44
f 73//45 75//45 74//45
f 74//45 75//45 76//45
f 75//46 77//46 76//46
f 76//46 77//46 78//46
f 77//47 79//47 78//47
f 78//47 79//47 80//47
f 79//48 81//48 80//48
f 80//48 81//48 82//48
f 81//49 83//49 82//49
f 82//49 83//49 84//49
f 83//50 85//50 84//50
f 84//51 85//51 86//51
f 85//52 87//52 86//52
f 86//52 87//52 88//52
f 87//53 89//53 88//53
f 88//53 89//53 90//53
f 89//54 91//54 90//54
f 90//54 91//54 92//54
f 91//55 93//55 92//55
f 92//56 93//56 94//56
f 93//57 95//57 94//57
f 94//57 95//57 96//57
f 95//58 97//58 96//58
f 96//58 97//58 98//58
f 97//59 99//59 98//59
f 98//59 99//59 100//59
f 99//60 69//60 100//60
f 100//60 69//60 71//60
f 70//61 69//61 101//61
f 73//61 70//61 101//61
f 75//61 73//61 101//61
f 77//61 75//61 101//61
f 79//61 77//61 101//61
f 81//61 79//61 101//61
f 83//61 81//61 101//61
f 85//61 83//61 101//61
f 87//61 85//61 101//61
f 89//61 87//61 101//61
f 91//62 89//62 101//62
f 93//62 91//62 101//62
f 95//61 93//61 101//61
f 97//61 95//61 101//61
f 99//61 97//61 101//61
f 69//61 99//61 101//61
f 71//63 72//63 102//63
f 72//63 74//63 102//63
f 74//63 76//63 102//63
f 76//63 78//63 102//63
f 78//63 80//63 102//63
f 80//64 82//64 102//64
f 82//63 84//63 102//63
f 84//63 86//63 102//63
f 86//63 88//63 102//63
f 88//63 90//63 102//63
f 90//64 92//64 102//64
f 92//63 94//63 102//63
f 94//63 96//63 102//63
f 96//63 98//63 102//63
f 98//63 100//63 102//63
f 100//63 71//63 102//63
f 103//65 104//65 105//65
f 105//65 104//65 106//65
f 104//66 107//66 106//66
f 106//66 107//66 108//66
f 107//67 109//67 108//67
f 108//67 109//67 110//67
f 109//68 111//68 110//68
f 110//68 111//68 112//68
f 111//69 113//69 112//69
f 112//70 113//70 114//70
f 113//71 115//71 114//71
f 114//71 115//71 116//71
f 115//72 117//72 116//72
f 116//72 117//72 118//72
f 117//73 119//73 118//73
f 118//73 119//73 120//73
f 119//74 121//74 120//74
f 120//74 121//74 122//74
f 121//75 123//75 122//75
f 122//75 123//75 124//75
f 123//76 125//76 124//76
f 124//76 125//76 126//76
f 125//77 127//77 126//77
f 126//77 127//77 128//77
f 127//78 129//78 128//78
f 128//78 129//78 130//78
f 129//79 131//79 130//79
f 130//79 131//79 132//79
f 131//80 133//80 132//80
f 132//80 133//80 134//80
f 133//81 103//81 134//81
f 134//81 103//81 105//81
f 104//82 103//82 135//82
f 107//82 104//82 135//82
f 109//82 107//82 135//82
f 111//82 109//82 135//82
f 113//82 111//82 135//82
f 115//82 113//82 135//82
f 117//82 115//82 135//82
f 119//82 117//82 135//82
f 121//82 119//82 135//82
f 123//82 121//82 135//82
f 125//82 123//82 135//82
f 127//82 125//82 135//82
f 129//82 127//82 135//82
f 131//82 129//82 135//82
f 133//82 131//82 135//82
f 103//82 133//82 135//82
f 105//83 106//83 136//83
f 106//83 108//83 136//83
f 108//83 110//83 136//83
f 110//83 112//83 136//83
f 112//83 114//83 136//83
f 114//83 116//83 136//83
f 116//83 118//83 136//83
f 118//83 120//83 136//83
f 120//83 122//83 136//83
f 122//83 124//83 136//83
f 124//83 126//83 136//83
f 126//83 128//83 136//83
f 128//83 130//83 136//83
f 130//83 132//83 136//83
f 132//83 134//83 136//83
f 134//83 105//83 136//83
f 137//84 138//84 139//84
f 139//84 138//84 140//84
f 138//85 141//85 140//85
f 140//85 141//85 142//85
f 141//86 143//86 142//86
f 142//86 143//86 144//86
f 143//87 145//87 144//87
f 144//87 145//87 146//87
f 145//88 147//88 146//88
f 146//88 147//88 148//88
f 147//89 149//89 148//89
f 148//89 149//89 150//89
f 149//90 151//90 150//90
f 150//90 151//90 152//90
f 151//91 153//91 152//91
f 152//91 153//91 154//91
f 153//92 155//92 154//92
f 154//92 155//92 156//92
f 155//93 157//93 156//93
f 156//93 157//93 158//93
f 157//94 159//94 158//94
f 158//94 159//94 160//94
f 159//95 161//95 160//95
f 160//95 161//95 162//95
f 161//96 163//96 162//96
f 162//96 163//96 164//96
f 163//97 165//97 164//97
f 164//97 165//97 166//97
f 165//98 167//98 166//98
f 166//98 167//98 168//98
f 167//99 137//99 168//99
f 168//99 137//99 139//99
f 138//100 137//100 169//100
f 141//100 138//100 169//100
f 143//100 141//100 169//100
f 145//100 143//100 169//100
f 147//100 145//100 169//100
f 149//100 147//100 169//100
f 151//100 149//100 169//100
f 153//100 151//100 169//100
f 155//100 153//100 169//100
f 157//100 155//100 169//100
f 159//100 157//100 169//100
f 161//100 159//100 169//100
f 163//100 161//100 169//100
f 165//100 163//100 169//100
f 167//100 165//100 169//100
f 137//100 167//100 169//100
f 139//101 140//101 170//101
f 140//101 142//101 170//101
f 142//101 144//101 170//101
f 144//101 146//101 170//101
f 146//101 148//101 170//101
f 148//101 150//101 170//101
f 150//101 152//101 170//101
f 152//101 154//101 170//101
f 154//101 156//101 170//101
f 156//101 158//101 170//101
f 158//101 160//101 170//101
f 160//101 162//101 170//101
f 162//101 164//101 170//101
f 164//101 166//101 170//101
f 166//101 168//101 170//101
f 168//101 139//101 170//101
