# Blender v2.72 (sub 0) OBJ File: 'leaves_4.blend'
# www.blender.org
mtllib leaves_4.mtl
o leaves_4
v -0.484318 -5.542679 -2.635990
v -0.836214 -5.149061 -3.792773
v -0.537979 -5.428709 -2.580885
v -0.889876 -5.035089 -3.737668
v -1.623708 -5.660439 -3.501974
v -1.677370 -5.546469 -3.446869
v -2.571107 -5.621796 -4.504477
v -2.624768 -5.507824 -4.449372
v -2.748806 -6.284354 -3.307185
v -2.802468 -6.170382 -3.252080
v -3.638216 -6.702888 -3.307659
v -3.691877 -6.588916 -3.252554
v -3.186644 -7.041234 -2.168134
v -3.240305 -6.927261 -2.113029
v -4.102238 -7.663786 -1.772145
v -4.155900 -7.549815 -1.717040
v -2.476064 -7.493320 -0.541140
v -2.529726 -7.379349 -0.486035
v -2.953606 -7.994614 0.030629
v -3.007268 -7.880642 0.085735
v -1.236563 -7.121883 -0.102337
v -1.290225 -7.007912 -0.047231
v -0.293395 -7.696805 2.005208
v -0.347056 -7.582834 2.060313
v -0.848573 -6.906727 -0.169510
v -0.902235 -6.792755 -0.114404
v 0.760055 -5.935230 -0.612323
v 0.706394 -5.821259 -0.557218
v -0.040200 -6.142530 -0.962865
v -0.093862 -6.028559 -0.907760
v 0.587964 -5.062871 -2.584167
v 0.534302 -4.948898 -2.529062
v -1.253846 -6.821830 -0.739753
v -1.307507 -6.707858 -0.684648
v 0.692003 6.473408 -0.185951
v 0.474929 7.195495 -1.209857
v 0.720798 6.586082 -0.112595
v 0.503723 7.308169 -1.136501
v -0.415704 7.153688 -0.796040
v -0.386910 7.266362 -0.722684
v -1.297049 7.881940 -1.568667
v -1.268254 7.994615 -1.495310
v -1.657132 7.221003 -0.412133
v -1.628337 7.333676 -0.338777
v -2.616785 7.363137 -0.253754
v -2.587990 7.475811 -0.180398
v -2.289728 6.635087 0.736139
v -2.260934 6.747761 0.809495
v -3.333378 6.553154 1.271653
v -3.304584 6.665828 1.345009
v -1.751726 5.585089 2.137736
v -1.722931 5.697762 2.211092
v -2.347408 5.332089 2.760163
v -2.318614 5.444764 2.833519
v -0.475934 5.134768 2.328631
v -0.447139 5.247441 2.401987
v 0.245481 3.771018 4.140149
v 0.274276 3.883692 4.213504
v -0.047827 5.111555 2.196240
v -0.019033 5.224228 2.269597
v 1.750226 5.109904 1.492980
v 1.779021 5.222579 1.566337
v 0.935994 5.439353 1.306566
v 0.964788 5.552027 1.379922
v 1.841766 6.272544 -0.328746
v 1.870560 6.385218 -0.255390
v -0.404963 5.504486 1.732893
v -0.376169 5.617158 1.806249
v 7.647780 0.355252 -0.854579
v 7.799340 0.674346 -1.493562
v 7.643689 0.426173 -0.820133
v 7.795249 0.745267 -1.459116
v 7.235688 0.647886 -1.506025
v 7.231597 0.718807 -1.471578
v 6.981590 0.963848 -2.186736
v 6.977499 1.034769 -2.152289
v 6.499584 0.666835 -1.632462
v 6.495493 0.737757 -1.598016
v 5.966109 0.721539 -1.808448
v 5.962018 0.792460 -1.774002
v 5.879763 0.400766 -1.158264
v 5.875671 0.471687 -1.123818
v 5.206273 0.355114 -1.144259
v 5.202182 0.426036 -1.109813
v 5.795977 -0.061268 -0.216934
v 5.791886 0.009653 -0.182488
v 5.330194 -0.179009 -0.029836
v 5.326104 -0.108087 0.004610
v 6.402068 -0.250184 0.244007
v 6.397977 -0.179263 0.278453
v 6.307161 -0.850079 1.467858
v 6.303071 -0.779157 1.502304
v 6.655913 -0.256719 0.287609
v 6.651822 -0.185798 0.322055
v 7.759888 -0.241556 0.387501
v 7.755796 -0.170634 0.421948
v 7.389660 -0.102294 0.056806
v 7.385570 -0.031372 0.091252
v 8.274875 0.276120 -0.617179
v 8.270783 0.347042 -0.582733
v 6.591550 -0.085194 -0.073187
v 6.587459 -0.014273 -0.038741
v -8.133422 2.543772 0.570411
v -8.155812 3.139402 -0.203523
v -8.238920 2.538594 0.569478
v -8.261311 3.134224 -0.204456
v -8.119543 2.459164 -0.529398
v -8.225040 2.453986 -0.530331
v -8.116474 2.586277 -1.581802
v -8.221972 2.581100 -1.582736
v -8.074344 1.641588 -1.102734
v -8.179842 1.636410 -1.103667
v -8.043246 1.103266 -1.631389
v -8.148745 1.098088 -1.632322
v -8.024860 0.580069 -0.806661
v -8.130359 0.574891 -0.807594
v -7.980955 -0.251293 -1.157278
v -8.086453 -0.256471 -1.158211
v -8.000913 -0.127073 0.409985
v -8.106411 -0.132251 0.409052
v -7.967057 -0.816032 0.405462
v -8.072556 -0.821210 0.404529
v -8.031109 0.316822 1.360678
v -8.136606 0.311644 1.359745
v -8.000882 -0.585428 2.950167
v -8.106380 -0.590606 2.949234
v -8.046696 0.598763 1.558393
v -8.152193 0.593585 1.557460
v -8.116248 1.882583 2.297896
v -8.221746 1.877405 2.296963
v -8.098770 1.643002 1.651270
v -8.204268 1.637823 1.650337
v -8.169376 3.156946 1.232790
v -8.274875 3.151768 1.231856
v -8.049624 0.751996 1.039155
v -8.155122 0.746818 1.038222
v 6.139138 4.264469 2.428546
v 5.992939 4.322587 1.935466
v 6.187944 4.330087 2.421809
v 6.041745 4.388206 1.928729
v 5.721996 4.544032 2.129451
v 5.770803 4.609650 2.122714
v 5.369629 4.767523 1.753494
v 5.418437 4.833141 1.746757
v 5.330590 4.853407 2.307167
v 5.379397 4.919024 2.300430
v 5.018160 5.093072 2.378061
v 5.066967 5.158689 2.371324
v 5.199036 5.007545 2.855397
v 5.247842 5.073163 2.848660
v 4.885150 5.266849 3.107019
v 4.933957 5.332467 3.100282
v 5.480411 4.867690 3.531665
v 5.529217 4.933308 3.524928
v 5.323831 5.014524 3.827467
v 5.372638 5.080142 3.820730
v 5.924376 4.547592 3.630281
v 5.973182 4.613210 3.623544
v 6.296835 4.360308 4.504477
v 6.345643 4.425926 4.497740
v 6.059352 4.440904 3.568996
v 6.108159 4.506522 3.562258
v 6.615763 3.993354 3.240868
v 6.664570 4.058971 3.234131
v 6.327814 4.197884 3.146903
v 6.376621 4.263502 3.140166
v 6.516807 3.977153 2.366169
v 6.565614 4.042770 2.359431
v 5.905857 4.532021 3.344461
v 5.954664 4.597639 3.337723
vn 0.878100 0.465900 -0.108600
vn -0.453700 0.205600 -0.867100
vn 0.613400 0.558700 -0.558200
vn -0.911700 -0.287000 -0.294100
vn -0.911600 -0.287000 -0.294100
vn -0.170200 0.362800 -0.916200
vn -0.849500 -0.492100 0.190500
vn -0.491300 0.180600 -0.852000
vn -0.465200 -0.553200 0.691100
vn -0.751600 -0.035400 -0.658700
vn 0.238200 -0.329500 0.913600
vn -0.831000 -0.504500 0.234300
vn 0.890600 0.450200 -0.063800
vn 0.391800 -0.244400 0.887000
vn 0.231100 0.509500 -0.828800
vn 0.868000 0.186200 0.460300
vn -0.127000 0.382700 -0.915100
vn 0.390300 -0.828900 -0.400800
vn -0.390300 0.828900 0.400800
vn 0.962800 -0.077600 -0.258800
vn 0.962800 -0.077500 -0.258800
vn -0.367700 0.571600 -0.733600
vn 0.740400 0.223500 -0.633900
vn -0.942400 0.314700 -0.113500
vn -0.054900 0.554600 -0.830300
vn -0.943400 0.025800 0.330700
vn -0.410400 0.568900 -0.712700
vn -0.599100 -0.323700 0.732300
vn -0.718400 0.499100 -0.484600
vn 0.128600 -0.564000 0.815700
vn 0.128600 -0.563900 0.815700
vn -0.929600 -0.002300 0.368500
vn 0.970000 -0.105300 -0.219000
vn 0.298000 -0.573100 0.763300
vn 0.365900 0.440300 -0.819900
vn 0.871900 -0.403400 0.277400
vn -0.008400 0.547100 -0.837000
vn -0.209400 -0.819500 -0.533500
vn 0.209400 0.819500 0.533500
vn 0.976800 -0.045200 0.209100
vn -0.000600 0.436900 -0.899500
vn 0.945800 0.184400 -0.267400
vn -0.792000 0.229200 -0.565900
vn 0.322400 0.428500 -0.844000
vn -0.991600 0.005500 -0.129000
vn -0.991600 0.005400 -0.129000
vn -0.048100 0.434100 -0.899600
vn -0.863400 -0.259800 0.432400
vn -0.425600 0.375400 -0.823400
vn -0.249900 -0.434600 0.865200
vn -0.249900 -0.434700 0.865200
vn -0.996200 -0.016100 -0.085200
vn -0.996200 -0.016100 -0.085100
vn 0.965500 -0.066600 0.251800
vn -0.075000 -0.439200 0.895300
vn 0.694000 0.346500 -0.631100
vn 0.655700 -0.298900 0.693300
vn 0.367000 0.423400 -0.828300
vn 0.367000 0.423500 -0.828300
vn 0.051800 -0.898300 -0.436300
vn -0.051800 0.898300 0.436300
vn -0.044200 0.791100 0.610100
vn -0.013200 0.431400 -0.902100
vn -0.013200 0.431400 -0.902000
vn -0.049700 0.991600 0.119600
vn 0.030000 -0.451000 -0.892000
vn -0.028000 0.699600 -0.714000
vn 0.046100 -0.843100 -0.535900
vn 0.046100 -0.843000 -0.535900
vn -0.010900 0.388100 -0.921600
vn 0.048200 -0.995700 0.079500
vn 0.008500 0.007000 -0.999900
vn 0.024800 -0.643600 0.765000
vn 0.047000 -0.868300 -0.493800
vn -0.043000 0.760200 0.648200
vn 0.016800 -0.498400 0.866800
vn -0.042900 0.936500 -0.348100
vn -0.021600 0.265400 0.963900
vn -0.029900 0.732700 -0.679900
vn 0.998800 0.049000 0.008800
vn -0.998800 -0.049000 -0.008800
vn 0.752600 -0.589800 -0.292700
vn -0.433200 0.232800 -0.870700
vn 0.502600 -0.449700 -0.738400
vn -0.800800 0.580700 -0.146500
vn -0.800900 0.580600 -0.146500
vn -0.190900 0.041300 -0.980700
vn -0.723900 0.577300 0.377800
vn -0.723900 0.577200 0.377700
vn -0.464900 0.258800 -0.846700
vn -0.464900 0.258900 -0.846700
vn -0.368300 0.361900 0.856400
vn -0.680200 0.446200 -0.581600
vn 0.249400 -0.086500 0.964500
vn -0.705900 0.568500 0.422500
vn -0.705900 0.568400 0.422500
vn 0.765600 -0.594600 -0.245600
vn 0.380700 -0.190200 0.904900
vn 0.159600 -0.217600 -0.962900
vn 0.771200 -0.538800 0.339000
vn -0.153500 0.012700 -0.988100
vn -0.594800 -0.799700 0.082100
vn 0.594800 0.799700 -0.082100
usemtl pasted__phong1SG5
s off
f 1//1 2//1 3//1
f 3//1 2//1 4//1
f 2//2 5//2 4//2
f 4//2 5//2 6//2
f 5//3 7//3 6//3
f 6//3 7//3 8//3
f 7//4 9//4 8//4
f 8//5 9//5 10//5
f 9//6 11//6 10//6
f 10//6 11//6 12//6
f 11//7 13//7 12//7
f 12//7 13//7 14//7
f 13//8 15//8 14//8
f 14//8 15//8 16//8
f 15//9 17//9 16//9
f 16//9 17//9 18//9
f 17//10 19//10 18//10
f 18//10 19//10 20//10
f 19//11 21//11 20//11
f 20//11 21//11 22//11
f 21//12 23//12 22//12
f 22//12 23//12 24//12
f 23//13 25//13 24//13
f 24//13 25//13 26//13
f 25//14 27//14 26//14
f 26//14 27//14 28//14
f 27//15 29//15 28//15
f 28//15 29//15 30//15
f 29//16 31//16 30//16
f 30//16 31//16 32//16
f 31//17 1//17 32//17
f 32//17 1//17 3//17
f 2//18 1//18 33//18
f 5//18 2//18 33//18
f 7//18 5//18 33//18
f 9//18 7//18 33//18
f 11//18 9//18 33//18
f 13//18 11//18 33//18
f 15//18 13//18 33//18
f 17//18 15//18 33//18
f 19//18 17//18 33//18
f 21//18 19//18 33//18
f 23//18 21//18 33//18
f 25//18 23//18 33//18
f 27//18 25//18 33//18
f 29//18 27//18 33//18
f 31//18 29//18 33//18
f 1//18 31//18 33//18
f 3//19 4//19 34//19
f 4//19 6//19 34//19
f 6//19 8//19 34//19
f 8//19 10//19 34//19
f 10//19 12//19 34//19
f 12//19 14//19 34//19
f 14//19 16//19 34//19
f 16//19 18//19 34//19
f 18//19 20//19 34//19
f 20//19 22//19 34//19
f 22//19 24//19 34//19
f 24//19 26//19 34//19
f 26//19 28//19 34//19
f 28//19 30//19 34//19
f 30//19 32//19 34//19
f 32//19 3//19 34//19
f 35//20 36//20 37//20
f 37//21 36//21 38//21
f 36//22 39//22 38//22
f 38//22 39//22 40//22
f 39//23 41//23 40//23
f 40//23 41//23 42//23
f 41//24 43//24 42//24
f 42//24 43//24 44//24
f 43//25 45//25 44//25
f 44//25 45//25 46//25
f 45//26 47//26 46//26
f 46//26 47//26 48//26
f 47//27 49//27 48//27
f 48//27 49//27 50//27
f 49//28 51//28 50//28
f 50//28 51//28 52//28
f 51//29 53//29 52//29
f 52//29 53//29 54//29
f 53//30 55//30 54//30
f 54//31 55//31 56//31
f 55//32 57//32 56//32
f 56//32 57//32 58//32
f 57//33 59//33 58//33
f 58//33 59//33 60//33
f 59//34 61//34 60//34
f 60//34 61//34 62//34
f 61//35 63//35 62//35
f 62//35 63//35 64//35
f 63//36 65//36 64//36
f 64//36 65//36 66//36
f 65//37 35//37 66//37
f 66//37 35//37 37//37
f 36//38 35//38 67//38
f 39//38 36//38 67//38
f 41//38 39//38 67//38
f 43//38 41//38 67//38
f 45//38 43//38 67//38
f 47//38 45//38 67//38
f 49//38 47//38 67//38
f 51//38 49//38 67//38
f 53//38 51//38 67//38
f 55//38 53//38 67//38
f 57//38 55//38 67//38
f 59//38 57//38 67//38
f 61//38 59//38 67//38
f 63//38 61//38 67//38
f 65//38 63//38 67//38
f 35//38 65//38 67//38
f 37//39 38//39 68//39
f 38//39 40//39 68//39
f 40//39 42//39 68//39
f 42//39 44//39 68//39
f 44//39 46//39 68//39
f 46//39 48//39 68//39
f 48//39 50//39 68//39
f 50//39 52//39 68//39
f 52//39 54//39 68//39
f 54//39 56//39 68//39
f 56//39 58//39 68//39
f 58//39 60//39 68//39
f 60//39 62//39 68//39
f 62//39 64//39 68//39
f 64//39 66//39 68//39
f 66//39 37//39 68//39
f 69//40 70//40 71//40
f 71//40 70//40 72//40
f 70//41 73//41 72//41
f 72//41 73//41 74//41
f 73//42 75//42 74//42
f 74//42 75//42 76//42
f 75//43 77//43 76//43
f 76//43 77//43 78//43
f 77//44 79//44 78//44
f 78//44 79//44 80//44
f 79//45 81//45 80//45
f 80//46 81//46 82//46
f 81//47 83//47 82//47
f 82//47 83//47 84//47
f 83//48 85//48 84//48
f 84//48 85//48 86//48
f 85//49 87//49 86//49
f 86//49 87//49 88//49
f 87//50 89//50 88//50
f 88//51 89//51 90//51
f 89//52 91//52 90//52
f 90//53 91//53 92//53
f 91//54 93//54 92//54
f 92//54 93//54 94//54
f 93//55 95//55 94//55
f 94//55 95//55 96//55
f 95//56 97//56 96//56
f 96//56 97//56 98//56
f 97//57 99//57 98//57
f 98//57 99//57 100//57
f 99//58 69//58 100//58
f 100//59 69//59 71//59
f 70//60 69//60 101//60
f 73//60 70//60 101//60
f 75//60 73//60 101//60
f 77//60 75//60 101//60
f 79//60 77//60 101//60
f 81//60 79//60 101//60
f 83//60 81//60 101//60
f 85//60 83//60 101//60
f 87//60 85//60 101//60
f 89//60 87//60 101//60
f 91//60 89//60 101//60
f 93//60 91//60 101//60
f 95//60 93//60 101//60
f 97//60 95//60 101//60
f 99//60 97//60 101//60
f 69//60 99//60 101//60
f 71//61 72//61 102//61
f 72//61 74//61 102//61
f 74//61 76//61 102//61
f 76//61 78//61 102//61
f 78//61 80//61 102//61
f 80//61 82//61 102//61
f 82//61 84//61 102//61
f 84//61 86//61 102//61
f 86//61 88//61 102//61
f 88//61 90//61 102//61
f 90//61 92//61 102//61
f 92//61 94//61 102//61
f 94//61 96//61 102//61
f 96//61 98//61 102//61
f 98//61 100//61 102//61
f 100//61 71//61 102//61
f 103//62 104//62 105//62
f 105//62 104//62 106//62
f 104//63 107//63 106//63
f 106//64 107//64 108//64
f 107//65 109//65 108//65
f 108//65 109//65 110//65
f 109//66 111//66 110//66
f 110//66 111//66 112//66
f 111//67 113//67 112//67
f 112//67 113//67 114//67
f 113//68 115//68 114//68
f 114//69 115//69 116//69
f 115//70 117//70 116//70
f 116//70 117//70 118//70
f 117//71 119//71 118//71
f 118//71 119//71 120//71
f 119//72 121//72 120//72
f 120//72 121//72 122//72
f 121//73 123//73 122//73
f 122//73 123//73 124//73
f 123//74 125//74 124//74
f 124//74 125//74 126//74
f 125//75 127//75 126//75
f 126//75 127//75 128//75
f 127//76 129//76 128//76
f 128//76 129//76 130//76
f 129//77 131//77 130//77
f 130//77 131//77 132//77
f 131//78 133//78 132//78
f 132//78 133//78 134//78
f 133//79 103//79 134//79
f 134//79 103//79 105//79
f 104//80 103//80 135//80
f 107//80 104//80 135//80
f 109//80 107//80 135//80
f 111//80 109//80 135//80
f 113//80 111//80 135//80
f 115//80 113//80 135//80
f 117//80 115//80 135//80
f 119//80 117//80 135//80
f 121//80 119//80 135//80
f 123//80 121//80 135//80
f 125//80 123//80 135//80
f 127//80 125//80 135//80
f 129//80 127//80 135//80
f 131//80 129//80 135//80
f 133//80 131//80 135//80
f 103//80 133//80 135//80
f 105//81 106//81 136//81
f 106//81 108//81 136//81
f 108//81 110//81 136//81
f 110//81 112//81 136//81
f 112//81 114//81 136//81
f 114//81 116//81 136//81
f 116//81 118//81 136//81
f 118//81 120//81 136//81
f 120//81 122//81 136//81
f 122//81 124//81 136//81
f 124//81 126//81 136//81
f 126//81 128//81 136//81
f 128//81 130//81 136//81
f 130//81 132//81 136//81
f 132//81 134//81 136//81
f 134//81 105//81 136//81
f 137//82 138//82 139//82
f 139//82 138//82 140//82
f 138//83 141//83 140//83
f 140//83 141//83 142//83
f 141//84 143//84 142//84
f 142//84 143//84 144//84
f 143//85 145//85 144//85
f 144//86 145//86 146//86
f 145//87 147//87 146//87
f 146//87 147//87 148//87
f 147//88 149//88 148//88
f 148//89 149//89 150//89
f 149//90 151//90 150//90
f 150//91 151//91 152//91
f 151//92 153//92 152//92
f 152//92 153//92 154//92
f 153//93 155//93 154//93
f 154//93 155//93 156//93
f 155//94 157//94 156//94
f 156//94 157//94 158//94
f 157//95 159//95 158//95
f 158//96 159//96 160//96
f 159//97 161//97 160//97
f 160//97 161//97 162//97
f 161//98 163//98 162//98
f 162//98 163//98 164//98
f 163//99 165//99 164//99
f 164//99 165//99 166//99
f 165//100 167//100 166//100
f 166//100 167//100 168//100
f 167//101 137//101 168//101
f 168//101 137//101 139//101
f 138//102 137//102 169//102
f 141//102 138//102 169//102
f 143//102 141//102 169//102
f 145//102 143//102 169//102
f 147//102 145//102 169//102
f 149//102 147//102 169//102
f 151//102 149//102 169//102
f 153//102 151//102 169//102
f 155//102 153//102 169//102
f 157//102 155//102 169//102
f 159//102 157//102 169//102
f 161//102 159//102 169//102
f 163//102 161//102 169//102
f 165//102 163//102 169//102
f 167//102 165//102 169//102
f 137//102 167//102 169//102
f 139//103 140//103 170//103
f 140//103 142//103 170//103
f 142//103 144//103 170//103
f 144//103 146//103 170//103
f 146//103 148//103 170//103
f 148//103 150//103 170//103
f 150//103 152//103 170//103
f 152//103 154//103 170//103
f 154//103 156//103 170//103
f 156//103 158//103 170//103
f 158//103 160//103 170//103
f 160//103 162//103 170//103
f 162//103 164//103 170//103
f 164//103 166//103 170//103
f 166//103 168//103 170//103
f 168//103 139//103 170//103
