# Blender v2.72 (sub 0) OBJ File: 'milkcarton.blend'
# www.blender.org
mtllib milkcarton.mtl
o milkcarton
v -1.098388 -0.000000 1.259619
v -0.034227 -0.000000 1.259619
v -1.098388 1.026584 1.259619
v -0.085288 1.316789 1.121745
v 0.034227 -0.000000 1.259619
v -0.016834 1.316789 1.121745
v 1.098388 0.617179 0.996870
v 0.898176 1.150649 0.930269
v -1.098388 3.025344 1.259619
v -0.034227 3.025344 1.259619
v 0.034227 3.025344 1.259619
v 1.098388 3.025344 1.259619
v -1.098388 3.049698 1.259619
v -0.034227 4.046605 0.924223
v 0.034227 4.046605 0.924223
v 1.098388 3.049698 1.259619
v -1.098388 3.079751 1.259619
v -0.034227 4.153706 1.259620
v -1.098388 3.079751 0.419874
v -0.034227 4.153706 0.419874
v -0.034227 4.253825 1.259620
v 0.034227 4.253825 1.259620
v -0.034227 4.508327 1.197725
v 0.034227 4.508327 1.197725
v 0.034227 4.153706 1.259620
v 1.098388 3.079751 1.259619
v 0.034227 4.153706 0.419874
v 1.098388 3.079751 0.419874
v -1.098388 3.079751 -0.419872
v -0.034227 4.153706 -0.419872
v -0.034227 4.508327 -1.197723
v 0.034227 4.508327 -1.197723
v 0.034227 4.153706 -0.419872
v 1.098388 3.079751 -0.419872
v -1.098388 3.079751 -1.259619
v -0.034227 4.153706 -1.259618
v -0.034227 4.253825 -1.259618
v 0.034227 4.253825 -1.259618
v 0.034227 4.153706 -1.259618
v 1.098388 3.079751 -1.259619
v -1.098388 3.025344 -1.259619
v -1.098388 3.049698 -1.259619
v -0.034227 3.025344 -1.259619
v -0.034227 4.046605 -0.924221
v 0.034227 4.046605 -0.924221
v 0.034227 3.025344 -1.259619
v 1.098388 3.025344 -1.259619
v 1.098388 3.049698 -1.259619
v -1.098388 1.026583 -1.259619
v -0.034227 1.026584 -1.259619
v 0.034227 1.026584 -1.259619
v 1.098388 1.026584 -1.259619
v -1.098388 0.000000 -1.259619
v -0.034227 0.000000 -1.259619
v 0.034227 0.000000 -1.259619
v 1.098388 0.000000 -1.259619
v -1.098388 0.000000 -0.419873
v -0.034227 0.000000 -0.419873
v 0.034227 0.000000 -0.419873
v 1.098388 0.000000 -0.419873
v -1.098388 -0.000000 0.419873
v -0.034227 -0.000000 0.419873
v 0.034227 -0.000000 0.419873
v 1.098388 -0.000000 0.419873
v 1.098388 1.026584 -0.419873
v 1.098388 1.026584 0.419873
v 1.098388 3.025344 -0.419872
v 1.098388 3.025344 0.419874
v 1.098388 3.049698 -0.419872
v 1.098388 3.049698 0.419874
v -1.098388 1.026583 -0.419873
v -1.098388 1.026584 0.419873
v -1.098388 3.025344 -0.419872
v -1.098388 3.025344 0.419874
v -1.098388 3.049698 -0.419872
v -1.098388 3.049698 0.419874
vn 0.000000 0.236300 0.971700
vn 0.000000 1.000000 0.000000
vn 0.000000 0.236300 -0.971700
vn 0.000000 -1.000000 -0.000000
vn 0.499400 -0.591700 0.632900
vn 0.000000 0.000000 1.000000
vn 1.000000 0.000000 0.000000
vn -1.000000 0.000000 0.000000
vn 0.000000 0.000000 -1.000000
vn 0.000000 -0.952600 0.304200
vn 0.300600 0.000000 0.953700
vn 0.693000 -0.686700 0.219300
vn 0.300600 0.000000 -0.953800
vn 0.693000 -0.686700 -0.219300
vn 0.000000 -0.952600 -0.304200
vn -0.300600 0.000000 -0.953800
vn -0.693000 -0.686700 -0.219300
vn -0.300600 0.000000 0.953700
vn -0.693000 -0.686700 0.219300
vn 0.007100 0.312000 0.950100
vn 0.000000 0.312000 0.950100
vn -0.007100 0.312000 0.950100
vn 0.007100 0.312000 -0.950100
vn 0.000000 0.312000 -0.950100
vn -0.007100 0.312000 -0.950100
vn 0.103800 0.107600 0.988800
vn 0.000000 0.104100 0.994600
vn 0.178100 0.109300 0.977900
vn 0.236300 0.207200 0.949300
vn 0.134800 -0.000000 0.990900
vn 0.000000 -0.080400 0.996800
vn 0.168400 -0.188000 0.967600
vn -0.710300 0.703900 0.000000
vn 0.710300 0.703900 0.000000
vn 0.892700 0.367600 0.260800
vn 0.930900 0.000000 0.365200
vn 0.994300 -0.106200 -0.000000
usemtl lambert2SG
s off
f 21//1 22//1 23//1
f 23//1 22//1 24//1
f 23//2 24//2 31//2
f 31//2 24//2 32//2
f 31//3 32//3 37//3
f 37//3 32//3 38//3
f 53//4 54//4 57//4
f 57//4 54//4 58//4
f 54//4 55//4 58//4
f 58//4 55//4 59//4
f 55//4 56//4 59//4
f 59//4 56//4 60//4
f 57//4 58//4 61//4
f 61//4 58//4 62//4
f 58//4 59//4 62//4
f 62//4 59//4 63//4
f 59//4 60//4 63//4
f 63//4 60//4 64//4
f 62//4 1//4 61//4
f 1//4 62//4 2//4
f 62//4 63//4 2//4
f 2//4 63//4 5//4
f 63//4 64//4 5//4
f 5//5 64//5 7//5
f 18//6 25//6 21//6
f 21//6 25//6 22//6
f 24//7 22//7 27//7
f 25//7 27//7 22//7
f 23//8 20//8 21//8
f 20//8 18//8 21//8
f 27//7 33//7 24//7
f 24//7 33//7 32//7
f 30//8 20//8 31//8
f 31//8 20//8 23//8
f 32//7 33//7 38//7
f 33//7 39//7 38//7
f 39//9 36//9 38//9
f 38//9 36//9 37//9
f 31//8 37//8 30//8
f 36//8 30//8 37//8
f 14//10 15//10 18//10
f 18//10 15//10 25//10
f 13//11 14//11 17//11
f 14//12 18//12 17//12
f 42//13 35//13 44//13
f 35//14 36//14 44//14
f 36//15 39//15 44//15
f 44//15 39//15 45//15
f 48//16 45//16 40//16
f 39//17 40//17 45//17
f 16//18 26//18 15//18
f 15//19 26//19 25//19
usemtl lambert4SG
f 9//6 10//6 13//6
f 10//20 14//20 13//20
f 10//21 11//21 14//21
f 14//21 11//21 15//21
f 12//6 16//6 11//6
f 11//22 16//22 15//22
f 41//9 42//9 43//9
f 42//23 44//23 43//23
f 44//24 45//24 43//24
f 43//24 45//24 46//24
f 47//9 46//9 48//9
f 45//25 48//25 46//25
usemtl lambert3SG
f 1//6 2//6 3//6
f 3//26 2//26 4//26
f 5//27 6//27 2//27
f 2//27 6//27 4//27
f 5//28 7//28 6//28
f 6//29 7//29 8//29
f 3//30 4//30 9//30
f 9//31 4//31 10//31
f 4//31 6//31 10//31
f 10//31 6//31 11//31
f 8//32 12//32 6//32
f 6//31 12//31 11//31
f 17//33 18//33 19//33
f 19//33 18//33 20//33
f 25//34 26//34 27//34
f 27//34 26//34 28//34
f 19//33 20//33 29//33
f 29//33 20//33 30//33
f 27//34 28//34 33//34
f 33//34 28//34 34//34
f 29//33 30//33 35//33
f 35//33 30//33 36//33
f 33//34 34//34 39//34
f 39//34 34//34 40//34
f 41//9 43//9 49//9
f 49//9 43//9 50//9
f 43//9 46//9 50//9
f 50//9 46//9 51//9
f 46//9 47//9 51//9
f 51//9 47//9 52//9
f 49//9 50//9 53//9
f 53//9 50//9 54//9
f 50//9 51//9 54//9
f 54//9 51//9 55//9
f 51//9 52//9 55//9
f 55//9 52//9 56//9
f 60//7 56//7 65//7
f 65//7 56//7 52//7
f 64//7 60//7 66//7
f 66//7 60//7 65//7
f 64//7 66//7 7//7
f 7//35 66//35 8//35
f 65//7 52//7 67//7
f 67//7 52//7 47//7
f 66//7 65//7 68//7
f 68//7 65//7 67//7
f 66//36 68//36 8//36
f 8//37 68//37 12//37
f 67//7 47//7 69//7
f 69//7 47//7 48//7
f 68//7 67//7 70//7
f 70//7 67//7 69//7
f 12//7 68//7 16//7
f 16//7 68//7 70//7
f 53//8 57//8 49//8
f 49//8 57//8 71//8
f 57//8 61//8 71//8
f 71//8 61//8 72//8
f 61//8 1//8 72//8
f 72//8 1//8 3//8
f 49//8 71//8 41//8
f 41//8 71//8 73//8
f 71//8 72//8 73//8
f 73//8 72//8 74//8
f 72//8 3//8 74//8
f 74//8 3//8 9//8
f 41//8 73//8 42//8
f 42//8 73//8 75//8
f 73//8 74//8 75//8
f 75//8 74//8 76//8
f 74//8 9//8 76//8
f 76//8 9//8 13//8
f 76//8 13//8 19//8
f 19//8 13//8 17//8
f 75//8 76//8 29//8
f 29//8 76//8 19//8
f 42//8 75//8 35//8
f 35//8 75//8 29//8
f 69//7 48//7 34//7
f 34//7 48//7 40//7
f 70//7 69//7 28//7
f 28//7 69//7 34//7
f 16//7 70//7 26//7
f 26//7 70//7 28//7
