# Blender v2.74 (sub 0) OBJ File: ''
# www.blender.org
mtllib 0.mtl
o Text
v -0.090636 0.481139 -0.000005
v 0.090960 0.481340 -0.000005
v -0.085487 0.481340 -0.000005
v 0.096046 0.481139 -0.000005
v -0.095649 0.480536 -0.000005
v 0.101002 0.480536 -0.000005
v -0.100525 0.479530 -0.000005
v 0.105827 0.479530 -0.000005
v -0.105266 0.478123 -0.000005
v 0.110522 0.478123 -0.000005
v -0.109872 0.476314 -0.000005
v 0.115087 0.476314 -0.000005
v -0.114341 0.474102 -0.000005
v 0.119521 0.474102 -0.000005
v -0.118674 0.471488 -0.000005
v 0.123824 0.471488 -0.000005
v -0.122872 0.468472 -0.000005
v 0.127997 0.468472 -0.000005
v -0.126934 0.465055 -0.000005
v 0.132040 0.465055 -0.000005
v 0.135953 0.461235 -0.000005
v -0.130860 0.461235 -0.000005
v 0.139734 0.457013 -0.000005
v -0.134650 0.457013 -0.000005
v 0.143386 0.452388 -0.000005
v -0.138304 0.452388 -0.000005
v -0.141741 0.447414 -0.000005
v 0.146885 0.447473 -0.000005
v 0.150080 0.442379 -0.000005
v -0.144879 0.442271 -0.000005
v 0.152971 0.437106 -0.000005
v -0.147718 0.436959 -0.000005
v 0.155558 0.431653 -0.000005
v -0.150259 0.431479 -0.000005
v 0.157840 0.426021 -0.000005
v -0.152500 0.425830 -0.000005
v 0.159818 0.420209 -0.000005
v -0.154443 0.420014 -0.000005
v 0.161492 0.414218 -0.000005
v -0.156086 0.414028 -0.000005
v -0.066708 0.414438 -0.000005
v 0.072181 0.414438 -0.000005
v -0.066708 0.067412 -0.000005
v 0.072181 0.067412 -0.000005
v 0.162861 0.408048 -0.000005
v -0.157431 0.407874 -0.000005
v 0.163926 0.401699 -0.000005
v -0.158477 0.401552 -0.000005
v 0.164687 0.395170 -0.000005
v -0.159224 0.395061 -0.000005
v 0.165143 0.388462 -0.000005
v -0.159673 0.388402 -0.000005
v 0.165295 0.381575 -0.000005
v -0.159822 0.381575 -0.000005
v -0.159822 0.099493 -0.000005
v 0.165295 0.099493 -0.000005
v -0.159673 0.092788 -0.000005
v 0.165143 0.092729 -0.000005
v -0.159224 0.086235 -0.000005
v 0.164687 0.086131 -0.000005
v -0.158477 0.079834 -0.000005
v 0.163926 0.079699 -0.000005
v -0.157431 0.073585 -0.000005
v 0.162861 0.073433 -0.000005
v -0.156086 0.067488 -0.000005
v 0.161492 0.067332 -0.000005
v -0.154443 0.061543 -0.000005
v 0.159818 0.061397 -0.000005
v -0.152500 0.055751 -0.000005
v 0.157840 0.055627 -0.000005
v -0.150259 0.050110 -0.000005
v 0.155558 0.050024 -0.000005
v -0.147718 0.044622 -0.000005
v 0.152971 0.044586 -0.000005
v -0.144879 0.039286 -0.000005
v 0.150080 0.039313 -0.000005
v 0.146885 0.034207 -0.000005
v -0.141741 0.034102 -0.000005
v 0.143386 0.029266 -0.000005
v -0.138304 0.029071 -0.000005
v 0.139677 0.024611 -0.000005
v -0.134590 0.024446 -0.000005
v 0.135855 0.020360 -0.000005
v -0.130751 0.020224 -0.000005
v 0.131918 0.016514 -0.000005
v -0.126787 0.016404 -0.000005
v 0.127867 0.013073 -0.000005
v -0.122698 0.012986 -0.000005
v 0.123702 0.010037 -0.000005
v -0.118484 0.009971 -0.000005
v 0.119423 0.007406 -0.000005
v -0.114145 0.007357 -0.000005
v 0.115029 0.005179 -0.000005
v -0.109681 0.005145 -0.000005
v 0.110522 0.003358 -0.000005
v -0.105093 0.003336 -0.000005
v 0.105901 0.001941 -0.000005
v -0.100379 0.001929 -0.000005
v 0.101165 0.000929 -0.000005
v -0.095540 0.000923 -0.000005
v 0.096315 0.000322 -0.000005
v -0.090576 0.000320 -0.000005
v 0.091352 0.000119 -0.000005
v -0.085487 0.000119 -0.000005
vn 0.000000 0.000000 1.000000
usemtl Material.001
s 1
f 1//1 2//1 3//1
f 1//1 4//1 2//1
f 5//1 4//1 1//1
f 5//1 6//1 4//1
f 7//1 6//1 5//1
f 7//1 8//1 6//1
f 9//1 8//1 7//1
f 9//1 10//1 8//1
f 11//1 10//1 9//1
f 11//1 12//1 10//1
f 13//1 12//1 11//1
f 13//1 14//1 12//1
f 15//1 14//1 13//1
f 15//1 16//1 14//1
f 17//1 16//1 15//1
f 17//1 18//1 16//1
f 19//1 18//1 17//1
f 19//1 20//1 18//1
f 19//1 21//1 20//1
f 22//1 21//1 19//1
f 22//1 23//1 21//1
f 24//1 23//1 22//1
f 24//1 25//1 23//1
f 26//1 25//1 24//1
f 27//1 25//1 26//1
f 27//1 28//1 25//1
f 27//1 29//1 28//1
f 30//1 29//1 27//1
f 30//1 31//1 29//1
f 32//1 31//1 30//1
f 32//1 33//1 31//1
f 34//1 33//1 32//1
f 34//1 35//1 33//1
f 36//1 35//1 34//1
f 36//1 37//1 35//1
f 38//1 37//1 36//1
f 38//1 39//1 37//1
f 40//1 41//1 38//1
f 41//1 42//1 38//1
f 42//1 39//1 38//1
f 40//1 43//1 41//1
f 44//1 39//1 42//1
f 44//1 45//1 39//1
f 46//1 43//1 40//1
f 44//1 47//1 45//1
f 48//1 43//1 46//1
f 44//1 49//1 47//1
f 50//1 43//1 48//1
f 44//1 51//1 49//1
f 52//1 43//1 50//1
f 44//1 53//1 51//1
f 54//1 43//1 52//1
f 55//1 43//1 54//1
f 44//1 56//1 53//1
f 57//1 43//1 55//1
f 44//1 58//1 56//1
f 59//1 43//1 57//1
f 44//1 60//1 58//1
f 61//1 43//1 59//1
f 44//1 62//1 60//1
f 63//1 43//1 61//1
f 44//1 64//1 62//1
f 65//1 43//1 63//1
f 44//1 66//1 64//1
f 67//1 43//1 65//1
f 67//1 44//1 43//1
f 67//1 66//1 44//1
f 67//1 68//1 66//1
f 69//1 68//1 67//1
f 69//1 70//1 68//1
f 71//1 70//1 69//1
f 71//1 72//1 70//1
f 73//1 72//1 71//1
f 73//1 74//1 72//1
f 75//1 74//1 73//1
f 75//1 76//1 74//1
f 75//1 77//1 76//1
f 78//1 77//1 75//1
f 78//1 79//1 77//1
f 80//1 79//1 78//1
f 80//1 81//1 79//1
f 82//1 81//1 80//1
f 82//1 83//1 81//1
f 84//1 83//1 82//1
f 84//1 85//1 83//1
f 86//1 85//1 84//1
f 86//1 87//1 85//1
f 88//1 87//1 86//1
f 88//1 89//1 87//1
f 90//1 89//1 88//1
f 90//1 91//1 89//1
f 92//1 91//1 90//1
f 92//1 93//1 91//1
f 94//1 93//1 92//1
f 94//1 95//1 93//1
f 96//1 95//1 94//1
f 96//1 97//1 95//1
f 98//1 97//1 96//1
f 98//1 99//1 97//1
f 100//1 99//1 98//1
f 100//1 101//1 99//1
f 102//1 101//1 100//1
f 102//1 103//1 101//1
f 104//1 103//1 102//1
