# Blender v2.74 (sub 0) OBJ File: ''
# www.blender.org
mtllib 4.mtl
o Text.004
v -0.107328 0.435986 -0.000005
v 0.006959 0.489165 -0.000005
v -0.088894 0.489165 -0.000005
v -0.109630 0.150354 -0.000005
v -0.124160 0.387432 -0.000005
v -0.139388 0.343502 -0.000005
v -0.153013 0.304197 -0.000005
v 0.043344 0.150354 -0.000005
v 0.136458 0.331105 -0.000005
v 0.043344 0.331105 -0.000005
v 0.136458 0.150354 -0.000005
v -0.165036 0.269515 -0.000005
v -0.175455 0.239458 -0.000005
v -0.184272 0.214025 -0.000005
v -0.191485 0.193216 -0.000005
v -0.197095 0.177031 -0.000005
v -0.201103 0.165471 -0.000005
v -0.203507 0.158535 -0.000005
v -0.204309 0.156222 -0.000005
v -0.204309 0.083844 -0.000005
v 0.217835 0.150354 -0.000005
v 0.217835 0.083844 -0.000005
v 0.043344 0.083844 -0.000005
v 0.043344 0.000119 -0.000005
v 0.136458 0.083844 -0.000005
v 0.136458 0.000119 -0.000005
vn 0.000000 0.000000 1.000000
vn 0.000000 0.000200 1.000000
vn 0.000000 -0.923500 0.383700
vn -0.000000 -0.000300 1.000000
usemtl Material.005
s 1
f 1//1 2//1 3//1
f 1//1 4//1 2//1
f 5//1 4//1 1//1
f 6//1 4//1 5//1
f 7//1 4//1 6//1
f 8//1 9//1 10//1
f 8//1 11//1 9//1
f 12//1 4//1 7//1
f 13//1 4//1 12//1
f 14//1 4//1 13//1
f 15//1 4//1 14//1
f 16//1 4//1 15//1
f 17//1 4//1 16//1
f 18//1 4//1 17//1
f 19//1 4//1 18//1
f 20//2 4//1 19//1
f 20//2 8//1 4//1
f 20//2 11//1 8//1
f 20//2 21//1 11//1
f 20//2 22//1 21//1
f 23//3 22//1 20//2
f 24//1 25//4 23//3
f 25//4 22//1 23//3
f 24//1 26//1 25//4
