# Blender v2.74 (sub 0) OBJ File: ''
# www.blender.org
mtllib 5.mtl
o Text.005
v -0.163620 0.249728 -0.000005
v -0.070897 0.421872 -0.000005
v -0.163620 0.489165 -0.000005
v 0.147804 0.489165 -0.000005
v 0.147804 0.421872 -0.000005
v -0.070897 0.316629 -0.000005
v 0.087553 0.316629 -0.000005
v 0.092517 0.316426 -0.000005
v 0.097367 0.315814 -0.000005
v 0.102103 0.314795 -0.000005
v 0.106724 0.313369 -0.000005
v 0.111231 0.311535 -0.000005
v 0.115625 0.309294 -0.000005
v 0.119904 0.306645 -0.000005
v 0.124069 0.303588 -0.000005
v 0.128120 0.300124 -0.000005
v 0.132057 0.296252 -0.000005
v 0.135879 0.291973 -0.000005
v 0.139588 0.287287 -0.000005
v 0.143087 0.282309 -0.000005
v 0.146282 0.277158 -0.000005
v 0.149173 0.271833 -0.000005
v 0.151760 0.266334 -0.000005
v 0.154042 0.260661 -0.000005
v 0.156020 0.254814 -0.000005
v 0.068774 0.249728 -0.000005
v 0.157693 0.248793 -0.000005
v 0.068774 0.067412 -0.000005
v 0.159063 0.242599 -0.000005
v 0.160128 0.236230 -0.000005
v 0.160889 0.229688 -0.000005
v 0.161345 0.222972 -0.000005
v 0.161497 0.216082 -0.000005
v 0.161497 0.099493 -0.000005
v -0.163620 0.099493 -0.000005
v -0.070897 0.140964 -0.000005
v -0.163620 0.140964 -0.000005
v -0.070897 0.067412 -0.000005
v -0.163471 0.092788 -0.000005
v 0.161345 0.092729 -0.000005
v -0.163023 0.086235 -0.000005
v 0.160889 0.086131 -0.000005
v -0.162275 0.079834 -0.000005
v 0.160128 0.079699 -0.000005
v -0.161229 0.073585 -0.000005
v 0.159063 0.073433 -0.000005
v -0.159884 0.067488 -0.000005
v 0.157693 0.067332 -0.000005
v -0.158241 0.061543 -0.000005
v 0.156020 0.061397 -0.000005
v -0.156298 0.055751 -0.000005
v 0.154042 0.055627 -0.000005
v -0.154057 0.050110 -0.000005
v 0.151760 0.050024 -0.000005
v -0.151516 0.044622 -0.000005
v 0.149173 0.044586 -0.000005
v -0.148677 0.039286 -0.000005
v 0.146282 0.039313 -0.000005
v 0.143087 0.034207 -0.000005
v -0.145539 0.034102 -0.000005
v 0.139588 0.029266 -0.000005
v -0.142102 0.029071 -0.000005
v 0.135879 0.024611 -0.000005
v -0.138388 0.024446 -0.000005
v 0.132057 0.020360 -0.000005
v -0.134549 0.020224 -0.000005
v 0.128120 0.016514 -0.000005
v -0.130585 0.016404 -0.000005
v 0.124069 0.013073 -0.000005
v -0.126496 0.012986 -0.000005
v 0.119904 0.010037 -0.000005
v -0.122282 0.009971 -0.000005
v 0.115625 0.007406 -0.000005
v -0.117943 0.007357 -0.000005
v 0.111231 0.005179 -0.000005
v -0.113480 0.005145 -0.000005
v 0.106724 0.003358 -0.000005
v -0.108891 0.003336 -0.000005
v 0.102103 0.001941 -0.000005
v -0.104177 0.001929 -0.000005
v 0.097367 0.000929 -0.000005
v -0.099338 0.000923 -0.000005
v 0.092517 0.000322 -0.000005
v -0.094374 0.000320 -0.000005
v 0.087553 0.000119 -0.000005
v -0.089285 0.000119 -0.000005
vn 0.000000 0.000000 1.000000
usemtl Material.006
s 1
f 1//1 2//1 3//1
f 2//1 4//1 3//1
f 2//1 5//1 4//1
f 1//1 6//1 2//1
f 1//1 7//1 6//1
f 1//1 8//1 7//1
f 1//1 9//1 8//1
f 1//1 10//1 9//1
f 1//1 11//1 10//1
f 1//1 12//1 11//1
f 1//1 13//1 12//1
f 1//1 14//1 13//1
f 1//1 15//1 14//1
f 1//1 16//1 15//1
f 1//1 17//1 16//1
f 1//1 18//1 17//1
f 1//1 19//1 18//1
f 1//1 20//1 19//1
f 1//1 21//1 20//1
f 1//1 22//1 21//1
f 1//1 23//1 22//1
f 1//1 24//1 23//1
f 1//1 25//1 24//1
f 1//1 26//1 25//1
f 26//1 27//1 25//1
f 28//1 27//1 26//1
f 28//1 29//1 27//1
f 28//1 30//1 29//1
f 28//1 31//1 30//1
f 28//1 32//1 31//1
f 28//1 33//1 32//1
f 28//1 34//1 33//1
f 35//1 36//1 37//1
f 35//1 38//1 36//1
f 39//1 38//1 35//1
f 28//1 40//1 34//1
f 41//1 38//1 39//1
f 28//1 42//1 40//1
f 43//1 38//1 41//1
f 28//1 44//1 42//1
f 45//1 38//1 43//1
f 28//1 46//1 44//1
f 47//1 38//1 45//1
f 28//1 48//1 46//1
f 49//1 38//1 47//1
f 49//1 28//1 38//1
f 49//1 48//1 28//1
f 49//1 50//1 48//1
f 51//1 50//1 49//1
f 51//1 52//1 50//1
f 53//1 52//1 51//1
f 53//1 54//1 52//1
f 55//1 54//1 53//1
f 55//1 56//1 54//1
f 57//1 56//1 55//1
f 57//1 58//1 56//1
f 57//1 59//1 58//1
f 60//1 59//1 57//1
f 60//1 61//1 59//1
f 62//1 61//1 60//1
f 62//1 63//1 61//1
f 64//1 63//1 62//1
f 64//1 65//1 63//1
f 66//1 65//1 64//1
f 66//1 67//1 65//1
f 68//1 67//1 66//1
f 68//1 69//1 67//1
f 70//1 69//1 68//1
f 70//1 71//1 69//1
f 72//1 71//1 70//1
f 72//1 73//1 71//1
f 74//1 73//1 72//1
f 74//1 75//1 73//1
f 76//1 75//1 74//1
f 76//1 77//1 75//1
f 78//1 77//1 76//1
f 78//1 79//1 77//1
f 80//1 79//1 78//1
f 80//1 81//1 79//1
f 82//1 81//1 80//1
f 82//1 83//1 81//1
f 84//1 83//1 82//1
f 84//1 85//1 83//1
f 86//1 85//1 84//1
