# Blender v2.74 (sub 0) OBJ File: ''
# www.blender.org
mtllib 6.mtl
o Text.006
v -0.102199 0.488962 -0.000005
v 0.129025 0.489165 -0.000005
v -0.097110 0.489165 -0.000005
v 0.129025 0.421872 -0.000005
v -0.107163 0.488355 -0.000005
v -0.112002 0.487343 -0.000005
v -0.116715 0.485926 -0.000005
v -0.121304 0.484104 -0.000005
v -0.125768 0.481878 -0.000005
v -0.130107 0.479246 -0.000005
v -0.134321 0.476210 -0.000005
v -0.138410 0.472769 -0.000005
v -0.142374 0.468923 -0.000005
v -0.146213 0.464673 -0.000005
v -0.149927 0.460017 -0.000005
v -0.153426 0.455077 -0.000005
v -0.156621 0.449970 -0.000005
v -0.159512 0.444698 -0.000005
v -0.162099 0.439260 -0.000005
v -0.164381 0.433657 -0.000005
v -0.166359 0.427887 -0.000005
v -0.168033 0.421952 -0.000005
v -0.169402 0.415851 -0.000005
v -0.078722 0.421872 -0.000005
v -0.078722 0.316629 -0.000005
v -0.170467 0.409585 -0.000005
v -0.171228 0.403152 -0.000005
v -0.171684 0.396554 -0.000005
v -0.171836 0.389791 -0.000005
v -0.171836 0.099493 -0.000005
v -0.078722 0.253640 -0.000005
v 0.094205 0.316629 -0.000005
v 0.099356 0.316426 -0.000005
v 0.104377 0.315814 -0.000005
v 0.109267 0.314795 -0.000005
v 0.114027 0.313369 -0.000005
v 0.118657 0.311535 -0.000005
v 0.123156 0.309294 -0.000005
v 0.127525 0.306645 -0.000005
v 0.131763 0.303588 -0.000005
v 0.135871 0.300124 -0.000005
v 0.139849 0.296252 -0.000005
v 0.143696 0.291973 -0.000005
v 0.147413 0.287287 -0.000005
v 0.150974 0.282309 -0.000005
v 0.154227 0.277158 -0.000005
v 0.157169 0.271833 -0.000005
v 0.159802 0.266334 -0.000005
v 0.162125 0.260661 -0.000005
v 0.164138 0.254814 -0.000005
v 0.075816 0.253640 -0.000005
v 0.165841 0.248793 -0.000005
v -0.078722 0.067412 -0.000005
v 0.075816 0.067412 -0.000005
v 0.167235 0.242599 -0.000005
v 0.168319 0.236230 -0.000005
v 0.169094 0.229688 -0.000005
v 0.169558 0.222972 -0.000005
v 0.169713 0.216082 -0.000005
v 0.169713 0.099493 -0.000005
v -0.171684 0.092729 -0.000005
v 0.169558 0.092668 -0.000005
v -0.171228 0.086131 -0.000005
v 0.169094 0.086017 -0.000005
v -0.170467 0.079699 -0.000005
v 0.168319 0.079540 -0.000005
v -0.169402 0.073432 -0.000005
v 0.167235 0.073237 -0.000005
v -0.168033 0.067332 -0.000005
v 0.165841 0.067107 -0.000005
v -0.166359 0.061397 -0.000005
v 0.164138 0.061152 -0.000005
v -0.164381 0.055627 -0.000005
v 0.162125 0.055370 -0.000005
v -0.162099 0.050024 -0.000005
v 0.159802 0.049763 -0.000005
v -0.159512 0.044586 -0.000005
v 0.157169 0.044329 -0.000005
v -0.156621 0.039313 -0.000005
v 0.154227 0.039069 -0.000005
v -0.153426 0.034207 -0.000005
v 0.150974 0.033983 -0.000005
v -0.149927 0.029266 -0.000005
v 0.147413 0.029071 -0.000005
v -0.146213 0.024611 -0.000005
v 0.143636 0.024446 -0.000005
v -0.142374 0.020360 -0.000005
v 0.139740 0.020224 -0.000005
v -0.138410 0.016514 -0.000005
v 0.135724 0.016404 -0.000005
v -0.134321 0.013073 -0.000005
v 0.131589 0.012986 -0.000005
v -0.130107 0.010037 -0.000005
v 0.127335 0.009971 -0.000005
v -0.125768 0.007406 -0.000005
v 0.122960 0.007357 -0.000005
v -0.121304 0.005179 -0.000005
v 0.118467 0.005145 -0.000005
v -0.116715 0.003358 -0.000005
v 0.113853 0.003336 -0.000005
v -0.112002 0.001941 -0.000005
v 0.109120 0.001929 -0.000005
v -0.107163 0.000929 -0.000005
v 0.104268 0.000923 -0.000005
v -0.102199 0.000322 -0.000005
v 0.099296 0.000320 -0.000005
v -0.097110 0.000119 -0.000005
v 0.094205 0.000119 -0.000005
vn 0.000000 0.000000 1.000000
usemtl Material.007
s 1
f 1//1 2//1 3//1
f 1//1 4//1 2//1
f 5//1 4//1 1//1
f 6//1 4//1 5//1
f 7//1 4//1 6//1
f 8//1 4//1 7//1
f 9//1 4//1 8//1
f 10//1 4//1 9//1
f 11//1 4//1 10//1
f 12//1 4//1 11//1
f 13//1 4//1 12//1
f 14//1 4//1 13//1
f 15//1 4//1 14//1
f 16//1 4//1 15//1
f 17//1 4//1 16//1
f 18//1 4//1 17//1
f 19//1 4//1 18//1
f 20//1 4//1 19//1
f 21//1 4//1 20//1
f 22//1 4//1 21//1
f 23//1 24//1 22//1
f 24//1 4//1 22//1
f 23//1 25//1 24//1
f 26//1 25//1 23//1
f 27//1 25//1 26//1
f 28//1 25//1 27//1
f 29//1 25//1 28//1
f 30//1 25//1 29//1
f 30//1 31//1 25//1
f 31//1 32//1 25//1
f 31//1 33//1 32//1
f 31//1 34//1 33//1
f 31//1 35//1 34//1
f 31//1 36//1 35//1
f 31//1 37//1 36//1
f 31//1 38//1 37//1
f 31//1 39//1 38//1
f 31//1 40//1 39//1
f 31//1 41//1 40//1
f 31//1 42//1 41//1
f 31//1 43//1 42//1
f 31//1 44//1 43//1
f 31//1 45//1 44//1
f 31//1 46//1 45//1
f 31//1 47//1 46//1
f 31//1 48//1 47//1
f 31//1 49//1 48//1
f 31//1 50//1 49//1
f 31//1 51//1 50//1
f 51//1 52//1 50//1
f 30//1 53//1 31//1
f 54//1 52//1 51//1
f 54//1 55//1 52//1
f 54//1 56//1 55//1
f 54//1 57//1 56//1
f 54//1 58//1 57//1
f 54//1 59//1 58//1
f 54//1 60//1 59//1
f 61//1 53//1 30//1
f 54//1 62//1 60//1
f 63//1 53//1 61//1
f 54//1 64//1 62//1
f 65//1 53//1 63//1
f 54//1 66//1 64//1
f 67//1 53//1 65//1
f 54//1 68//1 66//1
f 69//1 53//1 67//1
f 54//1 70//1 68//1
f 69//1 54//1 53//1
f 69//1 70//1 54//1
f 71//1 70//1 69//1
f 71//1 72//1 70//1
f 73//1 72//1 71//1
f 73//1 74//1 72//1
f 75//1 74//1 73//1
f 75//1 76//1 74//1
f 77//1 76//1 75//1
f 77//1 78//1 76//1
f 79//1 78//1 77//1
f 79//1 80//1 78//1
f 81//1 80//1 79//1
f 81//1 82//1 80//1
f 83//1 82//1 81//1
f 83//1 84//1 82//1
f 85//1 84//1 83//1
f 85//1 86//1 84//1
f 87//1 86//1 85//1
f 87//1 88//1 86//1
f 89//1 88//1 87//1
f 89//1 90//1 88//1
f 91//1 90//1 89//1
f 91//1 92//1 90//1
f 93//1 92//1 91//1
f 93//1 94//1 92//1
f 95//1 94//1 93//1
f 95//1 96//1 94//1
f 97//1 96//1 95//1
f 97//1 98//1 96//1
f 99//1 98//1 97//1
f 99//1 100//1 98//1
f 101//1 100//1 99//1
f 101//1 102//1 100//1
f 103//1 102//1 101//1
f 103//1 104//1 102//1
f 105//1 104//1 103//1
f 105//1 106//1 104//1
f 107//1 106//1 105//1
f 107//1 108//1 106//1
