# Blender v2.74 (sub 0) OBJ File: ''
# www.blender.org
mtllib 8.mtl
o Text.008
v -0.104033 0.488569 -0.000005
v 0.095769 0.488773 -0.000005
v -0.099066 0.488773 -0.000005
v 0.100858 0.488571 -0.000005
v 0.105822 0.487964 -0.000005
v -0.108891 0.487958 -0.000005
v 0.110661 0.486952 -0.000005
v -0.113640 0.486939 -0.000005
v 0.115375 0.485535 -0.000005
v -0.118280 0.485513 -0.000005
v 0.119964 0.483713 -0.000005
v -0.122812 0.483679 -0.000005
v 0.124427 0.481486 -0.000005
v -0.127235 0.481438 -0.000005
v 0.128766 0.478855 -0.000005
v -0.131550 0.478789 -0.000005
v 0.132980 0.475819 -0.000005
v -0.135756 0.475732 -0.000005
v 0.137069 0.472378 -0.000005
v -0.139853 0.472268 -0.000005
v 0.141033 0.468532 -0.000005
v -0.143841 0.468396 -0.000005
v 0.144872 0.464282 -0.000005
v -0.147721 0.464117 -0.000005
v 0.148586 0.459626 -0.000005
v -0.151492 0.459431 -0.000005
v 0.152086 0.454685 -0.000005
v -0.155054 0.454581 -0.000005
v 0.155281 0.449579 -0.000005
v -0.158306 0.449552 -0.000005
v 0.158172 0.444307 -0.000005
v -0.161248 0.444344 -0.000005
v -0.163881 0.438956 -0.000005
v 0.160758 0.438869 -0.000005
v -0.166204 0.433389 -0.000005
v 0.163040 0.433265 -0.000005
v -0.168217 0.427643 -0.000005
v 0.165018 0.427496 -0.000005
v -0.169921 0.421717 -0.000005
v -0.080287 0.421872 -0.000005
v 0.076599 0.421872 -0.000005
v 0.166692 0.421561 -0.000005
v -0.080287 0.283374 -0.000005
v 0.076599 0.283374 -0.000005
v -0.171315 0.415612 -0.000005
v 0.168061 0.415460 -0.000005
v -0.172399 0.409328 -0.000005
v 0.169126 0.409193 -0.000005
v -0.173173 0.402864 -0.000005
v 0.169887 0.402761 -0.000005
v -0.173638 0.396221 -0.000005
v 0.170343 0.396163 -0.000005
v -0.173792 0.389399 -0.000005
v 0.170496 0.389399 -0.000005
v -0.173792 0.349884 -0.000005
v 0.170496 0.349884 -0.000005
v -0.173762 0.347216 -0.000005
v 0.170248 0.341783 -0.000005
v -0.173673 0.344559 -0.000005
v -0.173523 0.341913 -0.000005
v -0.173314 0.339278 -0.000005
v 0.169507 0.333909 -0.000005
v -0.173045 0.336653 -0.000005
v -0.172716 0.334039 -0.000005
v -0.172328 0.331437 -0.000005
v 0.168270 0.326264 -0.000005
v -0.171880 0.328845 -0.000005
v -0.171372 0.326264 -0.000005
v 0.166540 0.318846 -0.000005
v -0.170804 0.323693 -0.000005
v -0.170176 0.321134 -0.000005
v -0.169489 0.318585 -0.000005
v 0.164315 0.311657 -0.000005
v -0.167019 0.310948 -0.000005
v 0.161595 0.304697 -0.000005
v -0.164174 0.303686 -0.000005
v 0.158381 0.297964 -0.000005
v -0.160955 0.296799 -0.000005
v 0.154672 0.291460 -0.000005
v -0.157360 0.290286 -0.000005
v 0.150469 0.285184 -0.000005
v -0.153391 0.284149 -0.000005
v 0.145772 0.279136 -0.000005
v -0.149047 0.278386 -0.000005
v 0.140580 0.273316 -0.000005
v -0.144327 0.272998 -0.000005
v 0.134893 0.267725 -0.000005
v -0.139233 0.267986 -0.000005
v -0.133764 0.263348 -0.000005
v 0.133119 0.266119 -0.000005
v 0.131318 0.264562 -0.000005
v 0.129489 0.263054 -0.000005
v -0.127920 0.259085 -0.000005
v 0.127633 0.261595 -0.000005
v 0.125751 0.260185 -0.000005
v 0.123841 0.258824 -0.000005
v -0.121701 0.255197 -0.000005
v 0.121903 0.257512 -0.000005
v 0.119939 0.256249 -0.000005
v 0.117948 0.255034 -0.000005
v -0.115107 0.251684 -0.000005
v 0.115929 0.253869 -0.000005
v 0.113883 0.252752 -0.000005
v 0.111810 0.251684 -0.000005
v -0.117245 0.250616 -0.000005
v 0.118404 0.247935 -0.000005
v -0.119356 0.249500 -0.000005
v -0.121440 0.248334 -0.000005
v -0.123497 0.247120 -0.000005
v 0.124623 0.243859 -0.000005
v -0.125526 0.245856 -0.000005
v -0.127529 0.244544 -0.000005
v -0.129504 0.243183 -0.000005
v 0.130467 0.239458 -0.000005
v -0.131452 0.241773 -0.000005
v -0.133373 0.240314 -0.000005
v -0.135266 0.238806 -0.000005
v 0.135936 0.234731 -0.000005
v -0.137133 0.237249 -0.000005
v -0.138972 0.235643 -0.000005
v -0.144534 0.230114 -0.000005
v 0.141031 0.229677 -0.000005
v -0.149612 0.224352 -0.000005
v 0.145750 0.224298 -0.000005
v -0.154206 0.218356 -0.000005
v 0.150094 0.218592 -0.000005
v 0.076599 0.216473 -0.000005
v 0.154064 0.212560 -0.000005
v -0.158317 0.212126 -0.000005
v -0.080287 0.216473 -0.000005
v -0.080287 0.067412 -0.000005
v 0.076599 0.067412 -0.000005
v 0.157658 0.206203 -0.000005
v -0.161944 0.205662 -0.000005
v 0.160878 0.199519 -0.000005
v -0.165087 0.198965 -0.000005
v 0.163722 0.192510 -0.000005
v -0.167747 0.192034 -0.000005
v 0.166192 0.185174 -0.000005
v -0.169923 0.184870 -0.000005
v 0.166879 0.182685 -0.000005
v -0.171616 0.177471 -0.000005
v 0.167507 0.180175 -0.000005
v 0.168075 0.177643 -0.000005
v 0.168583 0.175089 -0.000005
v -0.172825 0.169840 -0.000005
v 0.169031 0.172513 -0.000005
v 0.169420 0.169916 -0.000005
v 0.169748 0.167297 -0.000005
v -0.173551 0.161974 -0.000005
v 0.170017 0.164656 -0.000005
v 0.170227 0.161993 -0.000005
v 0.170376 0.159309 -0.000005
v -0.173792 0.153875 -0.000005
v 0.170466 0.156603 -0.000005
v 0.170496 0.153875 -0.000005
v -0.173792 0.099493 -0.000005
v 0.170496 0.099493 -0.000005
v -0.173638 0.092668 -0.000005
v 0.170343 0.092729 -0.000005
v 0.169887 0.086131 -0.000005
v -0.173173 0.086017 -0.000005
v 0.169126 0.079699 -0.000005
v -0.172399 0.079540 -0.000005
v 0.168061 0.073433 -0.000005
v -0.171315 0.073237 -0.000005
v 0.166692 0.067332 -0.000005
v -0.169921 0.067107 -0.000005
v 0.165018 0.061397 -0.000005
v -0.168217 0.061152 -0.000005
v 0.163040 0.055627 -0.000005
v -0.166204 0.055370 -0.000005
v 0.160758 0.050024 -0.000005
v -0.163881 0.049763 -0.000005
v 0.158172 0.044586 -0.000005
v -0.161248 0.044329 -0.000005
v 0.155281 0.039313 -0.000005
v -0.158306 0.039069 -0.000005
v 0.152086 0.034207 -0.000005
v -0.155054 0.033983 -0.000005
v 0.148586 0.029266 -0.000005
v -0.151492 0.029071 -0.000005
v 0.144872 0.024611 -0.000005
v -0.147721 0.024446 -0.000005
v 0.141033 0.020360 -0.000005
v -0.143841 0.020224 -0.000005
v 0.137069 0.016514 -0.000005
v -0.139853 0.016404 -0.000005
v 0.132980 0.013073 -0.000005
v -0.135756 0.012986 -0.000005
v 0.128766 0.010037 -0.000005
v -0.131550 0.009971 -0.000005
v 0.124427 0.007406 -0.000005
v -0.127235 0.007357 -0.000005
v 0.119964 0.005179 -0.000005
v -0.122812 0.005145 -0.000005
v 0.115375 0.003358 -0.000005
v -0.118280 0.003336 -0.000005
v 0.110661 0.001941 -0.000005
v -0.113640 0.001929 -0.000005
v 0.105822 0.000929 -0.000005
v -0.108891 0.000923 -0.000005
v 0.100858 0.000322 -0.000005
v -0.104033 0.000320 -0.000005
v 0.095769 0.000119 -0.000005
v -0.099066 0.000119 -0.000005
vn 0.000000 0.000000 1.000000
usemtl Material.009
s 1
f 1//1 2//1 3//1
f 1//1 4//1 2//1
f 1//1 5//1 4//1
f 6//1 5//1 1//1
f 6//1 7//1 5//1
f 8//1 7//1 6//1
f 8//1 9//1 7//1
f 10//1 9//1 8//1
f 10//1 11//1 9//1
f 12//1 11//1 10//1
f 12//1 13//1 11//1
f 14//1 13//1 12//1
f 14//1 15//1 13//1
f 16//1 15//1 14//1
f 16//1 17//1 15//1
f 18//1 17//1 16//1
f 18//1 19//1 17//1
f 20//1 19//1 18//1
f 20//1 21//1 19//1
f 22//1 21//1 20//1
f 22//1 23//1 21//1
f 24//1 23//1 22//1
f 24//1 25//1 23//1
f 26//1 25//1 24//1
f 26//1 27//1 25//1
f 28//1 27//1 26//1
f 28//1 29//1 27//1
f 30//1 29//1 28//1
f 30//1 31//1 29//1
f 32//1 31//1 30//1
f 33//1 31//1 32//1
f 33//1 34//1 31//1
f 35//1 34//1 33//1
f 35//1 36//1 34//1
f 37//1 36//1 35//1
f 37//1 38//1 36//1
f 39//1 38//1 37//1
f 39//1 40//1 38//1
f 40//1 41//1 38//1
f 41//1 42//1 38//1
f 39//1 43//1 40//1
f 44//1 42//1 41//1
f 45//1 43//1 39//1
f 44//1 46//1 42//1
f 47//1 43//1 45//1
f 44//1 48//1 46//1
f 49//1 43//1 47//1
f 44//1 50//1 48//1
f 51//1 43//1 49//1
f 44//1 52//1 50//1
f 53//1 43//1 51//1
f 44//1 54//1 52//1
f 55//1 43//1 53//1
f 44//1 56//1 54//1
f 57//1 43//1 55//1
f 44//1 58//1 56//1
f 59//1 43//1 57//1
f 60//1 43//1 59//1
f 61//1 43//1 60//1
f 44//1 62//1 58//1
f 63//1 43//1 61//1
f 64//1 43//1 63//1
f 65//1 43//1 64//1
f 44//1 66//1 62//1
f 67//1 43//1 65//1
f 68//1 43//1 67//1
f 44//1 69//1 66//1
f 70//1 43//1 68//1
f 71//1 43//1 70//1
f 72//1 43//1 71//1
f 44//1 73//1 69//1
f 74//1 43//1 72//1
f 44//1 75//1 73//1
f 76//1 43//1 74//1
f 44//1 77//1 75//1
f 78//1 43//1 76//1
f 44//1 79//1 77//1
f 80//1 43//1 78//1
f 44//1 81//1 79//1
f 82//1 43//1 80//1
f 44//1 83//1 81//1
f 84//1 43//1 82//1
f 84//1 44//1 43//1
f 84//1 83//1 44//1
f 84//1 85//1 83//1
f 86//1 85//1 84//1
f 86//1 87//1 85//1
f 88//1 87//1 86//1
f 89//1 87//1 88//1
f 89//1 90//1 87//1
f 89//1 91//1 90//1
f 89//1 92//1 91//1
f 93//1 92//1 89//1
f 93//1 94//1 92//1
f 93//1 95//1 94//1
f 93//1 96//1 95//1
f 97//1 96//1 93//1
f 97//1 98//1 96//1
f 97//1 99//1 98//1
f 97//1 100//1 99//1
f 101//1 100//1 97//1
f 101//1 102//1 100//1
f 101//1 103//1 102//1
f 101//1 104//1 103//1
f 105//1 104//1 101//1
f 105//1 106//1 104//1
f 107//1 106//1 105//1
f 108//1 106//1 107//1
f 109//1 106//1 108//1
f 109//1 110//1 106//1
f 111//1 110//1 109//1
f 112//1 110//1 111//1
f 113//1 110//1 112//1
f 113//1 114//1 110//1
f 115//1 114//1 113//1
f 116//1 114//1 115//1
f 117//1 114//1 116//1
f 117//1 118//1 114//1
f 119//1 118//1 117//1
f 120//1 118//1 119//1
f 121//1 118//1 120//1
f 121//1 122//1 118//1
f 123//1 122//1 121//1
f 123//1 124//1 122//1
f 125//1 124//1 123//1
f 125//1 126//1 124//1
f 125//1 127//1 126//1
f 127//1 128//1 126//1
f 129//1 130//1 125//1
f 130//1 127//1 125//1
f 129//1 131//1 130//1
f 132//1 128//1 127//1
f 132//1 133//1 128//1
f 134//1 131//1 129//1
f 132//1 135//1 133//1
f 136//1 131//1 134//1
f 132//1 137//1 135//1
f 138//1 131//1 136//1
f 132//1 139//1 137//1
f 140//1 131//1 138//1
f 132//1 141//1 139//1
f 142//1 131//1 140//1
f 132//1 143//1 141//1
f 132//1 144//1 143//1
f 132//1 145//1 144//1
f 146//1 131//1 142//1
f 132//1 147//1 145//1
f 132//1 148//1 147//1
f 132//1 149//1 148//1
f 150//1 131//1 146//1
f 132//1 151//1 149//1
f 132//1 152//1 151//1
f 132//1 153//1 152//1
f 154//1 131//1 150//1
f 132//1 155//1 153//1
f 132//1 156//1 155//1
f 157//1 131//1 154//1
f 132//1 158//1 156//1
f 159//1 131//1 157//1
f 132//1 160//1 158//1
f 132//1 161//1 160//1
f 162//1 131//1 159//1
f 132//1 163//1 161//1
f 164//1 131//1 162//1
f 132//1 165//1 163//1
f 166//1 131//1 164//1
f 132//1 167//1 165//1
f 168//1 131//1 166//1
f 168//1 132//1 131//1
f 168//1 167//1 132//1
f 168//1 169//1 167//1
f 170//1 169//1 168//1
f 170//1 171//1 169//1
f 172//1 171//1 170//1
f 172//1 173//1 171//1
f 174//1 173//1 172//1
f 174//1 175//1 173//1
f 176//1 175//1 174//1
f 176//1 177//1 175//1
f 178//1 177//1 176//1
f 178//1 179//1 177//1
f 180//1 179//1 178//1
f 180//1 181//1 179//1
f 182//1 181//1 180//1
f 182//1 183//1 181//1
f 184//1 183//1 182//1
f 184//1 185//1 183//1
f 186//1 185//1 184//1
f 186//1 187//1 185//1
f 188//1 187//1 186//1
f 188//1 189//1 187//1
f 190//1 189//1 188//1
f 190//1 191//1 189//1
f 192//1 191//1 190//1
f 192//1 193//1 191//1
f 194//1 193//1 192//1
f 194//1 195//1 193//1
f 196//1 195//1 194//1
f 196//1 197//1 195//1
f 198//1 197//1 196//1
f 198//1 199//1 197//1
f 200//1 199//1 198//1
f 200//1 201//1 199//1
f 202//1 201//1 200//1
f 202//1 203//1 201//1
f 204//1 203//1 202//1
f 204//1 205//1 203//1
f 206//1 205//1 204//1
