# Blender v2.74 (sub 0) OBJ File: ''
# www.blender.org
mtllib 9.mtl
o Text.009
v -0.106169 0.488962 -0.000005
v 0.090235 0.489165 -0.000005
v -0.101080 0.489165 -0.000005
v 0.095326 0.488963 -0.000005
v 0.100298 0.488360 -0.000005
v -0.111133 0.488355 -0.000005
v 0.105150 0.487355 -0.000005
v -0.115971 0.487343 -0.000005
v 0.109883 0.485948 -0.000005
v -0.120685 0.485926 -0.000005
v 0.114497 0.484138 -0.000005
v -0.125274 0.484104 -0.000005
v 0.118990 0.481927 -0.000005
v -0.129738 0.481878 -0.000005
v 0.123365 0.479313 -0.000005
v -0.134077 0.479246 -0.000005
v 0.127619 0.476297 -0.000005
v -0.138291 0.476210 -0.000005
v 0.131755 0.472879 -0.000005
v -0.142380 0.472769 -0.000005
v 0.135770 0.469059 -0.000005
v -0.146344 0.468923 -0.000005
v 0.139666 0.464837 -0.000005
v -0.150183 0.464673 -0.000005
v 0.143443 0.460213 -0.000005
v -0.153897 0.460017 -0.000005
v 0.147005 0.455301 -0.000005
v -0.157396 0.455077 -0.000005
v 0.150257 0.450215 -0.000005
v -0.160591 0.449970 -0.000005
v 0.153199 0.444955 -0.000005
v -0.163482 0.444698 -0.000005
v 0.155832 0.439521 -0.000005
v -0.166069 0.439260 -0.000005
v 0.158155 0.433913 -0.000005
v -0.168351 0.433657 -0.000005
v 0.160168 0.428132 -0.000005
v -0.170329 0.427887 -0.000005
v 0.161872 0.422176 -0.000005
v -0.172002 0.421952 -0.000005
v 0.071847 0.421872 -0.000005
v 0.163265 0.416047 -0.000005
v -0.173372 0.415851 -0.000005
v -0.082692 0.421872 -0.000005
v -0.082692 0.241512 -0.000005
v 0.071847 0.241512 -0.000005
v 0.164349 0.409744 -0.000005
v -0.174437 0.409585 -0.000005
v 0.165124 0.403266 -0.000005
v -0.175197 0.403152 -0.000005
v 0.165588 0.396615 -0.000005
v -0.175654 0.396554 -0.000005
v 0.165743 0.389791 -0.000005
v -0.175806 0.389791 -0.000005
v -0.175806 0.277897 -0.000005
v 0.165743 0.099493 -0.000005
v -0.175654 0.271008 -0.000005
v -0.175197 0.264296 -0.000005
v -0.174437 0.257760 -0.000005
v -0.173372 0.251402 -0.000005
v -0.172002 0.245219 -0.000005
v -0.170329 0.239213 -0.000005
v 0.071847 0.177740 -0.000005
v -0.168351 0.233384 -0.000005
v -0.166069 0.227732 -0.000005
v -0.163482 0.222256 -0.000005
v -0.160591 0.216956 -0.000005
v -0.157396 0.211834 -0.000005
v -0.153897 0.206888 -0.000005
v -0.150183 0.202232 -0.000005
v -0.146344 0.197981 -0.000005
v -0.142380 0.194136 -0.000005
v -0.138291 0.190695 -0.000005
v -0.134077 0.187659 -0.000005
v -0.129738 0.185027 -0.000005
v -0.125274 0.182801 -0.000005
v -0.120685 0.180979 -0.000005
v -0.115971 0.179562 -0.000005
v -0.111133 0.178550 -0.000005
v -0.106169 0.177943 -0.000005
v -0.101080 0.177740 -0.000005
v 0.071847 0.067412 -0.000005
v 0.165588 0.092668 -0.000005
v 0.165124 0.086017 -0.000005
v 0.164349 0.079540 -0.000005
v 0.163265 0.073237 -0.000005
v 0.161872 0.067107 -0.000005
v -0.124554 0.000119 -0.000005
v -0.124554 0.067412 -0.000005
v 0.160168 0.061152 -0.000005
v 0.158155 0.055370 -0.000005
v 0.155832 0.049763 -0.000005
v 0.153199 0.044329 -0.000005
v 0.150257 0.039069 -0.000005
v 0.147005 0.033983 -0.000005
v 0.143443 0.029071 -0.000005
v 0.139666 0.024446 -0.000005
v 0.135770 0.020224 -0.000005
v 0.131755 0.016404 -0.000005
v 0.127619 0.012986 -0.000005
v 0.123365 0.009971 -0.000005
v 0.118990 0.007357 -0.000005
v 0.114497 0.005145 -0.000005
v 0.109883 0.003336 -0.000005
v 0.105151 0.001929 -0.000005
v 0.100298 0.000923 -0.000005
v 0.095326 0.000320 -0.000005
v 0.090235 0.000119 -0.000005
vn 0.000000 0.000000 1.000000
usemtl Material.010
s 1
f 1//1 2//1 3//1
f 1//1 4//1 2//1
f 1//1 5//1 4//1
f 6//1 5//1 1//1
f 6//1 7//1 5//1
f 8//1 7//1 6//1
f 8//1 9//1 7//1
f 10//1 9//1 8//1
f 10//1 11//1 9//1
f 12//1 11//1 10//1
f 12//1 13//1 11//1
f 14//1 13//1 12//1
f 14//1 15//1 13//1
f 16//1 15//1 14//1
f 16//1 17//1 15//1
f 18//1 17//1 16//1
f 18//1 19//1 17//1
f 20//1 19//1 18//1
f 20//1 21//1 19//1
f 22//1 21//1 20//1
f 22//1 23//1 21//1
f 24//1 23//1 22//1
f 24//1 25//1 23//1
f 26//1 25//1 24//1
f 26//1 27//1 25//1
f 28//1 27//1 26//1
f 28//1 29//1 27//1
f 30//1 29//1 28//1
f 30//1 31//1 29//1
f 32//1 31//1 30//1
f 32//1 33//1 31//1
f 34//1 33//1 32//1
f 34//1 35//1 33//1
f 36//1 35//1 34//1
f 36//1 37//1 35//1
f 38//1 37//1 36//1
f 38//1 39//1 37//1
f 40//1 39//1 38//1
f 40//1 41//1 39//1
f 41//1 42//1 39//1
f 43//1 44//1 40//1
f 44//1 41//1 40//1
f 43//1 45//1 44//1
f 46//1 42//1 41//1
f 46//1 47//1 42//1
f 48//1 45//1 43//1
f 46//1 49//1 47//1
f 50//1 45//1 48//1
f 46//1 51//1 49//1
f 52//1 45//1 50//1
f 46//1 53//1 51//1
f 54//1 45//1 52//1
f 55//1 45//1 54//1
f 46//1 56//1 53//1
f 57//1 45//1 55//1
f 58//1 45//1 57//1
f 59//1 45//1 58//1
f 60//1 45//1 59//1
f 61//1 45//1 60//1
f 62//1 45//1 61//1
f 62//1 46//1 45//1
f 62//1 63//1 46//1
f 63//1 56//1 46//1
f 64//1 63//1 62//1
f 65//1 63//1 64//1
f 66//1 63//1 65//1
f 67//1 63//1 66//1
f 68//1 63//1 67//1
f 69//1 63//1 68//1
f 70//1 63//1 69//1
f 71//1 63//1 70//1
f 72//1 63//1 71//1
f 73//1 63//1 72//1
f 74//1 63//1 73//1
f 75//1 63//1 74//1
f 76//1 63//1 75//1
f 77//1 63//1 76//1
f 78//1 63//1 77//1
f 79//1 63//1 78//1
f 80//1 63//1 79//1
f 81//1 63//1 80//1
f 82//1 56//1 63//1
f 82//1 83//1 56//1
f 82//1 84//1 83//1
f 82//1 85//1 84//1
f 82//1 86//1 85//1
f 82//1 87//1 86//1
f 88//1 82//1 89//1
f 88//1 87//1 82//1
f 88//1 90//1 87//1
f 88//1 91//1 90//1
f 88//1 92//1 91//1
f 88//1 93//1 92//1
f 88//1 94//1 93//1
f 88//1 95//1 94//1
f 88//1 96//1 95//1
f 88//1 97//1 96//1
f 88//1 98//1 97//1
f 88//1 99//1 98//1
f 88//1 100//1 99//1
f 88//1 101//1 100//1
f 88//1 102//1 101//1
f 88//1 103//1 102//1
f 88//1 104//1 103//1
f 88//1 105//1 104//1
f 88//1 106//1 105//1
f 88//1 107//1 106//1
f 88//1 108//1 107//1
