# Blender v2.76 (sub 0) OBJ File: ''
# www.blender.org
mtllib A.mtl
o Text.001_Text
v -0.038234 0.394017 0.010375
v 0.030540 0.394438 0.010375
v -0.032634 0.394438 0.010375
v 0.036031 0.394017 0.010375
v -0.043809 0.392784 0.010375
v 0.041535 0.392783 0.010375
v -0.049293 0.390782 0.010375
v 0.046980 0.390778 0.010375
v -0.054616 0.388054 0.010375
v 0.052291 0.388044 0.010375
v -0.059712 0.384643 0.010375
v 0.057398 0.384625 0.010375
v -0.064513 0.380594 0.010375
v 0.062225 0.380561 0.010375
v -0.068951 0.375949 0.010375
v 0.066700 0.375897 0.010375
v -0.072959 0.370751 0.010375
v 0.070750 0.370674 0.010375
v -0.076468 0.365044 0.010375
v 0.074301 0.364934 0.010375
v -0.079411 0.358872 0.010375
v 0.077282 0.358721 0.010375
v -0.081721 0.352276 0.010375
v 0.079617 0.352076 0.010375
v -0.083329 0.345302 0.010375
v -0.025615 0.350502 0.010375
v 0.021961 0.350502 0.010375
v 0.081235 0.345042 0.010375
v -0.028344 0.333730 0.010375
v 0.055238 0.143821 0.010375
v -0.117906 0.143821 0.010375
v 0.140510 0.000315 0.010375
v -0.031074 0.316831 0.010375
v -0.033804 0.299819 0.010375
v -0.036533 0.282706 0.010375
v -0.039263 0.265507 0.010375
v -0.041993 0.248234 0.010375
v -0.044723 0.230902 0.010375
v -0.047452 0.213524 0.010375
v -0.050182 0.196113 0.010375
v -0.052912 0.178683 0.010375
v -0.055642 0.161248 0.010375
v -0.058371 0.143821 0.010375
v -0.145915 0.143413 0.010375
v -0.140264 0.143821 0.010375
v 0.062257 0.099366 0.010375
v -0.151397 0.142225 0.010375
v -0.156658 0.140312 0.010375
v -0.161649 0.137726 0.010375
v -0.166318 0.134524 0.010375
v -0.170616 0.130758 0.010375
v -0.174491 0.126482 0.010375
v -0.177893 0.121752 0.010375
v -0.180771 0.116621 0.010375
v -0.183075 0.111144 0.010375
v -0.184755 0.105374 0.010375
v -0.185759 0.099366 0.010375
v -0.125705 0.099366 0.010375
v -0.142603 0.000315 0.010375
v -0.065391 0.099366 0.010375
v -0.081249 0.000315 0.010375
v 0.078376 0.000315 0.010375
v 0.030540 0.394438 -0.011050
v -0.038234 0.394017 -0.011050
v -0.032634 0.394438 -0.011050
v 0.036031 0.394017 -0.011050
v -0.043809 0.392784 -0.011050
v 0.041535 0.392783 -0.011050
v -0.049293 0.390782 -0.011050
v 0.046980 0.390778 -0.011050
v -0.054616 0.388054 -0.011050
v 0.052291 0.388044 -0.011050
v -0.059712 0.384643 -0.011050
v 0.057398 0.384625 -0.011050
v -0.064513 0.380594 -0.011050
v 0.062225 0.380561 -0.011050
v -0.068951 0.375949 -0.011050
v 0.066700 0.375897 -0.011050
v -0.072959 0.370751 -0.011050
v 0.070750 0.370674 -0.011050
v -0.076468 0.365044 -0.011050
v 0.074301 0.364934 -0.011050
v -0.079411 0.358872 -0.011050
v 0.077282 0.358721 -0.011050
v -0.081721 0.352276 -0.011050
v 0.079617 0.352076 -0.011050
v -0.025615 0.350502 -0.011050
v -0.083329 0.345302 -0.011050
v 0.021961 0.350502 -0.011050
v 0.081235 0.345042 -0.011050
v -0.028344 0.333730 -0.011050
v 0.055238 0.143821 -0.011050
v -0.117906 0.143821 -0.011050
v 0.140510 0.000315 -0.011050
v -0.031074 0.316831 -0.011050
v -0.033804 0.299819 -0.011050
v -0.036533 0.282706 -0.011050
v -0.039263 0.265507 -0.011050
v -0.041993 0.248234 -0.011050
v -0.044723 0.230902 -0.011050
v -0.047452 0.213524 -0.011050
v -0.050182 0.196113 -0.011050
v -0.052912 0.178683 -0.011050
v -0.055642 0.161248 -0.011050
v -0.058371 0.143821 -0.011050
v -0.145915 0.143413 -0.011050
v -0.140264 0.143821 -0.011050
v 0.062257 0.099366 -0.011050
v -0.151397 0.142225 -0.011050
v -0.156658 0.140312 -0.011050
v -0.161649 0.137726 -0.011050
v -0.166318 0.134524 -0.011050
v -0.170616 0.130758 -0.011050
v -0.174491 0.126482 -0.011050
v -0.177893 0.121752 -0.011050
v -0.180771 0.116621 -0.011050
v -0.183075 0.111144 -0.011050
v -0.184755 0.105374 -0.011050
v -0.185759 0.099366 -0.011050
v -0.125705 0.099366 -0.011050
v -0.065391 0.099366 -0.011050
v -0.142603 0.000315 -0.011050
v -0.081249 0.000315 -0.011050
v 0.078376 0.000315 -0.011050
v -0.184755 0.105374 0.010375
v -0.184755 0.105374 -0.011050
v -0.185759 0.099366 -0.011050
v -0.183075 0.111144 0.010375
v -0.183075 0.111144 -0.011050
v -0.180771 0.116621 0.010375
v -0.180771 0.116621 -0.011050
v -0.177893 0.121752 0.010375
v -0.177893 0.121752 -0.011050
v -0.174491 0.126482 0.010375
v -0.174491 0.126482 -0.011050
v -0.170616 0.130758 0.010375
v -0.170616 0.130758 -0.011050
v -0.166318 0.134524 0.010375
v -0.166318 0.134524 -0.011050
v -0.161649 0.137726 0.010375
v -0.161649 0.137726 -0.011050
v -0.156658 0.140312 0.010375
v -0.156658 0.140312 -0.011050
v -0.151397 0.142225 0.010375
v -0.151397 0.142225 -0.011050
v -0.145915 0.143413 0.010375
v -0.145915 0.143413 -0.011050
v -0.140264 0.143821 0.010375
v -0.140264 0.143821 -0.011050
v -0.117906 0.143821 0.010375
v -0.117906 0.143821 -0.011050
v -0.083329 0.345302 0.010375
v -0.083329 0.345302 -0.011050
v -0.081721 0.352276 0.010375
v -0.081721 0.352276 -0.011050
v -0.079411 0.358872 0.010375
v -0.079411 0.358872 -0.011050
v -0.076468 0.365044 0.010375
v -0.076468 0.365044 -0.011050
v -0.072959 0.370751 0.010375
v -0.072959 0.370751 -0.011050
v -0.068951 0.375949 0.010375
v -0.068951 0.375949 -0.011050
v -0.064513 0.380594 0.010375
v -0.064513 0.380594 -0.011050
v -0.059712 0.384643 0.010375
v -0.059712 0.384643 -0.011050
v -0.054616 0.388054 0.010375
v -0.054616 0.388054 -0.011050
v -0.049293 0.390782 0.010375
v -0.049293 0.390782 -0.011050
v -0.043809 0.392784 0.010375
v -0.043809 0.392784 -0.011050
v -0.038234 0.394017 0.010375
v -0.038234 0.394017 -0.011050
v -0.032634 0.394438 0.010375
v -0.032634 0.394438 -0.011050
v 0.030540 0.394438 0.010375
v 0.030540 0.394438 -0.011050
v 0.036031 0.394017 0.010375
v 0.036031 0.394017 -0.011050
v 0.041535 0.392783 0.010375
v 0.041535 0.392783 -0.011050
v 0.046980 0.390778 0.010375
v 0.046980 0.390778 -0.011050
v 0.052291 0.388044 0.010375
v 0.052291 0.388044 -0.011050
v 0.057398 0.384625 0.010375
v 0.057398 0.384625 -0.011050
v 0.062225 0.380561 0.010375
v 0.062225 0.380561 -0.011050
v 0.066700 0.375897 0.010375
v 0.066700 0.375897 -0.011050
v 0.070750 0.370674 0.010375
v 0.070750 0.370674 -0.011050
v 0.074301 0.364934 0.010375
v 0.074301 0.364934 -0.011050
v 0.077282 0.358721 0.010375
v 0.077282 0.358721 -0.011050
v 0.079617 0.352076 0.010375
v 0.079617 0.352076 -0.011050
v 0.081235 0.345042 0.010375
v 0.081235 0.345042 -0.011050
v 0.140510 0.000315 0.010375
v 0.140510 0.000315 -0.011050
v 0.078376 0.000315 0.010375
v 0.078376 0.000315 -0.011050
v 0.062257 0.099366 0.010375
v 0.062257 0.099366 -0.011050
v -0.065391 0.099366 0.010375
v -0.065391 0.099366 -0.011050
v -0.081249 0.000315 0.010375
v -0.081249 0.000315 -0.011050
v -0.142603 0.000315 0.010375
v -0.142603 0.000315 -0.011050
v -0.125705 0.099366 0.010375
v -0.125705 0.099366 -0.011050
v -0.185759 0.099366 0.010375
v -0.025615 0.350502 0.010375
v -0.025615 0.350502 -0.011050
v 0.021961 0.350502 -0.011050
v -0.028344 0.333730 0.010375
v -0.028344 0.333730 -0.011050
v -0.031074 0.316831 0.010375
v -0.031074 0.316831 -0.011050
v -0.033804 0.299819 0.010375
v -0.033804 0.299819 -0.011050
v -0.036533 0.282706 0.010375
v -0.036533 0.282706 -0.011050
v -0.039263 0.265507 0.010375
v -0.039263 0.265507 -0.011050
v -0.041993 0.248234 0.010375
v -0.041993 0.248234 -0.011050
v -0.044723 0.230902 0.010375
v -0.044723 0.230902 -0.011050
v -0.047452 0.213524 0.010375
v -0.047452 0.213524 -0.011050
v -0.050182 0.196113 0.010375
v -0.050182 0.196113 -0.011050
v -0.052912 0.178683 0.010375
v -0.052912 0.178683 -0.011050
v -0.055642 0.161248 0.010375
v -0.055642 0.161248 -0.011050
v -0.058371 0.143821 0.010375
v -0.058371 0.143821 -0.011050
v 0.055238 0.143821 0.010375
v 0.055238 0.143821 -0.011050
v 0.021961 0.350502 0.010375
vn 0.000000 0.000000 1.000000
vn -0.000000 -0.019500 0.999800
vn -0.000000 0.017400 0.999800
vn 0.000000 0.017600 0.999800
vn 0.000000 -0.000000 -1.000000
vn 0.000000 0.023400 0.999700
vn -0.974900 0.222600 0.000000
vn -0.763200 -0.646200 0.000000
vn -0.942500 0.334200 0.000000
vn -0.898400 0.439200 0.000000
vn -0.843300 0.537400 0.000000
vn -0.777600 0.628700 0.000000
vn -0.701200 0.713000 0.000000
vn -0.613400 0.789800 0.000000
vn -0.513800 0.857900 0.000000
vn -0.401700 0.915800 0.000000
vn -0.277400 0.960800 0.000000
vn -0.142300 0.989800 0.000000
vn -0.036000 0.999400 0.000000
vn -0.644500 0.764600 0.000000
vn -0.980400 0.197000 0.000000
vn -0.960600 0.278000 0.000000
vn -0.924600 0.381000 0.000000
vn -0.878500 0.477800 0.000000
vn -0.823000 0.568000 0.000000
vn -0.758500 0.651600 0.000000
vn -0.684900 0.728700 0.000000
vn -0.601400 0.799000 0.000000
vn -0.507000 0.861900 0.000000
vn -0.400300 0.916400 0.000000
vn -0.280100 0.960000 0.000000
vn -0.145800 0.989300 0.000000
vn -0.037500 0.999300 0.000000
vn 0.038300 0.999300 0.000000
vn 0.148000 0.989000 0.000000
vn 0.282800 0.959200 0.000000
vn 0.402400 0.915500 0.000000
vn 0.507800 0.861500 0.000000
vn 0.601100 0.799200 0.000000
vn 0.683800 0.729700 0.000000
vn 0.757000 0.653500 0.000000
vn 0.821500 0.570200 0.000000
vn 0.877300 0.480000 0.000000
vn 0.923900 0.382600 0.000000
vn 0.960500 0.278300 0.000000
vn 0.980400 0.196900 0.000000
vn 0.764700 -0.644400 0.000000
vn -0.647800 -0.761800 0.000000
vn 0.648800 -0.760900 0.000000
vn -0.764300 -0.644900 0.000000
vn 0.647800 -0.761800 0.000000
vn -0.648500 -0.761200 0.000000
vn 0.987100 -0.160000 0.000000
vn 0.987300 -0.159000 0.000000
vn 0.987400 -0.158000 0.000000
vn 0.987600 -0.157100 0.000000
vn 0.987700 -0.156400 0.000000
vn 0.987800 -0.155900 0.000000
vn 0.987900 -0.155400 0.000000
vn 0.987900 -0.155000 0.000000
vn 0.987900 -0.154800 0.000000
vn 0.988000 -0.154700 0.000000
vn 0.759800 0.650100 0.000000
vn -0.761200 0.648500 0.000000
usemtl Material.000
s off
f 1//1 2//1 3//1
f 1//1 4//1 2//1
f 5//1 4//1 1//1
f 5//1 6//1 4//1
f 7//1 6//1 5//1
f 7//1 8//1 6//1
f 9//1 8//1 7//1
f 9//1 10//1 8//1
f 11//1 10//1 9//1
f 11//1 12//1 10//1
f 13//1 12//1 11//1
f 13//1 14//1 12//1
f 15//1 14//1 13//1
f 15//1 16//1 14//1
f 17//1 16//1 15//1
f 17//1 18//1 16//1
f 19//1 18//1 17//1
f 19//1 20//1 18//1
f 21//1 20//1 19//1
f 21//1 22//1 20//1
f 23//1 22//1 21//1
f 23//1 24//1 22//1
f 25//1 26//1 23//1
f 26//1 24//1 23//1
f 26//1 27//1 24//1
f 27//1 28//1 24//1
f 25//1 29//1 26//1
f 30//1 28//1 27//1
f 31//1 29//1 25//1
f 30//1 32//1 28//1
f 31//1 33//1 29//1
f 31//1 34//1 33//1
f 31//1 35//1 34//1
f 31//1 36//1 35//1
f 31//1 37//1 36//1
f 31//1 38//1 37//1
f 31//1 39//1 38//1
f 31//1 40//1 39//1
f 31//1 41//1 40//1
f 31//1 42//1 41//1
f 31//1 43//1 42//1
f 44//1 31//1 45//1
f 44//1 43//1 31//1
f 44//1 30//1 43//1
f 44//1 46//1 30//1
f 46//1 32//1 30//1
f 47//1 46//1 44//1
f 48//1 46//1 47//1
f 49//1 46//1 48//1
f 50//1 46//1 49//1
f 51//1 46//1 50//1
f 52//1 46//1 51//1
f 53//1 46//1 52//1
f 54//1 46//1 53//1
f 55//1 46//1 54//1
f 56//1 46//1 55//1
f 57//1 46//1 56//1
f 58//2 46//2 57//2
f 59//1 60//1 58//1
f 60//3 46//4 58//3
f 59//1 61//1 60//1
f 62//1 32//1 46//1
f 63//5 64//5 65//5
f 66//5 64//5 63//5
f 66//5 67//5 64//5
f 68//5 67//5 66//5
f 68//5 69//5 67//5
f 70//5 69//5 68//5
f 70//5 71//5 69//5
f 72//5 71//5 70//5
f 72//5 73//5 71//5
f 74//5 73//5 72//5
f 74//5 75//5 73//5
f 76//5 75//5 74//5
f 76//5 77//5 75//5
f 78//5 77//5 76//5
f 78//5 79//5 77//5
f 80//5 79//5 78//5
f 80//5 81//5 79//5
f 82//5 81//5 80//5
f 82//5 83//5 81//5
f 84//5 83//5 82//5
f 84//5 85//5 83//5
f 86//5 85//5 84//5
f 87//5 88//5 85//5
f 86//5 87//5 85//5
f 89//5 87//5 86//5
f 90//5 89//5 86//5
f 91//5 88//5 87//5
f 90//5 92//5 89//5
f 91//5 93//5 88//5
f 94//5 92//5 90//5
f 95//5 93//5 91//5
f 96//5 93//5 95//5
f 97//5 93//5 96//5
f 98//5 93//5 97//5
f 99//5 93//5 98//5
f 100//5 93//5 99//5
f 101//5 93//5 100//5
f 102//5 93//5 101//5
f 103//5 93//5 102//5
f 104//5 93//5 103//5
f 105//5 93//5 104//5
f 93//5 106//5 107//5
f 105//5 106//5 93//5
f 92//5 106//5 105//5
f 108//5 106//5 92//5
f 94//5 108//5 92//5
f 108//5 109//5 106//5
f 108//5 110//5 109//5
f 108//5 111//5 110//5
f 108//5 112//5 111//5
f 108//5 113//5 112//5
f 108//5 114//5 113//5
f 108//5 115//5 114//5
f 108//5 116//5 115//5
f 108//5 117//5 116//5
f 108//5 118//5 117//5
f 108//5 119//5 118//5
f 108//2 120//2 119//2
f 121//5 122//5 120//5
f 108//6 121//6 120//6
f 123//5 122//5 121//5
f 94//5 124//5 108//5
s 1
f 125//7 126//7 127//8
f 128//9 129//9 126//7
f 130//10 131//10 129//9
f 132//11 133//11 131//10
f 134//12 135//12 133//11
f 136//13 137//13 135//12
f 138//14 139//14 137//13
f 140//15 141//15 139//14
f 142//16 143//16 141//15
f 144//17 145//17 143//16
f 146//18 147//18 145//17
f 148//19 149//19 147//18
f 150//20 151//20 149//19
f 152//21 153//21 151//20
f 154//22 155//22 153//21
f 156//23 157//23 155//22
f 158//24 159//24 157//23
f 160//25 161//25 159//24
f 162//26 163//26 161//25
f 164//27 165//27 163//26
f 166//28 167//28 165//27
f 168//29 169//29 167//28
f 170//30 171//30 169//29
f 172//31 173//31 171//30
f 174//32 175//32 173//31
f 176//33 177//33 175//32
f 178//34 179//34 177//33
f 180//35 181//35 179//34
f 182//36 183//36 181//35
f 184//37 185//37 183//36
f 186//38 187//38 185//37
f 188//39 189//39 187//38
f 190//40 191//40 189//39
f 192//41 193//41 191//40
f 194//42 195//42 193//41
f 196//43 197//43 195//42
f 198//44 199//44 197//43
f 200//45 201//45 199//44
f 202//46 203//46 201//45
f 204//47 205//47 203//46
f 206//48 207//48 205//47
f 208//48 209//48 207//48
f 210//49 211//49 209//48
f 212//49 213//49 211//49
f 214//50 215//50 213//49
f 216//50 217//50 215//50
f 218//8 127//8 217//50
f 219//51 220//51 221//52
f 222//53 223//53 220//51
f 224//54 225//54 223//53
f 226//55 227//55 225//54
f 228//56 229//56 227//55
f 230//57 231//57 229//56
f 232//58 233//58 231//57
f 234//59 235//59 233//58
f 236//60 237//60 235//59
f 238//61 239//61 237//60
f 240//62 241//62 239//61
f 242//62 243//62 241//62
f 244//63 245//63 243//62
f 246//64 247//64 245//63
f 248//52 221//52 247//64
f 218//8 125//7 127//8
f 125//7 128//9 126//7
f 128//9 130//10 129//9
f 130//10 132//11 131//10
f 132//11 134//12 133//11
f 134//12 136//13 135//12
f 136//13 138//14 137//13
f 138//14 140//15 139//14
f 140//15 142//16 141//15
f 142//16 144//17 143//16
f 144//17 146//18 145//17
f 146//18 148//19 147//18
f 148//19 150//20 149//19
f 150//20 152//21 151//20
f 152//21 154//22 153//21
f 154//22 156//23 155//22
f 156//23 158//24 157//23
f 158//24 160//25 159//24
f 160//25 162//26 161//25
f 162//26 164//27 163//26
f 164//27 166//28 165//27
f 166//28 168//29 167//28
f 168//29 170//30 169//29
f 170//30 172//31 171//30
f 172//31 174//32 173//31
f 174//32 176//33 175//32
f 176//33 178//34 177//33
f 178//34 180//35 179//34
f 180//35 182//36 181//35
f 182//36 184//37 183//36
f 184//37 186//38 185//37
f 186//38 188//39 187//38
f 188//39 190//40 189//39
f 190//40 192//41 191//40
f 192//41 194//42 193//41
f 194//42 196//43 195//42
f 196//43 198//44 197//43
f 198//44 200//45 199//44
f 200//45 202//46 201//45
f 202//46 204//47 203//46
f 204//47 206//48 205//47
f 206//48 208//48 207//48
f 208//48 210//49 209//48
f 210//49 212//49 211//49
f 212//49 214//50 213//49
f 214//50 216//50 215//50
f 216//50 218//8 217//50
f 248//52 219//51 221//52
f 219//51 222//53 220//51
f 222//53 224//54 223//53
f 224//54 226//55 225//54
f 226//55 228//56 227//55
f 228//56 230//57 229//56
f 230//57 232//58 231//57
f 232//58 234//59 233//58
f 234//59 236//60 235//59
f 236//60 238//61 237//60
f 238//61 240//62 239//61
f 240//62 242//62 241//62
f 242//62 244//63 243//62
f 244//63 246//64 245//63
f 246//64 248//52 247//64
