# Blender v2.76 (sub 0) OBJ File: ''
# www.blender.org
mtllib C.mtl
o Text.001_Text.001
v -0.090181 0.393843 0.010375
v 0.060957 0.394438 0.010375
v -0.083589 0.394438 0.010375
v 0.067609 0.393843 0.010375
v -0.096526 0.392110 0.010375
v 0.074004 0.392110 0.010375
v -0.102563 0.389311 0.010375
v 0.080082 0.389311 0.010375
v -0.108229 0.385521 0.010375
v 0.085780 0.385521 0.010375
v -0.113461 0.380814 0.010375
v 0.091038 0.380814 0.010375
v -0.118198 0.375264 0.010375
v 0.095794 0.375264 0.010375
v -0.122377 0.368945 0.010375
v 0.099987 0.368945 0.010375
v -0.125936 0.361931 0.010375
v 0.103555 0.361931 0.010375
v -0.128813 0.354296 0.010375
v 0.106437 0.354296 0.010375
v -0.130944 0.346114 0.010375
v -0.071110 0.350502 0.010375
v 0.048478 0.350502 0.010375
v 0.108571 0.346114 0.010375
v -0.071110 0.044771 0.010375
v 0.048478 0.226753 0.010375
v -0.132269 0.337458 0.010375
v 0.109897 0.337458 0.010375
v -0.132724 0.328404 0.010375
v 0.110353 0.328404 0.010375
v -0.132724 0.065829 0.010375
v 0.110353 0.226753 0.010375
v -0.132269 0.056948 0.010375
v -0.130944 0.048428 0.010375
v -0.128813 0.040347 0.010375
v 0.129071 0.044771 0.010375
v 0.128066 0.038762 0.010375
v -0.125936 0.032783 0.010375
v 0.126387 0.032992 0.010375
v 0.124083 0.027515 0.010375
v -0.122377 0.025815 0.010375
v 0.121204 0.022384 0.010375
v -0.118198 0.019521 0.010375
v 0.117802 0.017654 0.010375
v -0.113461 0.013979 0.010375
v 0.113927 0.013379 0.010375
v -0.108229 0.009270 0.010375
v 0.109630 0.009613 0.010375
v 0.104961 0.006410 0.010375
v -0.102563 0.005470 0.010375
v 0.099970 0.003825 0.010375
v -0.096526 0.002658 0.010375
v 0.094708 0.001911 0.010375
v -0.090181 0.000914 0.010375
v 0.089227 0.000723 0.010375
v -0.083589 0.000315 0.010375
v 0.083575 0.000315 0.010375
v 0.060957 0.394438 -0.011050
v -0.090181 0.393843 -0.011050
v -0.083589 0.394438 -0.011050
v 0.067609 0.393843 -0.011050
v -0.096526 0.392110 -0.011050
v 0.074004 0.392110 -0.011050
v -0.102563 0.389311 -0.011050
v 0.080082 0.389311 -0.011050
v -0.108229 0.385521 -0.011050
v 0.085780 0.385521 -0.011050
v -0.113461 0.380814 -0.011050
v 0.091038 0.380814 -0.011050
v -0.118198 0.375264 -0.011050
v 0.095794 0.375264 -0.011050
v -0.122377 0.368945 -0.011050
v 0.099987 0.368945 -0.011050
v -0.125936 0.361931 -0.011050
v 0.103555 0.361931 -0.011050
v -0.128813 0.354296 -0.011050
v 0.106437 0.354296 -0.011050
v -0.071110 0.350502 -0.011050
v -0.130944 0.346114 -0.011050
v 0.048478 0.350502 -0.011050
v 0.108571 0.346114 -0.011050
v -0.071110 0.044771 -0.011050
v 0.048478 0.226753 -0.011050
v -0.132269 0.337458 -0.011050
v 0.109897 0.337458 -0.011050
v -0.132724 0.328404 -0.011050
v 0.110353 0.328404 -0.011050
v -0.132724 0.065829 -0.011050
v 0.110353 0.226753 -0.011050
v -0.132269 0.056948 -0.011050
v -0.130944 0.048428 -0.011050
v -0.128813 0.040347 -0.011050
v 0.129071 0.044771 -0.011050
v 0.128066 0.038762 -0.011050
v -0.125936 0.032783 -0.011050
v 0.126387 0.032992 -0.011050
v 0.124083 0.027515 -0.011050
v -0.122377 0.025815 -0.011050
v 0.121204 0.022384 -0.011050
v -0.118198 0.019521 -0.011050
v 0.117802 0.017654 -0.011050
v -0.113461 0.013979 -0.011050
v 0.113927 0.013379 -0.011050
v -0.108229 0.009270 -0.011050
v 0.109630 0.009613 -0.011050
v 0.104961 0.006410 -0.011050
v -0.102563 0.005470 -0.011050
v 0.099970 0.003825 -0.011050
v -0.096526 0.002658 -0.011050
v 0.094708 0.001911 -0.011050
v -0.090181 0.000914 -0.011050
v 0.089227 0.000723 -0.011050
v -0.083589 0.000315 -0.011050
v 0.083575 0.000315 -0.011050
v -0.130944 0.346114 0.010375
v -0.130944 0.346114 -0.011050
v -0.132269 0.337458 -0.011050
v -0.128813 0.354296 0.010375
v -0.128813 0.354296 -0.011050
v -0.125936 0.361931 0.010375
v -0.125936 0.361931 -0.011050
v -0.122377 0.368945 0.010375
v -0.122377 0.368945 -0.011050
v -0.118198 0.375264 0.010375
v -0.118198 0.375264 -0.011050
v -0.113461 0.380814 0.010375
v -0.113461 0.380814 -0.011050
v -0.108229 0.385521 0.010375
v -0.108229 0.385521 -0.011050
v -0.102563 0.389311 0.010375
v -0.102563 0.389311 -0.011050
v -0.096526 0.392110 0.010375
v -0.096526 0.392110 -0.011050
v -0.090181 0.393843 0.010375
v -0.090181 0.393843 -0.011050
v -0.083589 0.394438 0.010375
v -0.083589 0.394438 -0.011050
v 0.060957 0.394438 0.010375
v 0.060957 0.394438 -0.011050
v 0.067609 0.393843 0.010375
v 0.067609 0.393843 -0.011050
v 0.074004 0.392110 0.010375
v 0.074004 0.392110 -0.011050
v 0.080082 0.389311 0.010375
v 0.080082 0.389311 -0.011050
v 0.085780 0.385521 0.010375
v 0.085780 0.385521 -0.011050
v 0.091038 0.380814 0.010375
v 0.091038 0.380814 -0.011050
v 0.095794 0.375264 0.010375
v 0.095794 0.375264 -0.011050
v 0.099987 0.368945 0.010375
v 0.099987 0.368945 -0.011050
v 0.103555 0.361931 0.010375
v 0.103555 0.361931 -0.011050
v 0.106437 0.354296 0.010375
v 0.106437 0.354296 -0.011050
v 0.108571 0.346114 0.010375
v 0.108571 0.346114 -0.011050
v 0.109897 0.337458 0.010375
v 0.109897 0.337458 -0.011050
v 0.110353 0.328404 0.010375
v 0.110353 0.328404 -0.011050
v 0.110353 0.226753 0.010375
v 0.110353 0.226753 -0.011050
v 0.048478 0.226753 0.010375
v 0.048478 0.226753 -0.011050
v 0.048478 0.350502 0.010375
v 0.048478 0.350502 -0.011050
v -0.071110 0.350502 0.010375
v -0.071110 0.350502 -0.011050
v -0.071110 0.044771 0.010375
v -0.071110 0.044771 -0.011050
v 0.129071 0.044771 0.010375
v 0.129071 0.044771 -0.011050
v 0.128066 0.038762 0.010375
v 0.128066 0.038762 -0.011050
v 0.126387 0.032992 0.010375
v 0.126387 0.032992 -0.011050
v 0.124083 0.027515 0.010375
v 0.124083 0.027515 -0.011050
v 0.121204 0.022384 0.010375
v 0.121204 0.022384 -0.011050
v 0.117802 0.017654 0.010375
v 0.117802 0.017654 -0.011050
v 0.113927 0.013379 0.010375
v 0.113927 0.013379 -0.011050
v 0.109630 0.009613 0.010375
v 0.109630 0.009613 -0.011050
v 0.104961 0.006410 0.010375
v 0.104961 0.006410 -0.011050
v 0.099970 0.003825 0.010375
v 0.099970 0.003825 -0.011050
v 0.094708 0.001911 0.010375
v 0.094708 0.001911 -0.011050
v 0.089227 0.000723 0.010375
v 0.089227 0.000723 -0.011050
v 0.083575 0.000315 0.010375
v 0.083575 0.000315 -0.011050
v -0.083589 0.000315 0.010375
v -0.083589 0.000315 -0.011050
v -0.090181 0.000914 0.010375
v -0.090181 0.000914 -0.011050
v -0.096526 0.002658 0.010375
v -0.096526 0.002658 -0.011050
v -0.102563 0.005470 0.010375
v -0.102563 0.005470 -0.011050
v -0.108229 0.009270 0.010375
v -0.108229 0.009270 -0.011050
v -0.113461 0.013979 0.010375
v -0.113461 0.013979 -0.011050
v -0.118198 0.019521 0.010375
v -0.118198 0.019521 -0.011050
v -0.122377 0.025815 0.010375
v -0.122377 0.025815 -0.011050
v -0.125936 0.032783 0.010375
v -0.125936 0.032783 -0.011050
v -0.128813 0.040347 0.010375
v -0.128813 0.040347 -0.011050
v -0.130944 0.048428 0.010375
v -0.130944 0.048428 -0.011050
v -0.132269 0.056948 0.010375
v -0.132269 0.056948 -0.011050
v -0.132724 0.065829 0.010375
v -0.132724 0.065829 -0.011050
v -0.132724 0.328404 0.010375
v -0.132724 0.328404 -0.011050
v -0.132269 0.337458 0.010375
vn 0.000000 0.000000 1.000000
vn 0.000000 -0.000000 -1.000000
vn -0.979400 0.201900 0.000000
vn -0.994900 0.100900 0.000000
vn -0.953100 0.302700 0.000000
vn -0.915100 0.403200 0.000000
vn -0.864400 0.502900 0.000000
vn -0.798800 0.601500 0.000000
vn -0.716300 0.697800 0.000000
vn -0.614000 0.789300 0.000000
vn -0.489800 0.871800 0.000000
vn -0.343300 0.939200 0.000000
vn -0.177400 0.984100 0.000000
vn -0.045000 0.999000 0.000000
vn 0.044600 0.999000 0.000000
vn 0.176000 0.984400 0.000000
vn 0.341100 0.940000 0.000000
vn 0.487500 0.873100 0.000000
vn 0.612000 0.790900 0.000000
vn 0.714700 0.699400 0.000000
vn 0.797800 0.602900 0.000000
vn 0.863700 0.504000 0.000000
vn 0.914800 0.403900 0.000000
vn 0.952900 0.303200 0.000000
vn 0.979400 0.202200 0.000000
vn 0.994900 0.101000 0.000000
vn 0.999700 0.025200 0.000000
vn 0.707100 -0.707100 0.000000
vn -0.707100 -0.707100 0.000000
vn 0.707100 0.707100 0.000000
vn 0.763200 0.646200 0.000000
vn 0.974900 -0.222600 0.000000
vn 0.942500 -0.334100 0.000000
vn 0.898400 -0.439200 0.000000
vn 0.843300 -0.537500 0.000000
vn 0.777600 -0.628700 0.000000
vn 0.701200 -0.713000 0.000000
vn 0.613500 -0.789700 0.000000
vn 0.513800 -0.857900 0.000000
vn 0.401700 -0.915800 0.000000
vn 0.277500 -0.960700 0.000000
vn 0.142300 -0.989800 0.000000
vn 0.036000 -0.999400 0.000000
vn -0.045300 -0.999000 0.000000
vn -0.178500 -0.983900 0.000000
vn -0.344800 -0.938700 0.000000
vn -0.491100 -0.871100 0.000000
vn -0.614500 -0.788900 0.000000
vn -0.716100 -0.698000 0.000000
vn -0.798100 -0.602500 0.000000
vn -0.863200 -0.504800 0.000000
vn -0.914000 -0.405800 0.000000
vn -0.952100 -0.305700 0.000000
vn -0.978800 -0.204600 0.000000
vn -0.994700 -0.102600 0.000000
vn -0.999700 -0.025600 0.000000
vn -0.999700 0.025100 0.000000
usemtl Material.002
s off
f 1//1 2//1 3//1
f 1//1 4//1 2//1
f 5//1 4//1 1//1
f 5//1 6//1 4//1
f 7//1 6//1 5//1
f 7//1 8//1 6//1
f 9//1 8//1 7//1
f 9//1 10//1 8//1
f 11//1 10//1 9//1
f 11//1 12//1 10//1
f 13//1 12//1 11//1
f 13//1 14//1 12//1
f 15//1 14//1 13//1
f 15//1 16//1 14//1
f 17//1 16//1 15//1
f 17//1 18//1 16//1
f 19//1 18//1 17//1
f 19//1 20//1 18//1
f 21//1 22//1 19//1
f 22//1 20//1 19//1
f 22//1 23//1 20//1
f 23//1 24//1 20//1
f 21//1 25//1 22//1
f 26//1 24//1 23//1
f 27//1 25//1 21//1
f 26//1 28//1 24//1
f 29//1 25//1 27//1
f 26//1 30//1 28//1
f 31//1 25//1 29//1
f 26//1 32//1 30//1
f 33//1 25//1 31//1
f 34//1 25//1 33//1
f 35//1 25//1 34//1
f 35//1 36//1 25//1
f 35//1 37//1 36//1
f 38//1 37//1 35//1
f 38//1 39//1 37//1
f 38//1 40//1 39//1
f 41//1 40//1 38//1
f 41//1 42//1 40//1
f 43//1 42//1 41//1
f 43//1 44//1 42//1
f 45//1 44//1 43//1
f 45//1 46//1 44//1
f 47//1 46//1 45//1
f 47//1 48//1 46//1
f 47//1 49//1 48//1
f 50//1 49//1 47//1
f 50//1 51//1 49//1
f 52//1 51//1 50//1
f 52//1 53//1 51//1
f 54//1 53//1 52//1
f 54//1 55//1 53//1
f 56//1 55//1 54//1
f 56//1 57//1 55//1
f 58//2 59//2 60//2
f 61//2 59//2 58//2
f 61//2 62//2 59//2
f 63//2 62//2 61//2
f 63//2 64//2 62//2
f 65//2 64//2 63//2
f 65//2 66//2 64//2
f 67//2 66//2 65//2
f 67//2 68//2 66//2
f 69//2 68//2 67//2
f 69//2 70//2 68//2
f 71//2 70//2 69//2
f 71//2 72//2 70//2
f 73//2 72//2 71//2
f 73//2 74//2 72//2
f 75//2 74//2 73//2
f 75//2 76//2 74//2
f 77//2 76//2 75//2
f 78//2 79//2 76//2
f 77//2 78//2 76//2
f 80//2 78//2 77//2
f 81//2 80//2 77//2
f 82//2 79//2 78//2
f 81//2 83//2 80//2
f 82//2 84//2 79//2
f 85//2 83//2 81//2
f 82//2 86//2 84//2
f 87//2 83//2 85//2
f 82//2 88//2 86//2
f 89//2 83//2 87//2
f 82//2 90//2 88//2
f 82//2 91//2 90//2
f 82//2 92//2 91//2
f 93//2 92//2 82//2
f 94//2 92//2 93//2
f 94//2 95//2 92//2
f 96//2 95//2 94//2
f 97//2 95//2 96//2
f 97//2 98//2 95//2
f 99//2 98//2 97//2
f 99//2 100//2 98//2
f 101//2 100//2 99//2
f 101//2 102//2 100//2
f 103//2 102//2 101//2
f 103//2 104//2 102//2
f 105//2 104//2 103//2
f 106//2 104//2 105//2
f 106//2 107//2 104//2
f 108//2 107//2 106//2
f 108//2 109//2 107//2
f 110//2 109//2 108//2
f 110//2 111//2 109//2
f 112//2 111//2 110//2
f 112//2 113//2 111//2
f 114//2 113//2 112//2
s 1
f 115//3 116//3 117//4
f 118//5 119//5 116//3
f 120//6 121//6 119//5
f 122//7 123//7 121//6
f 124//8 125//8 123//7
f 126//9 127//9 125//8
f 128//10 129//10 127//9
f 130//11 131//11 129//10
f 132//12 133//12 131//11
f 134//13 135//13 133//12
f 136//14 137//14 135//13
f 138//15 139//15 137//14
f 140//16 141//16 139//15
f 142//17 143//17 141//16
f 144//18 145//18 143//17
f 146//19 147//19 145//18
f 148//20 149//20 147//19
f 150//21 151//21 149//20
f 152//22 153//22 151//21
f 154//23 155//23 153//22
f 156//24 157//24 155//23
f 158//25 159//25 157//24
f 160//26 161//26 159//25
f 162//27 163//27 161//26
f 164//28 165//28 163//27
f 166//29 167//29 165//28
f 168//29 169//29 167//29
f 170//28 171//28 169//29
f 172//30 173//30 171//28
f 174//31 175//31 173//30
f 176//32 177//32 175//31
f 178//33 179//33 177//32
f 180//34 181//34 179//33
f 182//35 183//35 181//34
f 184//36 185//36 183//35
f 186//37 187//37 185//36
f 188//38 189//38 187//37
f 190//39 191//39 189//38
f 192//40 193//40 191//39
f 194//41 195//41 193//40
f 196//42 197//42 195//41
f 198//43 199//43 197//42
f 200//44 201//44 199//43
f 202//45 203//45 201//44
f 204//46 205//46 203//45
f 206//47 207//47 205//46
f 208//48 209//48 207//47
f 210//49 211//49 209//48
f 210//49 212//50 213//50
f 214//51 215//51 213//50
f 216//52 217//52 215//51
f 218//53 219//53 217//52
f 220//54 221//54 219//53
f 222//55 223//55 221//54
f 222//55 224//56 225//56
f 226//57 227//57 225//56
f 228//4 117//4 227//57
f 228//4 115//3 117//4
f 115//3 118//5 116//3
f 118//5 120//6 119//5
f 120//6 122//7 121//6
f 122//7 124//8 123//7
f 124//8 126//9 125//8
f 126//9 128//10 127//9
f 128//10 130//11 129//10
f 130//11 132//12 131//11
f 132//12 134//13 133//12
f 134//13 136//14 135//13
f 136//14 138//15 137//14
f 138//15 140//16 139//15
f 140//16 142//17 141//16
f 142//17 144//18 143//17
f 144//18 146//19 145//18
f 146//19 148//20 147//19
f 148//20 150//21 149//20
f 150//21 152//22 151//21
f 152//22 154//23 153//22
f 154//23 156//24 155//23
f 156//24 158//25 157//24
f 158//25 160//26 159//25
f 160//26 162//27 161//26
f 162//27 164//28 163//27
f 164//28 166//29 165//28
f 166//29 168//29 167//29
f 168//29 170//28 169//29
f 170//28 172//30 171//28
f 172//30 174//31 173//30
f 174//31 176//32 175//31
f 176//32 178//33 177//32
f 178//33 180//34 179//33
f 180//34 182//35 181//34
f 182//35 184//36 183//35
f 184//36 186//37 185//36
f 186//37 188//38 187//37
f 188//38 190//39 189//38
f 190//39 192//40 191//39
f 192//40 194//41 193//40
f 194//41 196//42 195//41
f 196//42 198//43 197//42
f 198//43 200//44 199//43
f 200//44 202//45 201//44
f 202//45 204//46 203//45
f 204//46 206//47 205//46
f 206//47 208//48 207//47
f 208//48 210//49 209//48
f 211//49 210//49 213//50
f 212//50 214//51 213//50
f 214//51 216//52 215//51
f 216//52 218//53 217//52
f 218//53 220//54 219//53
f 220//54 222//55 221//54
f 223//55 222//55 225//56
f 224//56 226//57 225//56
f 226//57 228//4 227//57
