# Blender v2.76 (sub 0) OBJ File: ''
# www.blender.org
mtllib M.mtl
o Text.001_Text.004
v -0.196644 0.000315 0.010375
v -0.134510 0.394438 0.010375
v -0.196644 0.394438 0.010375
v -0.134510 0.289927 0.010375
v -0.017998 0.394287 0.010375
v -0.006768 0.393891 0.010375
v -0.013881 0.394438 0.010375
v 0.143172 0.394302 0.010375
v 0.154416 0.393891 0.010375
v 0.147304 0.394438 0.010375
v 0.138989 0.393892 0.010375
v -0.022141 0.393838 0.010375
v 0.134792 0.393207 0.010375
v -0.000137 0.392299 0.010375
v 0.161048 0.392299 0.010375
v -0.026283 0.393097 0.010375
v 0.130617 0.392242 0.010375
v -0.030394 0.392069 0.010375
v 0.005987 0.389730 0.010375
v 0.167172 0.389730 0.010375
v 0.126500 0.390996 0.010375
v -0.034448 0.390759 0.010375
v 0.122476 0.389466 0.010375
v -0.038416 0.389173 0.010375
v 0.011577 0.386253 0.010375
v 0.172762 0.386253 0.010375
v 0.118583 0.387648 0.010375
v -0.042270 0.387316 0.010375
v 0.114855 0.385541 0.010375
v -0.045983 0.385194 0.010375
v 0.016608 0.381939 0.010375
v 0.177793 0.381939 0.010375
v 0.111330 0.383141 0.010375
v -0.049526 0.382812 0.010375
v 0.108043 0.380446 0.010375
v -0.052871 0.380175 0.010375
v 0.021053 0.376857 0.010375
v 0.182238 0.376857 0.010375
v 0.105030 0.377453 0.010375
v -0.055991 0.377289 0.010375
v 0.102328 0.374160 0.010375
v -0.058857 0.374160 0.010375
v 0.024886 0.371076 0.010375
v 0.186071 0.371076 0.010375
v 0.033955 0.289927 0.010375
v 0.133785 0.343482 0.010375
v -0.027400 0.343482 0.010375
v 0.028081 0.364666 0.010375
v 0.189266 0.364666 0.010375
v 0.030611 0.357696 0.010375
v 0.191796 0.357696 0.010375
v 0.032451 0.350236 0.010375
v 0.193636 0.350236 0.010375
v 0.033574 0.342355 0.010375
v 0.194759 0.342355 0.010375
v -0.134510 0.224154 0.010375
v -0.027400 0.000315 0.010375
v 0.033955 0.224154 0.010375
v 0.133785 0.065829 0.010375
v 0.033955 0.334123 0.010375
v 0.195139 0.334123 0.010375
v 0.195139 0.044771 0.010375
v -0.134510 0.000315 0.010375
v 0.033955 0.000315 0.010375
v 0.134200 0.056948 0.010375
v 0.135414 0.048428 0.010375
v 0.137380 0.040347 0.010375
v 0.251294 0.044771 0.010375
v 0.250290 0.038762 0.010375
v 0.140053 0.032783 0.010375
v 0.248610 0.032992 0.010375
v 0.246306 0.027515 0.010375
v 0.143387 0.025815 0.010375
v 0.243427 0.022384 0.010375
v 0.147336 0.019521 0.010375
v 0.240025 0.017654 0.010375
v 0.151854 0.013979 0.010375
v 0.236150 0.013379 0.010375
v 0.156894 0.009270 0.010375
v 0.231853 0.009613 0.010375
v 0.227184 0.006410 0.010375
v 0.162411 0.005470 0.010375
v 0.222193 0.003825 0.010375
v 0.168358 0.002658 0.010375
v 0.216931 0.001911 0.010375
v 0.174690 0.000914 0.010375
v 0.211450 0.000723 0.010375
v 0.181361 0.000315 0.010375
v 0.205798 0.000315 0.010375
v -0.134510 0.394438 -0.011050
v -0.196644 0.000315 -0.011050
v -0.196644 0.394438 -0.011050
v -0.134510 0.289927 -0.011050
v -0.006768 0.393891 -0.011050
v -0.017998 0.394287 -0.011050
v -0.013881 0.394438 -0.011050
v 0.154416 0.393891 -0.011050
v 0.143172 0.394302 -0.011050
v 0.147304 0.394438 -0.011050
v 0.138989 0.393892 -0.011050
v -0.022141 0.393838 -0.011050
v 0.134792 0.393207 -0.011050
v -0.000137 0.392299 -0.011050
v 0.161048 0.392299 -0.011050
v -0.026283 0.393097 -0.011050
v 0.130617 0.392242 -0.011050
v -0.030394 0.392069 -0.011050
v 0.005987 0.389730 -0.011050
v 0.167172 0.389730 -0.011050
v 0.126500 0.390996 -0.011050
v -0.034448 0.390759 -0.011050
v 0.122476 0.389466 -0.011050
v -0.038416 0.389173 -0.011050
v 0.011577 0.386253 -0.011050
v 0.172762 0.386253 -0.011050
v 0.118583 0.387648 -0.011050
v -0.042270 0.387316 -0.011050
v 0.114855 0.385541 -0.011050
v -0.045983 0.385194 -0.011050
v 0.016608 0.381939 -0.011050
v 0.177793 0.381939 -0.011050
v 0.111330 0.383141 -0.011050
v -0.049526 0.382812 -0.011050
v 0.108043 0.380446 -0.011050
v -0.052871 0.380175 -0.011050
v 0.021053 0.376857 -0.011050
v 0.182238 0.376857 -0.011050
v 0.105030 0.377453 -0.011050
v -0.055991 0.377289 -0.011050
v 0.102328 0.374160 -0.011050
v -0.058857 0.374160 -0.011050
v 0.024886 0.371076 -0.011050
v 0.186071 0.371076 -0.011050
v 0.133785 0.343482 -0.011050
v 0.033955 0.289927 -0.011050
v -0.027400 0.343482 -0.011050
v 0.028081 0.364666 -0.011050
v 0.189266 0.364666 -0.011050
v 0.030611 0.357696 -0.011050
v 0.191796 0.357696 -0.011050
v 0.032451 0.350236 -0.011050
v 0.193636 0.350236 -0.011050
v 0.033574 0.342355 -0.011050
v 0.194759 0.342355 -0.011050
v -0.134510 0.224154 -0.011050
v -0.027400 0.000315 -0.011050
v 0.033955 0.224154 -0.011050
v 0.133785 0.065829 -0.011050
v 0.033955 0.334123 -0.011050
v 0.195139 0.334123 -0.011050
v 0.195139 0.044771 -0.011050
v -0.134510 0.000315 -0.011050
v 0.033955 0.000315 -0.011050
v 0.134200 0.056948 -0.011050
v 0.135414 0.048428 -0.011050
v 0.137380 0.040347 -0.011050
v 0.251294 0.044771 -0.011050
v 0.250290 0.038762 -0.011050
v 0.140053 0.032783 -0.011050
v 0.248610 0.032992 -0.011050
v 0.246306 0.027515 -0.011050
v 0.143387 0.025815 -0.011050
v 0.243427 0.022384 -0.011050
v 0.147336 0.019521 -0.011050
v 0.240025 0.017654 -0.011050
v 0.151854 0.013979 -0.011050
v 0.236150 0.013379 -0.011050
v 0.156894 0.009270 -0.011050
v 0.231853 0.009613 -0.011050
v 0.227184 0.006410 -0.011050
v 0.162411 0.005470 -0.011050
v 0.222193 0.003825 -0.011050
v 0.168358 0.002658 -0.011050
v 0.216931 0.001911 -0.011050
v 0.174690 0.000914 -0.011050
v 0.211450 0.000723 -0.011050
v 0.181361 0.000315 -0.011050
v 0.205798 0.000315 -0.011050
v -0.134510 0.289927 0.010375
v -0.134510 0.289927 -0.011050
v -0.134510 0.394438 -0.011050
v -0.058857 0.374160 0.010375
v -0.058857 0.374160 -0.011050
v -0.055991 0.377289 0.010375
v -0.055991 0.377289 -0.011050
v -0.052871 0.380175 0.010375
v -0.052871 0.380175 -0.011050
v -0.049526 0.382812 0.010375
v -0.049526 0.382812 -0.011050
v -0.045983 0.385194 0.010375
v -0.045983 0.385194 -0.011050
v -0.042270 0.387316 0.010375
v -0.042270 0.387316 -0.011050
v -0.038416 0.389173 0.010375
v -0.038416 0.389173 -0.011050
v -0.034448 0.390759 0.010375
v -0.034448 0.390759 -0.011050
v -0.030394 0.392069 0.010375
v -0.030394 0.392069 -0.011050
v -0.026283 0.393097 0.010375
v -0.026283 0.393097 -0.011050
v -0.022141 0.393838 0.010375
v -0.022141 0.393838 -0.011050
v -0.017998 0.394287 0.010375
v -0.017998 0.394287 -0.011050
v -0.013881 0.394438 0.010375
v -0.013881 0.394438 -0.011050
v -0.006768 0.393891 0.010375
v -0.006768 0.393891 -0.011050
v -0.000137 0.392299 0.010375
v -0.000137 0.392299 -0.011050
v 0.005987 0.389730 0.010375
v 0.005987 0.389730 -0.011050
v 0.011577 0.386253 0.010375
v 0.011577 0.386253 -0.011050
v 0.016608 0.381939 0.010375
v 0.016608 0.381939 -0.011050
v 0.021053 0.376857 0.010375
v 0.021053 0.376857 -0.011050
v 0.024886 0.371076 0.010375
v 0.024886 0.371076 -0.011050
v 0.028081 0.364666 0.010375
v 0.028081 0.364666 -0.011050
v 0.030611 0.357696 0.010375
v 0.030611 0.357696 -0.011050
v 0.032451 0.350236 0.010375
v 0.032451 0.350236 -0.011050
v 0.033574 0.342355 0.010375
v 0.033574 0.342355 -0.011050
v 0.033955 0.334123 0.010375
v 0.033955 0.334123 -0.011050
v 0.033955 0.289927 0.010375
v 0.033955 0.289927 -0.011050
v 0.102328 0.374160 0.010375
v 0.102328 0.374160 -0.011050
v 0.105030 0.377453 0.010375
v 0.105030 0.377453 -0.011050
v 0.108043 0.380446 0.010375
v 0.108043 0.380446 -0.011050
v 0.111330 0.383141 0.010375
v 0.111330 0.383141 -0.011050
v 0.114855 0.385541 0.010375
v 0.114855 0.385541 -0.011050
v 0.118583 0.387648 0.010375
v 0.118583 0.387648 -0.011050
v 0.122476 0.389466 0.010375
v 0.122476 0.389466 -0.011050
v 0.126500 0.390996 0.010375
v 0.126500 0.390996 -0.011050
v 0.130617 0.392242 0.010375
v 0.130617 0.392242 -0.011050
v 0.134792 0.393207 0.010375
v 0.134792 0.393207 -0.011050
v 0.138989 0.393892 0.010375
v 0.138989 0.393892 -0.011050
v 0.143172 0.394302 0.010375
v 0.143172 0.394302 -0.011050
v 0.147304 0.394438 0.010375
v 0.147304 0.394438 -0.011050
v 0.154416 0.393891 0.010375
v 0.154416 0.393891 -0.011050
v 0.161048 0.392299 0.010375
v 0.161048 0.392299 -0.011050
v 0.167172 0.389730 0.010375
v 0.167172 0.389730 -0.011050
v 0.172762 0.386253 0.010375
v 0.172762 0.386253 -0.011050
v 0.177793 0.381939 0.010375
v 0.177793 0.381939 -0.011050
v 0.182238 0.376857 0.010375
v 0.182238 0.376857 -0.011050
v 0.186071 0.371076 0.010375
v 0.186071 0.371076 -0.011050
v 0.189266 0.364666 0.010375
v 0.189266 0.364666 -0.011050
v 0.191796 0.357696 0.010375
v 0.191796 0.357696 -0.011050
v 0.193636 0.350236 0.010375
v 0.193636 0.350236 -0.011050
v 0.194759 0.342355 0.010375
v 0.194759 0.342355 -0.011050
v 0.195139 0.334123 0.010375
v 0.195139 0.334123 -0.011050
v 0.195139 0.044771 0.010375
v 0.195139 0.044771 -0.011050
v 0.251294 0.044771 0.010375
v 0.251294 0.044771 -0.011050
v 0.250290 0.038762 0.010375
v 0.250290 0.038762 -0.011050
v 0.248610 0.032992 0.010375
v 0.248610 0.032992 -0.011050
v 0.246306 0.027515 0.010375
v 0.246306 0.027515 -0.011050
v 0.243427 0.022384 0.010375
v 0.243427 0.022384 -0.011050
v 0.240025 0.017654 0.010375
v 0.240025 0.017654 -0.011050
v 0.236150 0.013379 0.010375
v 0.236150 0.013379 -0.011050
v 0.231853 0.009613 0.010375
v 0.231853 0.009613 -0.011050
v 0.227184 0.006410 0.010375
v 0.227184 0.006410 -0.011050
v 0.222193 0.003825 0.010375
v 0.222193 0.003825 -0.011050
v 0.216931 0.001911 0.010375
v 0.216931 0.001911 -0.011050
v 0.211450 0.000723 0.010375
v 0.211450 0.000723 -0.011050
v 0.205798 0.000315 0.010375
v 0.205798 0.000315 -0.011050
v 0.181361 0.000315 0.010375
v 0.181361 0.000315 -0.011050
v 0.174690 0.000914 0.010375
v 0.174690 0.000914 -0.011050
v 0.168358 0.002658 0.010375
v 0.168358 0.002658 -0.011050
v 0.162411 0.005470 0.010375
v 0.162411 0.005470 -0.011050
v 0.156894 0.009270 0.010375
v 0.156894 0.009270 -0.011050
v 0.151854 0.013979 0.010375
v 0.151854 0.013979 -0.011050
v 0.147336 0.019521 0.010375
v 0.147336 0.019521 -0.011050
v 0.143387 0.025815 0.010375
v 0.143387 0.025815 -0.011050
v 0.140053 0.032783 0.010375
v 0.140053 0.032783 -0.011050
v 0.137380 0.040347 0.010375
v 0.137380 0.040347 -0.011050
v 0.135414 0.048428 0.010375
v 0.135414 0.048428 -0.011050
v 0.134200 0.056948 0.010375
v 0.134200 0.056948 -0.011050
v 0.133785 0.065829 0.010375
v 0.133785 0.065829 -0.011050
v 0.133785 0.343482 0.010375
v 0.133785 0.343482 -0.011050
v 0.033955 0.224154 0.010375
v 0.033955 0.224154 -0.011050
v 0.033955 0.000315 0.010375
v 0.033955 0.000315 -0.011050
v -0.027400 0.000315 0.010375
v -0.027400 0.000315 -0.011050
v -0.027400 0.343482 0.010375
v -0.027400 0.343482 -0.011050
v -0.134510 0.224154 0.010375
v -0.134510 0.224154 -0.011050
v -0.134510 0.000315 0.010375
v -0.134510 0.000315 -0.011050
v -0.196644 0.000315 0.010375
v -0.196644 0.000315 -0.011050
v -0.196644 0.394438 0.010375
v -0.196644 0.394438 -0.011050
v -0.134510 0.394438 0.010375
vn 0.000000 0.000000 1.000000
vn 0.000000 -0.000000 -1.000000
vn 0.357800 0.933800 0.000000
vn 0.707100 0.707100 0.000000
vn -0.740700 0.671800 0.000000
vn -0.708800 0.705400 0.000000
vn -0.649600 0.760300 0.000000
vn -0.588900 0.808200 0.000000
vn -0.527400 0.849600 0.000000
vn -0.465400 0.885100 0.000000
vn -0.402900 0.915300 0.000000
vn -0.339500 0.940600 0.000000
vn -0.275200 0.961400 0.000000
vn -0.209500 0.977800 0.000000
vn -0.142000 0.989900 0.000000
vn -0.072200 0.997400 0.000000
vn 0.020000 0.999800 0.000000
vn 0.155600 0.987800 0.000000
vn 0.311200 0.950400 0.000000
vn 0.459000 0.888500 0.000000
vn 0.591300 0.806500 0.000000
vn 0.703600 0.710600 0.000000
vn 0.794800 0.606800 0.000000
vn 0.865900 0.500300 0.000000
vn 0.919000 0.394300 0.000000
vn 0.956800 0.290700 0.000000
vn 0.981700 0.190500 0.000000
vn 0.995600 0.093800 0.000000
vn 0.999700 0.023100 0.000000
vn 0.334400 0.942400 0.000000
vn -0.774700 0.632300 0.000000
vn -0.739900 0.672800 0.000000
vn -0.670200 0.742200 0.000000
vn -0.599000 0.800700 0.000000
vn -0.527900 0.849300 0.000000
vn -0.457900 0.889000 0.000000
vn -0.389500 0.921000 0.000000
vn -0.322700 0.946500 0.000000
vn -0.257600 0.966300 0.000000
vn -0.193200 0.981200 0.000000
vn -0.129400 0.991600 0.000000
vn -0.065300 0.997900 0.000000
vn 0.021900 0.999800 0.000000
vn 0.155500 0.987800 0.000000
vn 0.311100 0.950400 0.000000
vn 0.956800 0.290800 0.000000
vn 0.995600 0.093700 0.000000
vn 0.763100 0.646200 0.000000
vn 0.763200 0.646200 0.000000
vn 0.974900 -0.222600 0.000000
vn 0.942500 -0.334200 0.000000
vn 0.898400 -0.439200 0.000000
vn 0.843300 -0.537500 0.000000
vn 0.777600 -0.628700 0.000000
vn 0.701200 -0.713000 0.000000
vn 0.613500 -0.789700 0.000000
vn 0.513800 -0.857900 0.000000
vn 0.401700 -0.915800 0.000000
vn 0.277500 -0.960700 0.000000
vn 0.142300 -0.989800 0.000000
vn 0.036000 -0.999400 0.000000
vn -0.044800 -0.999000 0.000000
vn -0.178200 -0.984000 0.000000
vn -0.347800 -0.937600 0.000000
vn -0.499000 -0.866600 0.000000
vn -0.626700 -0.779300 0.000000
vn -0.730600 -0.682800 0.000000
vn -0.812600 -0.582800 0.000000
vn -0.876000 -0.482300 0.000000
vn -0.923800 -0.382900 0.000000
vn -0.958500 -0.285200 0.000000
vn -0.982000 -0.189000 0.000000
vn -0.982000 -0.188900 0.000000
vn -0.995600 -0.094000 0.000000
vn -0.999700 -0.023300 0.000000
vn -0.341300 -0.939900 0.000000
vn 0.939900 -0.341300 0.000000
vn 0.707100 -0.707100 0.000000
vn -0.707100 -0.707100 0.000000
vn -0.357600 -0.933900 0.000000
vn 0.933900 -0.357600 0.000000
vn -0.707100 0.707100 0.000000
usemtl Material.005
s off
f 1//1 2//1 3//1
f 1//1 4//1 2//1
f 5//1 6//1 7//1
f 8//1 9//1 10//1
f 11//1 9//1 8//1
f 12//1 6//1 5//1
f 13//1 9//1 11//1
f 12//1 14//1 6//1
f 13//1 15//1 9//1
f 16//1 14//1 12//1
f 17//1 15//1 13//1
f 18//1 14//1 16//1
f 18//1 19//1 14//1
f 17//1 20//1 15//1
f 21//1 20//1 17//1
f 22//1 19//1 18//1
f 23//1 20//1 21//1
f 24//1 19//1 22//1
f 24//1 25//1 19//1
f 23//1 26//1 20//1
f 27//1 26//1 23//1
f 28//1 25//1 24//1
f 29//1 26//1 27//1
f 30//1 25//1 28//1
f 30//1 31//1 25//1
f 29//1 32//1 26//1
f 33//1 32//1 29//1
f 34//1 31//1 30//1
f 35//1 32//1 33//1
f 36//1 31//1 34//1
f 36//1 37//1 31//1
f 35//1 38//1 32//1
f 39//1 38//1 35//1
f 40//1 37//1 36//1
f 41//1 38//1 39//1
f 42//1 37//1 40//1
f 42//1 43//1 37//1
f 41//1 44//1 38//1
f 4//1 43//1 42//1
f 45//1 46//1 41//1
f 46//1 44//1 41//1
f 4//1 47//1 43//1
f 47//1 48//1 43//1
f 46//1 49//1 44//1
f 47//1 50//1 48//1
f 46//1 51//1 49//1
f 47//1 52//1 50//1
f 46//1 53//1 51//1
f 47//1 54//1 52//1
f 46//1 55//1 53//1
f 4//1 56//1 47//1
f 57//1 54//1 47//1
f 45//1 58//1 46//1
f 59//1 55//1 46//1
f 57//1 60//1 54//1
f 59//1 61//1 55//1
f 57//1 45//1 60//1
f 59//1 62//1 61//1
f 1//1 56//1 4//1
f 57//1 58//1 45//1
f 1//1 63//1 56//1
f 57//1 64//1 58//1
f 65//1 62//1 59//1
f 66//1 62//1 65//1
f 67//1 62//1 66//1
f 67//1 68//1 62//1
f 67//1 69//1 68//1
f 70//1 69//1 67//1
f 70//1 71//1 69//1
f 70//1 72//1 71//1
f 73//1 72//1 70//1
f 73//1 74//1 72//1
f 75//1 74//1 73//1
f 75//1 76//1 74//1
f 77//1 76//1 75//1
f 77//1 78//1 76//1
f 79//1 78//1 77//1
f 79//1 80//1 78//1
f 79//1 81//1 80//1
f 82//1 81//1 79//1
f 82//1 83//1 81//1
f 84//1 83//1 82//1
f 84//1 85//1 83//1
f 86//1 85//1 84//1
f 86//1 87//1 85//1
f 88//1 87//1 86//1
f 88//1 89//1 87//1
f 90//2 91//2 92//2
f 93//2 91//2 90//2
f 94//2 95//2 96//2
f 97//2 98//2 99//2
f 97//2 100//2 98//2
f 94//2 101//2 95//2
f 97//2 102//2 100//2
f 103//2 101//2 94//2
f 104//2 102//2 97//2
f 103//2 105//2 101//2
f 104//2 106//2 102//2
f 103//2 107//2 105//2
f 108//2 107//2 103//2
f 109//2 106//2 104//2
f 109//2 110//2 106//2
f 108//2 111//2 107//2
f 109//2 112//2 110//2
f 108//2 113//2 111//2
f 114//2 113//2 108//2
f 115//2 112//2 109//2
f 115//2 116//2 112//2
f 114//2 117//2 113//2
f 115//2 118//2 116//2
f 114//2 119//2 117//2
f 120//2 119//2 114//2
f 121//2 118//2 115//2
f 121//2 122//2 118//2
f 120//2 123//2 119//2
f 121//2 124//2 122//2
f 120//2 125//2 123//2
f 126//2 125//2 120//2
f 127//2 124//2 121//2
f 127//2 128//2 124//2
f 126//2 129//2 125//2
f 127//2 130//2 128//2
f 126//2 131//2 129//2
f 132//2 131//2 126//2
f 133//2 130//2 127//2
f 132//2 93//2 131//2
f 134//2 135//2 130//2
f 133//2 134//2 130//2
f 136//2 93//2 132//2
f 137//2 136//2 132//2
f 138//2 134//2 133//2
f 139//2 136//2 137//2
f 140//2 134//2 138//2
f 141//2 136//2 139//2
f 142//2 134//2 140//2
f 143//2 136//2 141//2
f 144//2 134//2 142//2
f 145//2 93//2 136//2
f 143//2 146//2 136//2
f 147//2 135//2 134//2
f 144//2 148//2 134//2
f 149//2 146//2 143//2
f 150//2 148//2 144//2
f 135//2 146//2 149//2
f 151//2 148//2 150//2
f 145//2 91//2 93//2
f 147//2 146//2 135//2
f 152//2 91//2 145//2
f 153//2 146//2 147//2
f 151//2 154//2 148//2
f 151//2 155//2 154//2
f 151//2 156//2 155//2
f 157//2 156//2 151//2
f 158//2 156//2 157//2
f 158//2 159//2 156//2
f 160//2 159//2 158//2
f 161//2 159//2 160//2
f 161//2 162//2 159//2
f 163//2 162//2 161//2
f 163//2 164//2 162//2
f 165//2 164//2 163//2
f 165//2 166//2 164//2
f 167//2 166//2 165//2
f 167//2 168//2 166//2
f 169//2 168//2 167//2
f 170//2 168//2 169//2
f 170//2 171//2 168//2
f 172//2 171//2 170//2
f 172//2 173//2 171//2
f 174//2 173//2 172//2
f 174//2 175//2 173//2
f 176//2 175//2 174//2
f 176//2 177//2 175//2
f 178//2 177//2 176//2
s 1
f 179//3 180//3 181//4
f 182//5 183//5 180//3
f 184//6 185//6 183//5
f 184//6 186//7 187//7
f 188//8 189//8 187//7
f 190//9 191//9 189//8
f 192//10 193//10 191//9
f 194//11 195//11 193//10
f 196//12 197//12 195//11
f 198//13 199//13 197//12
f 200//14 201//14 199//13
f 202//15 203//15 201//14
f 204//16 205//16 203//15
f 206//17 207//17 205//16
f 208//18 209//18 207//17
f 210//19 211//19 209//18
f 212//20 213//20 211//19
f 214//21 215//21 213//20
f 216//22 217//22 215//21
f 218//23 219//23 217//22
f 220//24 221//24 219//23
f 222//25 223//25 221//24
f 224//26 225//26 223//25
f 226//27 227//27 225//26
f 228//28 229//28 227//27
f 230//29 231//29 229//28
f 232//30 233//30 231//29
f 234//31 235//31 233//30
f 236//32 237//32 235//31
f 238//33 239//33 237//32
f 240//34 241//34 239//33
f 242//35 243//35 241//34
f 244//36 245//36 243//35
f 246//37 247//37 245//36
f 248//38 249//38 247//37
f 250//39 251//39 249//38
f 252//40 253//40 251//39
f 254//41 255//41 253//40
f 256//42 257//42 255//41
f 258//43 259//43 257//42
f 260//44 261//44 259//43
f 262//45 263//45 261//44
f 264//20 265//20 263//45
f 266//21 267//21 265//20
f 268//22 269//22 267//21
f 270//23 271//23 269//22
f 272//24 273//24 271//23
f 274//25 275//25 273//24
f 276//26 277//46 275//25
f 278//27 279//27 277//46
f 280//47 281//47 279//27
f 282//29 283//29 281//47
f 284//4 285//4 283//29
f 286//48 287//49 285//4
f 288//50 289//50 287//49
f 290//51 291//51 289//50
f 292//52 293//52 291//51
f 294//53 295//53 293//52
f 296//54 297//54 295//53
f 298//55 299//55 297//54
f 300//56 301//56 299//55
f 302//57 303//57 301//56
f 304//58 305//58 303//57
f 306//59 307//59 305//58
f 308//60 309//60 307//59
f 310//61 311//61 309//60
f 312//62 313//62 311//61
f 314//63 315//63 313//62
f 316//64 317//64 315//63
f 318//65 319//65 317//64
f 320//66 321//66 319//65
f 322//67 323//67 321//66
f 324//68 325//68 323//67
f 326//69 327//69 325//68
f 328//70 329//70 327//69
f 328//70 330//71 331//71
f 332//72 333//73 331//71
f 334//74 335//74 333//73
f 336//75 337//75 335//74
f 338//76 339//76 337//75
f 340//77 341//77 339//76
f 340//77 342//78 343//78
f 344//79 345//79 343//78
f 346//80 347//80 345//79
f 348//81 349//81 347//80
f 348//81 350//78 351//78
f 352//79 353//79 351//78
f 354//82 355//82 353//79
f 356//4 181//4 355//82
f 356//4 179//3 181//4
f 179//3 182//5 180//3
f 182//5 184//6 183//5
f 185//6 184//6 187//7
f 186//7 188//8 187//7
f 188//8 190//9 189//8
f 190//9 192//10 191//9
f 192//10 194//11 193//10
f 194//11 196//12 195//11
f 196//12 198//13 197//12
f 198//13 200//14 199//13
f 200//14 202//15 201//14
f 202//15 204//16 203//15
f 204//16 206//17 205//16
f 206//17 208//18 207//17
f 208//18 210//19 209//18
f 210//19 212//20 211//19
f 212//20 214//21 213//20
f 214//21 216//22 215//21
f 216//22 218//23 217//22
f 218//23 220//24 219//23
f 220//24 222//25 221//24
f 222//25 224//26 223//25
f 224//26 226//27 225//26
f 226//27 228//28 227//27
f 228//28 230//29 229//28
f 230//29 232//30 231//29
f 232//30 234//31 233//30
f 234//31 236//32 235//31
f 236//32 238//33 237//32
f 238//33 240//34 239//33
f 240//34 242//35 241//34
f 242//35 244//36 243//35
f 244//36 246//37 245//36
f 246//37 248//38 247//37
f 248//38 250//39 249//38
f 250//39 252//40 251//39
f 252//40 254//41 253//40
f 254//41 256//42 255//41
f 256//42 258//43 257//42
f 258//43 260//44 259//43
f 260//44 262//45 261//44
f 262//45 264//20 263//45
f 264//20 266//21 265//20
f 266//21 268//22 267//21
f 268//22 270//23 269//22
f 270//23 272//24 271//23
f 272//24 274//25 273//24
f 274//25 276//26 275//25
f 276//26 278//27 277//46
f 278//27 280//47 279//27
f 280//47 282//29 281//47
f 282//29 284//4 283//29
f 284//4 286//48 285//4
f 286//48 288//50 287//49
f 288//50 290//51 289//50
f 290//51 292//52 291//51
f 292//52 294//53 293//52
f 294//53 296//54 295//53
f 296//54 298//55 297//54
f 298//55 300//56 299//55
f 300//56 302//57 301//56
f 302//57 304//58 303//57
f 304//58 306//59 305//58
f 306//59 308//60 307//59
f 308//60 310//61 309//60
f 310//61 312//62 311//61
f 312//62 314//63 313//62
f 314//63 316//64 315//63
f 316//64 318//65 317//64
f 318//65 320//66 319//65
f 320//66 322//67 321//66
f 322//67 324//68 323//67
f 324//68 326//69 325//68
f 326//69 328//70 327//69
f 329//70 328//70 331//71
f 330//71 332//72 331//71
f 332//72 334//74 333//73
f 334//74 336//75 335//74
f 336//75 338//76 337//75
f 338//76 340//77 339//76
f 341//77 340//77 343//78
f 342//78 344//79 343//78
f 344//79 346//80 345//79
f 346//80 348//81 347//80
f 349//81 348//81 351//78
f 350//78 352//79 351//78
f 352//79 354//82 353//79
f 354//82 356//4 355//82
