# Blender v2.76 (sub 0) OBJ File: ''
# www.blender.org
mtllib W.mtl
o Text.001_Text.007
v -0.218239 0.394290 0.010375
v -0.127316 0.394698 0.010375
v -0.212588 0.394698 0.010375
v -0.189450 0.350242 0.010375
v -0.127316 0.045031 0.010375
v -0.031125 0.045031 0.010375
v 0.031269 0.394698 0.010375
v -0.031125 0.394698 0.010375
v 0.031269 0.045031 0.010375
v 0.127460 0.045031 0.010375
v 0.189594 0.394698 0.010375
v 0.127460 0.394698 0.010375
v 0.189594 0.066349 0.010375
v -0.223721 0.393102 0.010375
v -0.228983 0.391188 0.010375
v -0.233973 0.388603 0.010375
v -0.238643 0.385400 0.010375
v -0.242940 0.381634 0.010375
v -0.246815 0.377359 0.010375
v -0.250217 0.372629 0.010375
v -0.253095 0.367498 0.010375
v -0.255400 0.362020 0.010375
v -0.257079 0.356250 0.010375
v -0.258084 0.350242 0.010375
v -0.189450 0.066349 0.010375
v -0.188995 0.057404 0.010375
v 0.189143 0.057404 0.010375
v -0.187668 0.048820 0.010375
v 0.187829 0.048820 0.010375
v -0.185530 0.040676 0.010375
v 0.185711 0.040676 0.010375
v -0.182643 0.033053 0.010375
v 0.182844 0.033053 0.010375
v -0.179066 0.026028 0.010375
v -0.000188 0.032552 0.010375
v 0.179288 0.026028 0.010375
v -0.002790 0.027767 0.010375
v 0.002414 0.027767 0.010375
v -0.005642 0.023303 0.010375
v 0.005265 0.023303 0.010375
v -0.174859 0.019683 0.010375
v 0.175100 0.019683 0.010375
v -0.008723 0.019179 0.010375
v 0.008346 0.019179 0.010375
v -0.170084 0.014096 0.010375
v 0.170338 0.014096 0.010375
v 0.011636 0.015413 0.010375
v -0.012012 0.015413 0.010375
v -0.015490 0.012022 0.010375
v 0.015113 0.012022 0.010375
v -0.164801 0.009347 0.010375
v 0.165060 0.009347 0.010375
v -0.019134 0.009024 0.010375
v 0.018758 0.009024 0.010375
v -0.159070 0.005514 0.010375
v 0.159323 0.005514 0.010375
v -0.022924 0.006438 0.010375
v 0.022548 0.006438 0.010375
v -0.026840 0.004282 0.010375
v 0.026464 0.004282 0.010375
v -0.152951 0.002679 0.010375
v 0.153185 0.002679 0.010375
v -0.030861 0.002573 0.010375
v 0.030485 0.002573 0.010375
v -0.146506 0.000919 0.010375
v 0.146705 0.000919 0.010375
v -0.034966 0.001331 0.010375
v 0.034590 0.001331 0.010375
v -0.039134 0.000572 0.010375
v 0.038757 0.000572 0.010375
v -0.139795 0.000315 0.010375
v 0.139939 0.000315 0.010375
v -0.043344 0.000315 0.010375
v 0.042968 0.000315 0.010375
v -0.127316 0.394698 -0.011050
v -0.218239 0.394290 -0.011050
v -0.212588 0.394698 -0.011050
v -0.189450 0.350242 -0.011050
v -0.127316 0.045031 -0.011050
v 0.031269 0.394698 -0.011050
v -0.031125 0.045031 -0.011050
v -0.031125 0.394698 -0.011050
v 0.031269 0.045031 -0.011050
v 0.189594 0.394698 -0.011050
v 0.127460 0.045031 -0.011050
v 0.127460 0.394698 -0.011050
v 0.189594 0.066349 -0.011050
v -0.223721 0.393102 -0.011050
v -0.228983 0.391188 -0.011050
v -0.233973 0.388603 -0.011050
v -0.238643 0.385400 -0.011050
v -0.242940 0.381634 -0.011050
v -0.246815 0.377359 -0.011050
v -0.250217 0.372629 -0.011050
v -0.253095 0.367498 -0.011050
v -0.255400 0.362020 -0.011050
v -0.257079 0.356250 -0.011050
v -0.258084 0.350242 -0.011050
v -0.189450 0.066349 -0.011050
v -0.188995 0.057404 -0.011050
v 0.189143 0.057404 -0.011050
v -0.187668 0.048820 -0.011050
v 0.187829 0.048820 -0.011050
v -0.185530 0.040676 -0.011050
v 0.185711 0.040676 -0.011050
v -0.182643 0.033053 -0.011050
v 0.182844 0.033053 -0.011050
v -0.000188 0.032552 -0.011050
v -0.179066 0.026028 -0.011050
v 0.179288 0.026028 -0.011050
v -0.002790 0.027767 -0.011050
v 0.002414 0.027767 -0.011050
v -0.005642 0.023303 -0.011050
v 0.005265 0.023303 -0.011050
v -0.174859 0.019683 -0.011050
v 0.175100 0.019683 -0.011050
v -0.008723 0.019179 -0.011050
v 0.008346 0.019179 -0.011050
v -0.170084 0.014096 -0.011050
v 0.170338 0.014096 -0.011050
v 0.011636 0.015413 -0.011050
v -0.012012 0.015413 -0.011050
v -0.015490 0.012022 -0.011050
v 0.015113 0.012022 -0.011050
v -0.164801 0.009347 -0.011050
v 0.165060 0.009347 -0.011050
v -0.019134 0.009024 -0.011050
v 0.018758 0.009024 -0.011050
v -0.159070 0.005514 -0.011050
v 0.159323 0.005514 -0.011050
v -0.022924 0.006438 -0.011050
v 0.022548 0.006438 -0.011050
v -0.026840 0.004282 -0.011050
v 0.026464 0.004282 -0.011050
v -0.152951 0.002679 -0.011050
v 0.153185 0.002679 -0.011050
v -0.030861 0.002573 -0.011050
v 0.030485 0.002573 -0.011050
v -0.146506 0.000919 -0.011050
v 0.146705 0.000919 -0.011050
v -0.034966 0.001331 -0.011050
v 0.034590 0.001331 -0.011050
v -0.039134 0.000572 -0.011050
v 0.038757 0.000572 -0.011050
v -0.139795 0.000315 -0.011050
v 0.139939 0.000315 -0.011050
v -0.043344 0.000315 -0.011050
v 0.042968 0.000315 -0.011050
v -0.257079 0.356250 0.010375
v -0.257079 0.356250 -0.011050
v -0.258084 0.350242 -0.011050
v -0.255400 0.362020 0.010375
v -0.255400 0.362020 -0.011050
v -0.253095 0.367498 0.010375
v -0.253095 0.367498 -0.011050
v -0.250217 0.372629 0.010375
v -0.250217 0.372629 -0.011050
v -0.246815 0.377359 0.010375
v -0.246815 0.377359 -0.011050
v -0.242940 0.381634 0.010375
v -0.242940 0.381634 -0.011050
v -0.238643 0.385400 0.010375
v -0.238643 0.385400 -0.011050
v -0.233973 0.388603 0.010375
v -0.233973 0.388603 -0.011050
v -0.228983 0.391188 0.010375
v -0.228983 0.391188 -0.011050
v -0.223721 0.393102 0.010375
v -0.223721 0.393102 -0.011050
v -0.218239 0.394290 0.010375
v -0.218239 0.394290 -0.011050
v -0.212588 0.394698 0.010375
v -0.212588 0.394698 -0.011050
v -0.127316 0.394698 0.010375
v -0.127316 0.394698 -0.011050
v -0.127316 0.045031 0.010375
v -0.127316 0.045031 -0.011050
v -0.031125 0.045031 0.010375
v -0.031125 0.045031 -0.011050
v -0.031125 0.394698 0.010375
v -0.031125 0.394698 -0.011050
v 0.031269 0.394698 0.010375
v 0.031269 0.394698 -0.011050
v 0.031269 0.045031 0.010375
v 0.031269 0.045031 -0.011050
v 0.127460 0.045031 0.010375
v 0.127460 0.045031 -0.011050
v 0.127460 0.394698 0.010375
v 0.127460 0.394698 -0.011050
v 0.189594 0.394698 0.010375
v 0.189594 0.394698 -0.011050
v 0.189594 0.066349 0.010375
v 0.189594 0.066349 -0.011050
v 0.189143 0.057404 0.010375
v 0.189143 0.057404 -0.011050
v 0.187829 0.048820 0.010375
v 0.187829 0.048820 -0.011050
v 0.185711 0.040676 0.010375
v 0.185711 0.040676 -0.011050
v 0.182844 0.033053 0.010375
v 0.182844 0.033053 -0.011050
v 0.179288 0.026028 0.010375
v 0.179288 0.026028 -0.011050
v 0.175100 0.019683 0.010375
v 0.175100 0.019683 -0.011050
v 0.170338 0.014096 0.010375
v 0.170338 0.014096 -0.011050
v 0.165060 0.009347 0.010375
v 0.165060 0.009347 -0.011050
v 0.159323 0.005514 0.010375
v 0.159323 0.005514 -0.011050
v 0.153185 0.002679 0.010375
v 0.153185 0.002679 -0.011050
v 0.146705 0.000919 0.010375
v 0.146705 0.000919 -0.011050
v 0.139939 0.000315 0.010375
v 0.139939 0.000315 -0.011050
v 0.042968 0.000315 0.010375
v 0.042968 0.000315 -0.011050
v 0.038757 0.000572 0.010375
v 0.038757 0.000572 -0.011050
v 0.034590 0.001331 0.010375
v 0.034590 0.001331 -0.011050
v 0.030485 0.002573 0.010375
v 0.030485 0.002573 -0.011050
v 0.026464 0.004282 0.010375
v 0.026464 0.004282 -0.011050
v 0.022548 0.006438 0.010375
v 0.022548 0.006438 -0.011050
v 0.018758 0.009024 0.010375
v 0.018758 0.009024 -0.011050
v 0.015113 0.012022 0.010375
v 0.015113 0.012022 -0.011050
v 0.011636 0.015413 0.010375
v 0.011636 0.015413 -0.011050
v 0.008346 0.019179 0.010375
v 0.008346 0.019179 -0.011050
v 0.005265 0.023303 0.010375
v 0.005265 0.023303 -0.011050
v 0.002414 0.027767 0.010375
v 0.002414 0.027767 -0.011050
v -0.000188 0.032552 0.010375
v -0.000188 0.032552 -0.011050
v -0.002790 0.027767 0.010375
v -0.002790 0.027767 -0.011050
v -0.005642 0.023303 0.010375
v -0.005642 0.023303 -0.011050
v -0.008723 0.019179 0.010375
v -0.008723 0.019179 -0.011050
v -0.012012 0.015413 0.010375
v -0.012012 0.015413 -0.011050
v -0.015490 0.012022 0.010375
v -0.015490 0.012022 -0.011050
v -0.019134 0.009024 0.010375
v -0.019134 0.009024 -0.011050
v -0.022924 0.006438 0.010375
v -0.022924 0.006438 -0.011050
v -0.026840 0.004282 0.010375
v -0.026840 0.004282 -0.011050
v -0.030861 0.002573 0.010375
v -0.030861 0.002573 -0.011050
v -0.034966 0.001331 0.010375
v -0.034966 0.001331 -0.011050
v -0.039134 0.000572 0.010375
v -0.039134 0.000572 -0.011050
v -0.043344 0.000315 0.010375
v -0.043344 0.000315 -0.011050
v -0.139795 0.000315 0.010375
v -0.139795 0.000315 -0.011050
v -0.146506 0.000919 0.010375
v -0.146506 0.000919 -0.011050
v -0.152951 0.002679 0.010375
v -0.152951 0.002679 -0.011050
v -0.159070 0.005514 0.010375
v -0.159070 0.005514 -0.011050
v -0.164801 0.009347 0.010375
v -0.164801 0.009347 -0.011050
v -0.170084 0.014096 0.010375
v -0.170084 0.014096 -0.011050
v -0.174859 0.019683 0.010375
v -0.174859 0.019683 -0.011050
v -0.179066 0.026028 0.010375
v -0.179066 0.026028 -0.011050
v -0.182643 0.033053 0.010375
v -0.182643 0.033053 -0.011050
v -0.185530 0.040676 0.010375
v -0.185530 0.040676 -0.011050
v -0.187668 0.048820 0.010375
v -0.187668 0.048820 -0.011050
v -0.188995 0.057404 0.010375
v -0.188995 0.057404 -0.011050
v -0.189450 0.066349 0.010375
v -0.189450 0.066349 -0.011050
v -0.189450 0.350242 0.010375
v -0.189450 0.350242 -0.011050
v -0.258084 0.350242 0.010375
vn 0.000000 0.000000 1.000000
vn 0.000000 0.000000 -1.000000
vn -0.974900 0.222600 0.000000
vn -0.763200 -0.646100 0.000000
vn -0.942500 0.334200 0.000000
vn -0.898400 0.439200 0.000000
vn -0.843300 0.537400 0.000000
vn -0.777600 0.628700 0.000000
vn -0.701200 0.713000 0.000000
vn -0.613400 0.789700 0.000000
vn -0.513800 0.857900 0.000000
vn -0.401700 0.915800 0.000000
vn -0.277400 0.960700 0.000000
vn -0.142300 0.989800 0.000000
vn -0.036000 0.999400 0.000000
vn 0.707100 0.707100 0.000000
vn -0.707100 0.707100 0.000000
vn 0.999700 -0.025200 0.000000
vn 0.994900 -0.101000 0.000000
vn 0.979400 -0.201800 0.000000
vn 0.953200 -0.302300 0.000000
vn 0.915500 -0.402400 0.000000
vn 0.864800 -0.502100 0.000000
vn 0.799300 -0.600900 0.000000
vn 0.716500 -0.697600 0.000000
vn 0.613800 -0.789500 0.000000
vn 0.488900 -0.872300 0.000000
vn 0.341900 -0.939700 0.000000
vn 0.176200 -0.984400 0.000000
vn 0.044500 -0.999000 0.000000
vn -0.030500 -0.999500 0.000000
vn -0.120300 -0.992700 0.000000
vn -0.234800 -0.972000 0.000000
vn -0.340900 -0.940100 0.000000
vn -0.437300 -0.899300 0.000000
vn -0.523600 -0.852000 0.000000
vn -0.600000 -0.800000 0.000000
vn -0.667300 -0.744800 0.000000
vn -0.726200 -0.687500 0.000000
vn -0.777700 -0.628700 0.000000
vn -0.822500 -0.568800 0.000000
vn -0.861200 -0.508300 0.000000
vn 0.000000 -1.000000 0.000000
vn 0.861100 -0.508400 0.000000
vn 0.822500 -0.568800 0.000000
vn 0.777700 -0.628600 0.000000
vn 0.726200 -0.687500 0.000000
vn 0.667300 -0.744800 0.000000
vn 0.600100 -0.799900 0.000000
vn 0.523600 -0.852000 0.000000
vn 0.437300 -0.899300 0.000000
vn 0.340900 -0.940100 0.000000
vn 0.234800 -0.972100 0.000000
vn 0.120300 -0.992700 0.000000
vn 0.030500 -0.999500 0.000000
vn -0.044900 -0.999000 0.000000
vn -0.177200 -0.984200 0.000000
vn -0.343100 -0.939300 0.000000
vn -0.489600 -0.871900 0.000000
vn -0.613800 -0.789500 0.000000
vn -0.715900 -0.698200 0.000000
vn -0.798300 -0.602300 0.000000
vn -0.863700 -0.504000 0.000000
vn -0.914500 -0.404600 0.000000
vn -0.952500 -0.304500 0.000000
vn -0.979100 -0.203600 0.000000
vn -0.979000 -0.203600 0.000000
vn -0.994800 -0.101900 0.000000
vn -0.999700 -0.025400 0.000000
vn -0.707100 -0.707100 0.000000
vn -0.763200 -0.646200 0.000000
usemtl Material.008
s off
f 1//1 2//1 3//1
f 1//1 4//1 2//1
f 4//1 5//1 2//1
f 6//1 7//1 8//1
f 6//1 9//1 7//1
f 10//1 11//1 12//1
f 10//1 13//1 11//1
f 14//1 4//1 1//1
f 15//1 4//1 14//1
f 16//1 4//1 15//1
f 17//1 4//1 16//1
f 18//1 4//1 17//1
f 19//1 4//1 18//1
f 20//1 4//1 19//1
f 21//1 4//1 20//1
f 22//1 4//1 21//1
f 23//1 4//1 22//1
f 24//1 4//1 23//1
f 25//1 5//1 4//1
f 26//1 5//1 25//1
f 10//1 27//1 13//1
f 28//1 5//1 26//1
f 10//1 29//1 27//1
f 30//1 5//1 28//1
f 10//1 31//1 29//1
f 30//1 6//1 5//1
f 30//1 9//1 6//1
f 30//1 10//1 9//1
f 30//1 31//1 10//1
f 32//1 31//1 30//1
f 32//1 33//1 31//1
f 34//1 35//1 32//1
f 35//1 33//1 32//1
f 35//1 36//1 33//1
f 34//1 37//1 35//1
f 38//1 36//1 35//1
f 34//1 39//1 37//1
f 40//1 36//1 38//1
f 41//1 39//1 34//1
f 40//1 42//1 36//1
f 41//1 43//1 39//1
f 44//1 42//1 40//1
f 45//1 43//1 41//1
f 44//1 46//1 42//1
f 47//1 46//1 44//1
f 45//1 48//1 43//1
f 45//1 49//1 48//1
f 50//1 46//1 47//1
f 51//1 49//1 45//1
f 50//1 52//1 46//1
f 51//1 53//1 49//1
f 54//1 52//1 50//1
f 55//1 53//1 51//1
f 54//1 56//1 52//1
f 55//1 57//1 53//1
f 58//1 56//1 54//1
f 55//1 59//1 57//1
f 60//1 56//1 58//1
f 61//1 59//1 55//1
f 60//1 62//1 56//1
f 61//1 63//1 59//1
f 64//1 62//1 60//1
f 65//1 63//1 61//1
f 64//1 66//1 62//1
f 65//1 67//1 63//1
f 68//1 66//1 64//1
f 65//1 69//1 67//1
f 70//1 66//1 68//1
f 71//1 69//1 65//1
f 70//1 72//1 66//1
f 71//1 73//1 69//1
f 74//1 72//1 70//1
f 75//2 76//2 77//2
f 78//2 76//2 75//2
f 79//2 78//2 75//2
f 80//2 81//2 82//2
f 83//2 81//2 80//2
f 84//2 85//2 86//2
f 87//2 85//2 84//2
f 78//2 88//2 76//2
f 78//2 89//2 88//2
f 78//2 90//2 89//2
f 78//2 91//2 90//2
f 78//2 92//2 91//2
f 78//2 93//2 92//2
f 78//2 94//2 93//2
f 78//2 95//2 94//2
f 78//2 96//2 95//2
f 78//2 97//2 96//2
f 78//2 98//2 97//2
f 79//2 99//2 78//2
f 79//2 100//2 99//2
f 101//2 85//2 87//2
f 79//2 102//2 100//2
f 103//2 85//2 101//2
f 79//2 104//2 102//2
f 105//2 85//2 103//2
f 81//2 104//2 79//2
f 83//2 104//2 81//2
f 85//2 104//2 83//2
f 105//2 104//2 85//2
f 105//2 106//2 104//2
f 107//2 106//2 105//2
f 108//2 109//2 106//2
f 107//2 108//2 106//2
f 110//2 108//2 107//2
f 111//2 109//2 108//2
f 110//2 112//2 108//2
f 113//2 109//2 111//2
f 110//2 114//2 112//2
f 113//2 115//2 109//2
f 116//2 114//2 110//2
f 117//2 115//2 113//2
f 116//2 118//2 114//2
f 117//2 119//2 115//2
f 120//2 118//2 116//2
f 120//2 121//2 118//2
f 122//2 119//2 117//2
f 123//2 119//2 122//2
f 120//2 124//2 121//2
f 123//2 125//2 119//2
f 126//2 124//2 120//2
f 127//2 125//2 123//2
f 126//2 128//2 124//2
f 127//2 129//2 125//2
f 130//2 128//2 126//2
f 131//2 129//2 127//2
f 130//2 132//2 128//2
f 133//2 129//2 131//2
f 130//2 134//2 132//2
f 133//2 135//2 129//2
f 136//2 134//2 130//2
f 137//2 135//2 133//2
f 136//2 138//2 134//2
f 137//2 139//2 135//2
f 140//2 138//2 136//2
f 141//2 139//2 137//2
f 140//2 142//2 138//2
f 143//2 139//2 141//2
f 140//2 144//2 142//2
f 143//2 145//2 139//2
f 146//2 144//2 140//2
f 147//2 145//2 143//2
f 146//2 148//2 144//2
s 1
f 149//3 150//3 151//4
f 152//5 153//5 150//3
f 154//6 155//6 153//5
f 156//7 157//7 155//6
f 158//8 159//8 157//7
f 160//9 161//9 159//8
f 162//10 163//10 161//9
f 164//11 165//11 163//10
f 166//12 167//12 165//11
f 168//13 169//13 167//12
f 170//14 171//14 169//13
f 172//15 173//15 171//14
f 174//16 175//16 173//15
f 176//16 177//16 175//16
f 178//17 179//17 177//16
f 180//17 181//17 179//17
f 182//16 183//16 181//17
f 184//16 185//16 183//16
f 186//17 187//17 185//16
f 188//17 189//17 187//17
f 190//16 191//16 189//17
f 192//18 193//18 191//16
f 194//19 195//19 193//18
f 196//20 197//20 195//19
f 198//21 199//21 197//20
f 200//22 201//22 199//21
f 202//23 203//23 201//22
f 204//24 205//24 203//23
f 206//25 207//25 205//24
f 208//26 209//26 207//25
f 210//27 211//27 209//26
f 212//28 213//28 211//27
f 214//29 215//29 213//28
f 216//30 217//30 215//29
f 218//31 219//31 217//30
f 220//32 221//32 219//31
f 222//33 223//33 221//32
f 224//34 225//34 223//33
f 226//35 227//35 225//34
f 228//36 229//36 227//35
f 230//37 231//37 229//36
f 232//38 233//38 231//37
f 234//39 235//39 233//38
f 236//40 237//40 235//39
f 238//41 239//41 237//40
f 240//42 241//42 239//41
f 242//43 243//43 241//42
f 244//44 245//44 243//43
f 246//45 247//45 245//44
f 248//46 249//46 247//45
f 250//47 251//47 249//46
f 252//48 253//48 251//47
f 254//49 255//49 253//48
f 256//50 257//50 255//49
f 258//51 259//51 257//50
f 260//52 261//52 259//51
f 262//53 263//53 261//52
f 264//54 265//54 263//53
f 266//55 267//55 265//54
f 268//56 269//56 267//55
f 270//57 271//57 269//56
f 272//58 273//58 271//57
f 274//59 275//59 273//58
f 276//60 277//60 275//59
f 278//61 279//61 277//60
f 280//62 281//62 279//61
f 282//63 283//63 281//62
f 284//64 285//64 283//63
f 286//65 287//65 285//64
f 288//66 289//67 287//65
f 290//68 291//68 289//67
f 290//68 292//69 293//69
f 294//70 295//70 293//69
f 296//71 151//4 295//70
f 296//71 149//3 151//4
f 149//3 152//5 150//3
f 152//5 154//6 153//5
f 154//6 156//7 155//6
f 156//7 158//8 157//7
f 158//8 160//9 159//8
f 160//9 162//10 161//9
f 162//10 164//11 163//10
f 164//11 166//12 165//11
f 166//12 168//13 167//12
f 168//13 170//14 169//13
f 170//14 172//15 171//14
f 172//15 174//16 173//15
f 174//16 176//16 175//16
f 176//16 178//17 177//16
f 178//17 180//17 179//17
f 180//17 182//16 181//17
f 182//16 184//16 183//16
f 184//16 186//17 185//16
f 186//17 188//17 187//17
f 188//17 190//16 189//17
f 190//16 192//18 191//16
f 192//18 194//19 193//18
f 194//19 196//20 195//19
f 196//20 198//21 197//20
f 198//21 200//22 199//21
f 200//22 202//23 201//22
f 202//23 204//24 203//23
f 204//24 206//25 205//24
f 206//25 208//26 207//25
f 208//26 210//27 209//26
f 210//27 212//28 211//27
f 212//28 214//29 213//28
f 214//29 216//30 215//29
f 216//30 218//31 217//30
f 218//31 220//32 219//31
f 220//32 222//33 221//32
f 222//33 224//34 223//33
f 224//34 226//35 225//34
f 226//35 228//36 227//35
f 228//36 230//37 229//36
f 230//37 232//38 231//37
f 232//38 234//39 233//38
f 234//39 236//40 235//39
f 236//40 238//41 237//40
f 238//41 240//42 239//41
f 240//42 242//43 241//42
f 242//43 244//44 243//43
f 244//44 246//45 245//44
f 246//45 248//46 247//45
f 248//46 250//47 249//46
f 250//47 252//48 251//47
f 252//48 254//49 253//48
f 254//49 256//50 255//49
f 256//50 258//51 257//50
f 258//51 260//52 259//51
f 260//52 262//53 261//52
f 262//53 264//54 263//53
f 264//54 266//55 265//54
f 266//55 268//56 267//55
f 268//56 270//57 269//56
f 270//57 272//58 271//57
f 272//58 274//59 273//58
f 274//59 276//60 275//59
f 276//60 278//61 277//60
f 278//61 280//62 279//61
f 280//62 282//63 281//62
f 282//63 284//64 283//63
f 284//64 286//65 285//64
f 286//65 288//66 287//65
f 288//66 290//68 289//67
f 291//68 290//68 293//69
f 292//69 294//70 293//69
f 294//70 296//71 295//70
