# Blender v2.74 (sub 0) OBJ File: ''
# www.blender.org
mtllib cowAction_1.mtl
o Cube
v -0.464170 0.028422 0.836850
v -0.464170 0.062815 0.836850
v -0.817914 0.028422 -0.483340
v -0.817914 0.062815 -0.483340
v 0.856021 0.028422 0.483106
v 0.856021 0.062815 0.483106
v 0.502277 0.028422 -0.837084
v 0.502277 0.062815 -0.837084
v -0.464170 0.045618 0.836850
v -0.641042 0.062815 0.176755
v -0.817914 0.045618 -0.483340
v -0.641042 0.028422 0.176755
v -0.157819 0.062815 -0.660212
v 0.502277 0.045618 -0.837084
v -0.157819 0.028422 -0.660212
v 0.679149 0.062815 -0.176989
v 0.856021 0.045618 0.483106
v 0.679149 0.028422 -0.176989
v 0.195925 0.062815 0.659978
v 0.195925 0.028422 0.659978
v 0.195925 0.045618 0.659978
v 0.679149 0.045618 -0.176989
v -0.157819 0.045618 -0.660212
v -0.641042 0.045618 0.176755
v -0.464170 0.054217 0.836850
v -0.729478 0.062815 -0.153293
v -0.817914 0.037020 -0.483340
v -0.552606 0.028422 0.506803
v 0.172229 0.062815 -0.748648
v 0.502277 0.037020 -0.837084
v -0.487866 0.028422 -0.571776
v 0.767585 0.062815 0.153059
v 0.856021 0.037020 0.483106
v 0.590713 0.028422 -0.507037
v -0.134122 0.062815 0.748414
v 0.525973 0.028422 0.571542
v -0.464170 0.037020 0.836850
v -0.552606 0.062815 0.506803
v -0.817914 0.054217 -0.483340
v -0.729478 0.028422 -0.153293
v -0.487866 0.062815 -0.571776
v 0.502277 0.054217 -0.837084
v 0.172229 0.028422 -0.748648
v 0.590713 0.062815 -0.507037
v 0.856021 0.054217 0.483106
v 0.767585 0.028422 0.153059
v 0.525973 0.062815 0.571542
v -0.134122 0.028422 0.748414
v 0.195925 0.037020 0.659978
v 0.195925 0.054217 0.659978
v 0.525973 0.045618 0.571542
v -0.134122 0.045618 0.748414
v 0.679149 0.037020 -0.176989
v 0.679149 0.054217 -0.176989
v 0.590713 0.045618 -0.507037
v 0.767585 0.045618 0.153059
v -0.157819 0.037020 -0.660212
v -0.157819 0.054217 -0.660212
v -0.487866 0.045618 -0.571776
v 0.172229 0.045618 -0.748648
v -0.641042 0.037020 0.176755
v -0.641042 0.054217 0.176755
v -0.552606 0.045618 0.506803
v -0.729478 0.045618 -0.153293
v -0.729478 0.054217 -0.153293
v -0.552606 0.054217 0.506803
v -0.552606 0.037020 0.506803
v 0.172229 0.054217 -0.748648
v -0.487866 0.054217 -0.571776
v -0.487866 0.037020 -0.571776
v 0.767585 0.054217 0.153059
v 0.590713 0.054217 -0.507037
v 0.590713 0.037020 -0.507037
v -0.134122 0.054217 0.748414
v 0.525973 0.054217 0.571542
v 0.525973 0.037020 0.571542
v -0.134122 0.037020 0.748414
v 0.767585 0.037020 0.153059
v 0.172229 0.037020 -0.748648
v -0.729478 0.037020 -0.153293
v -0.464170 0.058516 0.836850
v -0.773696 0.062815 -0.318316
v -0.817914 0.032721 -0.483340
v -0.508388 0.028422 0.671826
v 0.337253 0.062815 -0.792866
v 0.502277 0.032721 -0.837084
v -0.652890 0.028422 -0.527558
v 0.811803 0.062815 0.318083
v 0.856021 0.032721 0.483106
v 0.546495 0.028422 -0.672060
v -0.299146 0.062815 0.792632
v 0.690997 0.028422 0.527324
v -0.464170 0.041319 0.836850
v -0.596824 0.062815 0.341779
v -0.817914 0.049918 -0.483340
v -0.685260 0.028422 0.011731
v -0.322842 0.062815 -0.615994
v 0.502277 0.049918 -0.837084
v 0.007205 0.028422 -0.704430
v 0.634931 0.062815 -0.342013
v 0.856021 0.049918 0.483106
v 0.723367 0.028422 -0.011965
v 0.360949 0.062815 0.615760
v 0.030902 0.028422 0.704196
v -0.476018 0.062815 0.132537
v 0.151707 0.062815 0.494954
v 0.514125 0.028422 -0.132771
v 0.151707 0.028422 0.494954
v 0.195925 0.032721 0.659978
v 0.195925 0.049918 0.659978
v 0.690997 0.045618 0.527324
v 0.030902 0.045618 0.704196
v 0.679149 0.032721 -0.176989
v 0.679149 0.049918 -0.176989
v 0.546495 0.045618 -0.672060
v 0.723367 0.045618 -0.011965
v -0.157819 0.032721 -0.660212
v -0.157819 0.049918 -0.660212
v -0.652890 0.045618 -0.527558
v 0.007205 0.045618 -0.704430
v -0.641042 0.032721 0.176755
v -0.641042 0.049918 0.176755
v -0.508388 0.045618 0.671826
v -0.685260 0.045618 0.011731
v -0.464170 0.049918 0.836850
v -0.685260 0.062815 0.011731
v -0.817914 0.041319 -0.483340
v -0.596824 0.028422 0.341779
v 0.007205 0.062815 -0.704430
v 0.502277 0.041319 -0.837084
v -0.322842 0.028422 -0.615994
v 0.723367 0.062815 -0.011965
v 0.856021 0.041319 0.483106
v 0.634931 0.028422 -0.342013
v 0.030902 0.062815 0.704196
v 0.360949 0.028422 0.615760
v -0.464170 0.032721 0.836850
v -0.508388 0.062815 0.671826
v -0.817914 0.058516 -0.483340
v -0.773696 0.028422 -0.318316
v -0.652890 0.062815 -0.527558
v 0.502277 0.058516 -0.837084
v 0.337253 0.028422 -0.792866
v 0.546495 0.062815 -0.672060
v 0.856021 0.058516 0.483106
v 0.811803 0.028422 0.318083
v 0.690997 0.062815 0.527324
v -0.299146 0.028422 0.792632
v 0.514125 0.062815 -0.132771
v -0.113601 0.062815 -0.495188
v -0.476018 0.028422 0.132537
v -0.113601 0.028422 -0.495188
v 0.195925 0.041319 0.659978
v 0.195925 0.058516 0.659978
v 0.360949 0.045618 0.615760
v -0.299146 0.045618 0.792632
v 0.679149 0.041319 -0.176989
v 0.679149 0.058516 -0.176989
v 0.634931 0.045618 -0.342013
v 0.811803 0.045618 0.318083
v -0.157819 0.041319 -0.660212
v -0.157819 0.058516 -0.660212
v -0.322842 0.045618 -0.615994
v 0.337253 0.045618 -0.792866
v -0.641042 0.041319 0.176755
v -0.641042 0.058516 0.176755
v -0.596824 0.045618 0.341779
v -0.773696 0.045618 -0.318316
v -0.729478 0.049918 -0.153293
v -0.729478 0.058516 -0.153293
v -0.685260 0.054217 0.011731
v -0.773696 0.054217 -0.318316
v -0.552606 0.049918 0.506803
v -0.552606 0.058516 0.506803
v -0.508388 0.054217 0.671826
v -0.596824 0.054217 0.341779
v -0.552606 0.032721 0.506803
v -0.552606 0.041319 0.506803
v -0.508388 0.037020 0.671826
v -0.596824 0.037020 0.341779
v 0.172229 0.049918 -0.748648
v 0.172229 0.058516 -0.748648
v 0.007205 0.054217 -0.704430
v 0.337253 0.054217 -0.792866
v -0.487866 0.049918 -0.571776
v -0.487866 0.058516 -0.571776
v -0.652890 0.054217 -0.527558
v -0.322842 0.054217 -0.615994
v -0.487866 0.032721 -0.571776
v -0.487866 0.041319 -0.571776
v -0.652890 0.037020 -0.527558
v -0.322842 0.037020 -0.615994
v 0.767585 0.049918 0.153059
v 0.767585 0.058516 0.153059
v 0.723367 0.054217 -0.011965
v 0.811803 0.054217 0.318083
v 0.590713 0.049918 -0.507037
v 0.590713 0.058516 -0.507037
v 0.546495 0.054217 -0.672060
v 0.634931 0.054217 -0.342013
v 0.590713 0.032721 -0.507037
v 0.590713 0.041319 -0.507037
v 0.546495 0.037020 -0.672060
v 0.634931 0.037020 -0.342013
v -0.134122 0.049918 0.748414
v -0.134122 0.058516 0.748414
v 0.030902 0.054217 0.704196
v -0.299146 0.054217 0.792632
v 0.525973 0.049918 0.571542
v 0.525973 0.058516 0.571542
v 0.690997 0.054217 0.527324
v 0.360949 0.054217 0.615760
v 0.525973 0.032721 0.571542
v 0.525973 0.041319 0.571542
v 0.690997 0.037020 0.527324
v 0.360949 0.037020 0.615760
v -0.564454 0.028422 -0.197511
v -0.443648 0.028422 -0.406752
v -0.387582 0.028422 0.462585
v -0.178340 0.028422 0.583390
v 0.602561 0.028422 0.197277
v 0.481755 0.028422 0.406518
v 0.425689 0.062815 -0.462819
v 0.216447 0.062815 -0.583624
v 0.602561 0.062815 0.197277
v 0.481755 0.062815 0.406518
v -0.387582 0.062815 0.462585
v -0.178340 0.062815 0.583390
v -0.564454 0.062815 -0.197511
v -0.443648 0.062815 -0.406752
v 0.425689 0.028422 -0.462819
v 0.216447 0.028422 -0.583624
v -0.134122 0.032721 0.748414
v -0.134122 0.041319 0.748414
v 0.030902 0.037020 0.704196
v -0.299146 0.037020 0.792632
v 0.767585 0.032721 0.153059
v 0.767585 0.041319 0.153059
v 0.723367 0.037020 -0.011965
v 0.811803 0.037020 0.318083
v 0.172229 0.032721 -0.748648
v 0.172229 0.041319 -0.748648
v 0.007205 0.037020 -0.704430
v 0.337253 0.037020 -0.792866
v -0.729478 0.032721 -0.153293
v -0.729478 0.041319 -0.153293
v -0.685260 0.037020 0.011731
v -0.773696 0.037020 -0.318316
v -0.773696 0.041319 -0.318316
v -0.685260 0.041319 0.011731
v -0.685260 0.032721 0.011731
v 0.337253 0.041319 -0.792866
v 0.007205 0.041319 -0.704430
v 0.007205 0.032721 -0.704430
v 0.811803 0.041319 0.318083
v 0.723367 0.041319 -0.011965
v 0.723367 0.032721 -0.011965
v -0.299146 0.041319 0.792632
v 0.030902 0.041319 0.704196
v 0.030902 0.032721 0.704196
v 0.051423 0.028422 -0.539406
v 0.469907 0.028422 -0.297795
v -0.278624 0.062815 -0.450970
v -0.520236 0.062815 -0.032487
v -0.013316 0.062815 0.539172
v -0.343364 0.062815 0.627608
v 0.558343 0.062815 0.032253
v 0.646779 0.062815 0.362300
v 0.316731 0.062815 0.450736
v 0.381471 0.062815 -0.627842
v 0.469907 0.062815 -0.297795
v 0.316731 0.028422 0.450736
v 0.646779 0.028422 0.362300
v -0.431800 0.028422 0.297561
v -0.343364 0.028422 0.627608
v -0.013316 0.028422 0.539172
v -0.608672 0.028422 -0.362534
v -0.520236 0.028422 -0.032487
v 0.360949 0.041319 0.615760
v 0.690997 0.041319 0.527324
v 0.690997 0.032721 0.527324
v 0.360949 0.058516 0.615760
v 0.690997 0.058516 0.527324
v 0.690997 0.049918 0.527324
v -0.299146 0.058516 0.792632
v 0.030902 0.058516 0.704196
v 0.030902 0.049918 0.704196
v 0.634931 0.041319 -0.342013
v 0.546495 0.041319 -0.672060
v 0.546495 0.032721 -0.672060
v 0.634931 0.058516 -0.342013
v 0.546495 0.058516 -0.672060
v 0.546495 0.049918 -0.672060
v 0.811803 0.058516 0.318083
v 0.723367 0.058516 -0.011965
v 0.723367 0.049918 -0.011965
v -0.322842 0.041319 -0.615994
v -0.652890 0.041319 -0.527558
v -0.652890 0.032721 -0.527558
v -0.322842 0.058516 -0.615994
v -0.652890 0.058516 -0.527558
v -0.652890 0.049918 -0.527558
v 0.337253 0.058516 -0.792866
v 0.007205 0.058516 -0.704430
v 0.007205 0.049918 -0.704430
v -0.596824 0.041319 0.341779
v -0.508388 0.041319 0.671826
v -0.508388 0.032721 0.671826
v -0.596824 0.058516 0.341779
v -0.508388 0.058516 0.671826
v -0.508388 0.049918 0.671826
v -0.773696 0.058516 -0.318316
v -0.685260 0.058516 0.011731
v -0.685260 0.049918 0.011731
v -0.773696 0.049918 -0.318316
v -0.596824 0.049918 0.341779
v -0.596824 0.032721 0.341779
v 0.337253 0.049918 -0.792866
v -0.322842 0.049918 -0.615994
v -0.322842 0.032721 -0.615994
v 0.811803 0.049918 0.318083
v 0.634931 0.049918 -0.342013
v 0.634931 0.032721 -0.342013
v -0.299146 0.049918 0.792632
v 0.360949 0.049918 0.615760
v 0.360949 0.032721 0.615760
v -0.278624 0.028422 -0.450970
v 0.558343 0.028422 0.032253
v 0.051423 0.062815 -0.539406
v -0.431800 0.062815 0.297561
v -0.608672 0.062815 -0.362534
v 0.381471 0.028422 -0.627842
v -0.299146 0.032721 0.792632
v 0.811803 0.032721 0.318083
v 0.337253 0.032721 -0.792866
v -0.773696 0.032721 -0.318316
vn -0.965900 0.000000 0.258800
vn -0.258800 0.000000 -0.965900
vn 0.965900 0.000000 -0.258800
vn 0.258800 0.000000 0.965900
vn 0.000000 -1.000000 -0.000000
vn 0.000000 1.000000 0.000000
usemtl Material.012
s off
f 83//1 3//1 140//1
f 86//2 7//2 143//2
f 89//3 5//3 146//3
f 137//4 1//4 148//4
f 143//5 7//5 90//5
f 141//6 4//6 82//6
f 105//6 10//6 94//6
f 129//6 13//6 150//6
f 107//5 18//5 102//5
f 131//5 15//5 152//5
f 109//4 20//4 136//4
f 110//4 21//4 155//4
f 125//4 9//4 156//4
f 113//3 18//3 134//3
f 114//3 22//3 159//3
f 101//3 17//3 160//3
f 117//2 15//2 131//2
f 118//2 23//2 163//2
f 98//2 14//2 164//2
f 121//1 12//1 128//1
f 122//1 24//1 167//1
f 95//1 11//1 168//1
f 169//1 64//1 124//1
f 170//1 65//1 171//1
f 139//1 39//1 172//1
f 173//1 63//1 123//1
f 174//1 66//1 175//1
f 166//1 62//1 176//1
f 177//1 28//1 84//1
f 178//1 67//1 179//1
f 165//1 61//1 180//1
f 181//2 60//2 120//2
f 182//2 68//2 183//2
f 142//2 42//2 184//2
f 185//2 59//2 119//2
f 186//2 69//2 187//2
f 162//2 58//2 188//2
f 189//2 31//2 87//2
f 190//2 70//2 191//2
f 161//2 57//2 192//2
f 193//3 56//3 116//3
f 194//3 71//3 195//3
f 145//3 45//3 196//3
f 197//3 55//3 115//3
f 198//3 72//3 199//3
f 158//3 54//3 200//3
f 201//3 34//3 90//3
f 202//3 73//3 203//3
f 157//3 53//3 204//3
f 205//4 52//4 112//4
f 206//4 74//4 207//4
f 81//4 25//4 208//4
f 209//4 51//4 111//4
f 210//4 75//4 211//4
f 154//4 50//4 212//4
f 213//4 36//4 92//4
f 214//4 76//4 215//4
f 153//4 49//4 216//4
f 87//5 31//5 218//5
f 221//5 46//5 146//5
f 85//6 29//6 224//6
f 227//6 38//6 138//6
f 229//6 26//6 126//6
f 263//6 97//6 41//6
f 262//5 231//5 34//5
f 99//5 43//5 232//5
f 233//4 48//4 104//4
f 234//4 77//4 235//4
f 93//4 37//4 236//4
f 237//3 46//3 102//3
f 238//3 78//3 239//3
f 133//3 33//3 240//3
f 241//2 43//2 99//2
f 242//2 79//2 243//2
f 130//2 30//2 244//2
f 245//1 40//1 96//1
f 246//1 80//1 247//1
f 127//1 27//1 248//1
f 249//1 248//1 80//1
f 168//1 249//1 246//1
f 11//1 127//1 249//1
f 250//1 247//1 61//1
f 124//1 250//1 165//1
f 64//1 246//1 250//1
f 251//1 96//1 12//1
f 247//1 251//1 121//1
f 80//1 245//1 251//1
f 252//2 244//2 79//2
f 164//2 252//2 242//2
f 14//2 130//2 252//2
f 253//2 243//2 57//2
f 120//2 253//2 161//2
f 60//2 242//2 253//2
f 254//2 99//2 15//2
f 243//2 254//2 117//2
f 79//2 241//2 254//2
f 255//3 240//3 78//3
f 160//3 255//3 238//3
f 17//3 133//3 255//3
f 256//3 239//3 53//3
f 116//3 256//3 157//3
f 56//3 238//3 256//3
f 257//3 102//3 18//3
f 239//3 257//3 113//3
f 78//3 237//3 257//3
f 258//4 236//4 77//4
f 156//4 258//4 234//4
f 9//4 93//4 258//4
f 259//4 235//4 49//4
f 112//4 259//4 153//4
f 52//4 234//4 259//4
f 260//4 104//4 20//4
f 235//4 260//4 109//4
f 77//4 233//4 260//4
f 15//5 99//5 261//5
f 262//5 134//5 18//5
f 150//6 13//6 97//6
f 105//6 264//6 126//6
f 265//6 228//6 35//6
f 106//6 265//6 135//6
f 266//6 138//6 2//6
f 228//6 266//6 91//6
f 32//6 132//6 267//6
f 16//6 149//6 267//6
f 268//6 226//6 47//6
f 88//6 268//6 147//6
f 32//6 225//6 268//6
f 269//6 106//6 19//6
f 226//6 269//6 103//6
f 144//6 270//6 223//6
f 144//6 8//6 85//6
f 16//6 100//6 271//6
f 44//6 223//6 271//6
f 272//5 222//5 36//5
f 108//5 272//5 136//5
f 92//5 273//5 146//5
f 222//5 273//5 92//5
f 28//5 128//5 274//5
f 12//5 151//5 274//5
f 275//5 220//5 48//5
f 84//5 275//5 148//5
f 28//5 219//5 275//5
f 276//5 108//5 20//5
f 220//5 276//5 104//5
f 140//5 277//5 217//5
f 140//5 3//5 87//5
f 96//5 278//5 151//5
f 40//5 217//5 278//5
f 279//4 216//4 76//4
f 155//4 279//4 214//4
f 21//4 153//4 279//4
f 280//4 215//4 33//4
f 111//4 280//4 133//4
f 51//4 214//4 280//4
f 281//4 92//4 5//4
f 215//4 281//4 89//4
f 76//4 213//4 281//4
f 282//4 212//4 75//4
f 103//4 282//4 210//4
f 19//4 154//4 282//4
f 283//4 211//4 45//4
f 147//4 283//4 145//4
f 47//4 210//4 283//4
f 284//4 111//4 17//4
f 211//4 284//4 101//4
f 75//4 209//4 284//4
f 285//4 208//4 74//4
f 91//4 285//4 206//4
f 2//4 81//4 285//4
f 286//4 207//4 50//4
f 135//4 286//4 154//4
f 35//4 206//4 286//4
f 287//4 112//4 21//4
f 207//4 287//4 110//4
f 74//4 205//4 287//4
f 288//3 204//3 73//3
f 159//3 288//3 202//3
f 22//3 157//3 288//3
f 289//3 203//3 30//3
f 115//3 289//3 130//3
f 55//3 202//3 289//3
f 290//3 90//3 7//3
f 203//3 290//3 86//3
f 73//3 201//3 290//3
f 291//3 200//3 72//3
f 100//3 291//3 198//3
f 16//3 158//3 291//3
f 292//3 199//3 42//3
f 144//3 292//3 142//3
f 44//3 198//3 292//3
f 293//3 115//3 14//3
f 199//3 293//3 98//3
f 72//3 197//3 293//3
f 294//3 196//3 71//3
f 88//3 294//3 194//3
f 6//3 145//3 294//3
f 295//3 195//3 54//3
f 132//3 295//3 158//3
f 32//3 194//3 295//3
f 296//3 116//3 22//3
f 195//3 296//3 114//3
f 71//3 193//3 296//3
f 297//2 192//2 70//2
f 163//2 297//2 190//2
f 23//2 161//2 297//2
f 298//2 191//2 27//2
f 119//2 298//2 127//2
f 59//2 190//2 298//2
f 299//2 87//2 3//2
f 191//2 299//2 83//2
f 70//2 189//2 299//2
f 300//2 188//2 69//2
f 97//2 300//2 186//2
f 13//2 162//2 300//2
f 301//2 187//2 39//2
f 141//2 301//2 139//2
f 41//2 186//2 301//2
f 302//2 119//2 11//2
f 187//2 302//2 95//2
f 69//2 185//2 302//2
f 303//2 184//2 68//2
f 85//2 303//2 182//2
f 8//2 142//2 303//2
f 304//2 183//2 58//2
f 129//2 304//2 162//2
f 29//2 182//2 304//2
f 305//2 120//2 23//2
f 183//2 305//2 118//2
f 68//2 181//2 305//2
f 306//1 180//1 67//1
f 167//1 306//1 178//1
f 24//1 165//1 306//1
f 307//1 179//1 37//1
f 123//1 307//1 93//1
f 63//1 178//1 307//1
f 308//1 84//1 1//1
f 179//1 308//1 137//1
f 67//1 177//1 308//1
f 309//1 176//1 66//1
f 94//1 309//1 174//1
f 10//1 166//1 309//1
f 310//1 175//1 25//1
f 138//1 310//1 81//1
f 38//1 174//1 310//1
f 311//1 123//1 9//1
f 175//1 311//1 125//1
f 66//1 173//1 311//1
f 312//1 172//1 65//1
f 82//1 312//1 170//1
f 4//1 139//1 312//1
f 313//1 171//1 62//1
f 126//1 313//1 166//1
f 26//1 170//1 313//1
f 314//1 124//1 24//1
f 171//1 314//1 122//1
f 65//1 169//1 314//1
f 315//1 168//1 64//1
f 172//1 315//1 169//1
f 39//1 95//1 315//1
f 316//1 167//1 63//1
f 176//1 316//1 173//1
f 62//1 122//1 316//1
f 317//1 128//1 28//1
f 180//1 317//1 177//1
f 61//1 121//1 317//1
f 318//2 164//2 60//2
f 184//2 318//2 181//2
f 42//2 98//2 318//2
f 319//2 163//2 59//2
f 188//2 319//2 185//2
f 58//2 118//2 319//2
f 320//2 131//2 31//2
f 192//2 320//2 189//2
f 57//2 117//2 320//2
f 321//3 160//3 56//3
f 196//3 321//3 193//3
f 45//3 101//3 321//3
f 322//3 159//3 55//3
f 200//3 322//3 197//3
f 54//3 114//3 322//3
f 323//3 134//3 34//3
f 204//3 323//3 201//3
f 53//3 113//3 323//3
f 324//4 156//4 52//4
f 208//4 324//4 205//4
f 25//4 125//4 324//4
f 325//4 155//4 51//4
f 212//4 325//4 209//4
f 50//4 110//4 325//4
f 326//4 136//4 36//4
f 216//4 326//4 213//4
f 49//4 109//4 326//4
f 31//5 131//5 327//5
f 328//5 102//5 46//5
f 29//6 129//6 329//6
f 330//6 94//6 38//6
f 331//6 82//6 26//6
f 41//6 141//6 331//6
f 332//5 90//5 34//5
f 43//5 143//5 332//5
f 333//4 148//4 48//4
f 236//4 333//4 233//4
f 37//4 137//4 333//4
f 334//3 146//3 46//3
f 240//3 334//3 237//3
f 33//3 89//3 334//3
f 335//2 143//2 43//2
f 244//2 335//2 241//2
f 30//2 86//2 335//2
f 336//1 140//1 40//1
f 248//1 336//1 245//1
f 27//1 83//1 336//1
f 336//1 83//1 140//1
f 335//2 86//2 143//2
f 334//3 89//3 146//3
f 333//4 137//4 148//4
f 332//5 143//5 90//5
f 331//6 141//6 82//6
f 330//6 105//6 94//6
f 329//6 129//6 150//6
f 328//5 107//5 102//5
f 327//5 131//5 152//5
f 326//4 109//4 136//4
f 325//4 110//4 155//4
f 324//4 125//4 156//4
f 323//3 113//3 134//3
f 322//3 114//3 159//3
f 321//3 101//3 160//3
f 320//2 117//2 131//2
f 319//2 118//2 163//2
f 318//2 98//2 164//2
f 317//1 121//1 128//1
f 316//1 122//1 167//1
f 315//1 95//1 168//1
f 314//1 169//1 124//1
f 313//1 170//1 171//1
f 312//1 139//1 172//1
f 311//1 173//1 123//1
f 310//1 174//1 175//1
f 309//1 166//1 176//1
f 308//1 177//1 84//1
f 307//1 178//1 179//1
f 306//1 165//1 180//1
f 305//2 181//2 120//2
f 304//2 182//2 183//2
f 303//2 142//2 184//2
f 302//2 185//2 119//2
f 301//2 186//2 187//2
f 300//2 162//2 188//2
f 299//2 189//2 87//2
f 298//2 190//2 191//2
f 297//2 161//2 192//2
f 296//3 193//3 116//3
f 295//3 194//3 195//3
f 294//3 145//3 196//3
f 293//3 197//3 115//3
f 292//3 198//3 199//3
f 291//3 158//3 200//3
f 290//3 201//3 90//3
f 289//3 202//3 203//3
f 288//3 157//3 204//3
f 287//4 205//4 112//4
f 286//4 206//4 207//4
f 285//4 81//4 208//4
f 284//4 209//4 111//4
f 283//4 210//4 211//4
f 282//4 154//4 212//4
f 281//4 213//4 92//4
f 280//4 214//4 215//4
f 279//4 153//4 216//4
f 277//5 87//5 218//5
f 273//5 221//5 146//5
f 270//6 85//6 224//6
f 266//6 227//6 138//6
f 264//6 229//6 126//6
f 230//6 263//6 41//6
f 134//5 262//5 34//5
f 261//5 99//5 232//5
f 260//4 233//4 104//4
f 259//4 234//4 235//4
f 258//4 93//4 236//4
f 257//3 237//3 102//3
f 256//3 238//3 239//3
f 255//3 133//3 240//3
f 254//2 241//2 99//2
f 253//2 242//2 243//2
f 252//2 130//2 244//2
f 251//1 245//1 96//1
f 250//1 246//1 247//1
f 249//1 127//1 248//1
f 246//1 249//1 80//1
f 64//1 168//1 246//1
f 168//1 11//1 249//1
f 165//1 250//1 61//1
f 24//1 124//1 165//1
f 124//1 64//1 250//1
f 121//1 251//1 12//1
f 61//1 247//1 121//1
f 247//1 80//1 251//1
f 242//2 252//2 79//2
f 60//2 164//2 242//2
f 164//2 14//2 252//2
f 161//2 253//2 57//2
f 23//2 120//2 161//2
f 120//2 60//2 253//2
f 117//2 254//2 15//2
f 57//2 243//2 117//2
f 243//2 79//2 254//2
f 238//3 255//3 78//3
f 56//3 160//3 238//3
f 160//3 17//3 255//3
f 157//3 256//3 53//3
f 22//3 116//3 157//3
f 116//3 56//3 256//3
f 113//3 257//3 18//3
f 53//3 239//3 113//3
f 239//3 78//3 257//3
f 234//4 258//4 77//4
f 52//4 156//4 234//4
f 156//4 9//4 258//4
f 153//4 259//4 49//4
f 21//4 112//4 153//4
f 112//4 52//4 259//4
f 109//4 260//4 20//4
f 49//4 235//4 109//4
f 235//4 77//4 260//4
f 152//5 15//5 261//5
f 107//5 262//5 18//5
f 263//6 150//6 97//6
f 10//6 105//6 126//6
f 135//6 265//6 35//6
f 19//6 106//6 135//6
f 91//6 266//6 2//6
f 35//6 228//6 91//6
f 225//6 32//6 267//6
f 132//6 16//6 267//6
f 147//6 268//6 47//6
f 6//6 88//6 147//6
f 88//6 32//6 268//6
f 103//6 269//6 19//6
f 47//6 226//6 103//6
f 44//6 144//6 223//6
f 270//6 144//6 85//6
f 149//6 16//6 271//6
f 100//6 44//6 271//6
f 136//5 272//5 36//5
f 20//5 108//5 136//5
f 5//5 92//5 146//5
f 36//5 222//5 92//5
f 219//5 28//5 274//5
f 128//5 12//5 274//5
f 148//5 275//5 48//5
f 1//5 84//5 148//5
f 84//5 28//5 275//5
f 104//5 276//5 20//5
f 48//5 220//5 104//5
f 40//5 140//5 217//5
f 277//5 140//5 87//5
f 12//5 96//5 151//5
f 96//5 40//5 278//5
f 214//4 279//4 76//4
f 51//4 155//4 214//4
f 155//4 21//4 279//4
f 133//4 280//4 33//4
f 17//4 111//4 133//4
f 111//4 51//4 280//4
f 89//4 281//4 5//4
f 33//4 215//4 89//4
f 215//4 76//4 281//4
f 210//4 282//4 75//4
f 47//4 103//4 210//4
f 103//4 19//4 282//4
f 145//4 283//4 45//4
f 6//4 147//4 145//4
f 147//4 47//4 283//4
f 101//4 284//4 17//4
f 45//4 211//4 101//4
f 211//4 75//4 284//4
f 206//4 285//4 74//4
f 35//4 91//4 206//4
f 91//4 2//4 285//4
f 154//4 286//4 50//4
f 19//4 135//4 154//4
f 135//4 35//4 286//4
f 110//4 287//4 21//4
f 50//4 207//4 110//4
f 207//4 74//4 287//4
f 202//3 288//3 73//3
f 55//3 159//3 202//3
f 159//3 22//3 288//3
f 130//3 289//3 30//3
f 14//3 115//3 130//3
f 115//3 55//3 289//3
f 86//3 290//3 7//3
f 30//3 203//3 86//3
f 203//3 73//3 290//3
f 198//3 291//3 72//3
f 44//3 100//3 198//3
f 100//3 16//3 291//3
f 142//3 292//3 42//3
f 8//3 144//3 142//3
f 144//3 44//3 292//3
f 98//3 293//3 14//3
f 42//3 199//3 98//3
f 199//3 72//3 293//3
f 194//3 294//3 71//3
f 32//3 88//3 194//3
f 88//3 6//3 294//3
f 158//3 295//3 54//3
f 16//3 132//3 158//3
f 132//3 32//3 295//3
f 114//3 296//3 22//3
f 54//3 195//3 114//3
f 195//3 71//3 296//3
f 190//2 297//2 70//2
f 59//2 163//2 190//2
f 163//2 23//2 297//2
f 127//2 298//2 27//2
f 11//2 119//2 127//2
f 119//2 59//2 298//2
f 83//2 299//2 3//2
f 27//2 191//2 83//2
f 191//2 70//2 299//2
f 186//2 300//2 69//2
f 41//2 97//2 186//2
f 97//2 13//2 300//2
f 139//2 301//2 39//2
f 4//2 141//2 139//2
f 141//2 41//2 301//2
f 95//2 302//2 11//2
f 39//2 187//2 95//2
f 187//2 69//2 302//2
f 182//2 303//2 68//2
f 29//2 85//2 182//2
f 85//2 8//2 303//2
f 162//2 304//2 58//2
f 13//2 129//2 162//2
f 129//2 29//2 304//2
f 118//2 305//2 23//2
f 58//2 183//2 118//2
f 183//2 68//2 305//2
f 178//1 306//1 67//1
f 63//1 167//1 178//1
f 167//1 24//1 306//1
f 93//1 307//1 37//1
f 9//1 123//1 93//1
f 123//1 63//1 307//1
f 137//1 308//1 1//1
f 37//1 179//1 137//1
f 179//1 67//1 308//1
f 174//1 309//1 66//1
f 38//1 94//1 174//1
f 94//1 10//1 309//1
f 81//1 310//1 25//1
f 2//1 138//1 81//1
f 138//1 38//1 310//1
f 125//1 311//1 9//1
f 25//1 175//1 125//1
f 175//1 66//1 311//1
f 170//1 312//1 65//1
f 26//1 82//1 170//1
f 82//1 4//1 312//1
f 166//1 313//1 62//1
f 10//1 126//1 166//1
f 126//1 26//1 313//1
f 122//1 314//1 24//1
f 62//1 171//1 122//1
f 171//1 65//1 314//1
f 169//1 315//1 64//1
f 65//1 172//1 169//1
f 172//1 39//1 315//1
f 173//1 316//1 63//1
f 66//1 176//1 173//1
f 176//1 62//1 316//1
f 177//1 317//1 28//1
f 67//1 180//1 177//1
f 180//1 61//1 317//1
f 181//2 318//2 60//2
f 68//2 184//2 181//2
f 184//2 42//2 318//2
f 185//2 319//2 59//2
f 69//2 188//2 185//2
f 188//2 58//2 319//2
f 189//2 320//2 31//2
f 70//2 192//2 189//2
f 192//2 57//2 320//2
f 193//3 321//3 56//3
f 71//3 196//3 193//3
f 196//3 45//3 321//3
f 197//3 322//3 55//3
f 72//3 200//3 197//3
f 200//3 54//3 322//3
f 201//3 323//3 34//3
f 73//3 204//3 201//3
f 204//3 53//3 323//3
f 205//4 324//4 52//4
f 74//4 208//4 205//4
f 208//4 25//4 324//4
f 209//4 325//4 51//4
f 75//4 212//4 209//4
f 212//4 50//4 325//4
f 213//4 326//4 36//4
f 76//4 216//4 213//4
f 216//4 49//4 326//4
f 218//5 31//5 327//5
f 221//5 328//5 46//5
f 224//6 29//6 329//6
f 227//6 330//6 38//6
f 229//6 331//6 26//6
f 230//6 41//6 331//6
f 231//5 332//5 34//5
f 232//5 43//5 332//5
f 233//4 333//4 48//4
f 77//4 236//4 233//4
f 236//4 37//4 333//4
f 237//3 334//3 46//3
f 78//3 240//3 237//3
f 240//3 33//3 334//3
f 241//2 335//2 43//2
f 79//2 244//2 241//2
f 244//2 30//2 335//2
f 245//1 336//1 40//1
f 80//1 248//1 245//1
f 248//1 27//1 336//1
