# Blender v2.74 (sub 0) OBJ File: ''
# www.blender.org
mtllib cowAction_5.mtl
o Cube
v 0.294218 0.002366 2.414974
v 0.294218 0.088871 2.414974
v -2.396037 0.002366 0.275048
v -2.396037 0.088871 0.275048
v 2.434144 0.002366 -0.275282
v 2.434144 0.088871 -0.275282
v -0.256111 0.002366 -2.415207
v -0.256111 0.088871 -2.415207
v 0.294218 0.045618 2.414974
v -1.050910 0.088871 1.345011
v -2.396037 0.045618 0.275048
v -1.050910 0.002366 1.345011
v -1.326074 0.088871 -1.070080
v -0.256111 0.045618 -2.415207
v -1.326074 0.002366 -1.070080
v 1.089016 0.088871 -1.345245
v 2.434144 0.045618 -0.275282
v 1.089016 0.002366 -1.345245
v 1.364181 0.088871 1.069846
v 1.364181 0.002366 1.069846
v 1.364181 0.045618 1.069846
v 1.089016 0.045618 -1.345245
v -1.326074 0.045618 -1.070080
v -1.050910 0.045618 1.345011
v 0.294218 0.067245 2.414974
v -1.723473 0.088871 0.810029
v -2.396037 0.023992 0.275048
v -0.378346 0.002366 1.879992
v -0.791093 0.088871 -1.742644
v -0.256111 0.023992 -2.415207
v -1.861056 0.002366 -0.397516
v 1.761580 0.088871 -0.810263
v 2.434144 0.023992 -0.275282
v 0.416452 0.002366 -1.880226
v 0.829200 0.088871 1.742410
v 1.899163 0.002366 0.397282
v 0.294218 0.023992 2.414974
v -0.378346 0.088871 1.879992
v -2.396037 0.067245 0.275048
v -1.723473 0.002366 0.810029
v -1.861056 0.088871 -0.397516
v -0.256111 0.067245 -2.415207
v -0.791093 0.002366 -1.742644
v 0.416452 0.088871 -1.880226
v 2.434144 0.067245 -0.275282
v 1.761580 0.002366 -0.810263
v 1.899163 0.088871 0.397282
v 0.829200 0.002366 1.742410
v 1.364181 0.023992 1.069846
v 1.364181 0.067245 1.069846
v 1.899163 0.045618 0.397282
v 0.829200 0.045618 1.742410
v 1.089016 0.023992 -1.345245
v 1.089016 0.067245 -1.345245
v 0.416452 0.045618 -1.880226
v 1.761580 0.045618 -0.810263
v -1.326074 0.023992 -1.070080
v -1.326074 0.067245 -1.070080
v -1.861056 0.045618 -0.397516
v -0.791093 0.045618 -1.742644
v -1.050910 0.023992 1.345011
v -1.050910 0.067245 1.345011
v -0.378346 0.045618 1.879992
v -1.723473 0.045618 0.810029
v -1.723473 0.067245 0.810029
v -0.378346 0.067245 1.879992
v -0.378346 0.023992 1.879992
v -0.791093 0.067245 -1.742644
v -1.861056 0.067245 -0.397516
v -1.861056 0.023992 -0.397516
v 1.761580 0.067245 -0.810263
v 0.416452 0.067245 -1.880226
v 0.416452 0.023992 -1.880226
v 0.829200 0.067245 1.742410
v 1.899163 0.067245 0.397282
v 1.899163 0.023992 0.397282
v 0.829200 0.023992 1.742410
v 1.761580 0.023992 -0.810263
v -0.791093 0.023992 -1.742644
v -1.723473 0.023992 0.810029
v 0.294218 0.078058 2.414974
v -2.059755 0.088871 0.542539
v -2.396037 0.013179 0.275048
v -0.042064 0.002366 2.147483
v -0.523602 0.088871 -2.078926
v -0.256111 0.013179 -2.415207
v -2.128547 0.002366 -0.061234
v 2.097862 0.088871 -0.542772
v 2.434144 0.013179 -0.275282
v 0.080171 0.002366 -2.147717
v 0.561709 0.088871 2.078692
v 2.166653 0.002366 0.061000
v 0.294218 0.034805 2.414974
v -0.714628 0.088871 1.612502
v -2.396037 0.056432 0.275048
v -1.387192 0.002366 1.077520
v -1.593565 0.088871 -0.733798
v -0.256111 0.056432 -2.415207
v -1.058584 0.002366 -1.406362
v 0.752734 0.088871 -1.612735
v 2.434144 0.056432 -0.275282
v 1.425298 0.002366 -1.077754
v 1.631672 0.088871 0.733564
v 1.096690 0.002366 1.406128
v -0.783419 0.088871 1.008729
v 1.027899 0.088871 0.802355
v 0.821526 0.002366 -1.008963
v 1.027899 0.002366 0.802355
v 1.364181 0.013179 1.069846
v 1.364181 0.056432 1.069846
v 2.166653 0.045618 0.061000
v 1.096690 0.045618 1.406128
v 1.089016 0.013179 -1.345245
v 1.089016 0.056432 -1.345245
v 0.080171 0.045618 -2.147717
v 1.425298 0.045618 -1.077754
v -1.326074 0.013179 -1.070080
v -1.326074 0.056432 -1.070080
v -2.128547 0.045618 -0.061234
v -1.058584 0.045618 -1.406362
v -1.050910 0.013179 1.345011
v -1.050910 0.056432 1.345011
v -0.042064 0.045618 2.147483
v -1.387192 0.045618 1.077520
v 0.294218 0.056432 2.414974
v -1.387192 0.088871 1.077520
v -2.396037 0.034805 0.275048
v -0.714628 0.002366 1.612502
v -1.058584 0.088871 -1.406362
v -0.256111 0.034805 -2.415207
v -1.593565 0.002366 -0.733798
v 1.425298 0.088871 -1.077754
v 2.434144 0.034805 -0.275282
v 0.752734 0.002366 -1.612735
v 1.096690 0.088871 1.406128
v 1.631672 0.002366 0.733564
v 0.294218 0.013179 2.414974
v -0.042064 0.088871 2.147483
v -2.396037 0.078058 0.275048
v -2.059755 0.002366 0.542539
v -2.128547 0.088871 -0.061234
v -0.256111 0.078058 -2.415207
v -0.523602 0.002366 -2.078926
v 0.080171 0.088871 -2.147717
v 2.434144 0.078058 -0.275282
v 2.097862 0.002366 -0.542772
v 2.166653 0.088871 0.061000
v 0.561709 0.002366 2.078692
v 0.821526 0.088871 -1.008963
v -0.989792 0.088871 -0.802589
v -0.783419 0.002366 1.008729
v -0.989792 0.002366 -0.802589
v 1.364181 0.034805 1.069846
v 1.364181 0.078058 1.069846
v 1.631672 0.045618 0.733564
v 0.561709 0.045618 2.078692
v 1.089016 0.034805 -1.345245
v 1.089016 0.078058 -1.345245
v 0.752734 0.045618 -1.612735
v 2.097862 0.045618 -0.542772
v -1.326074 0.034805 -1.070080
v -1.326074 0.078058 -1.070080
v -1.593565 0.045618 -0.733798
v -0.523602 0.045618 -2.078926
v -1.050910 0.034805 1.345011
v -1.050910 0.078058 1.345011
v -0.714628 0.045618 1.612502
v -2.059755 0.045618 0.542539
v -1.723473 0.056432 0.810029
v -1.723473 0.078058 0.810029
v -1.387192 0.067245 1.077520
v -2.059755 0.067245 0.542539
v -0.378346 0.056432 1.879992
v -0.378346 0.078058 1.879992
v -0.042064 0.067245 2.147483
v -0.714628 0.067245 1.612502
v -0.378346 0.013179 1.879992
v -0.378346 0.034805 1.879992
v -0.042064 0.023992 2.147483
v -0.714628 0.023992 1.612502
v -0.791093 0.056432 -1.742644
v -0.791093 0.078058 -1.742644
v -1.058584 0.067245 -1.406362
v -0.523602 0.067245 -2.078926
v -1.861056 0.056432 -0.397516
v -1.861056 0.078058 -0.397516
v -2.128547 0.067245 -0.061234
v -1.593565 0.067245 -0.733798
v -1.861056 0.013179 -0.397516
v -1.861056 0.034805 -0.397516
v -2.128547 0.023992 -0.061234
v -1.593565 0.023992 -0.733798
v 1.761580 0.056432 -0.810263
v 1.761580 0.078058 -0.810263
v 1.425298 0.067245 -1.077754
v 2.097862 0.067245 -0.542772
v 0.416452 0.056432 -1.880226
v 0.416452 0.078058 -1.880226
v 0.080171 0.067245 -2.147717
v 0.752734 0.067245 -1.612735
v 0.416452 0.013179 -1.880226
v 0.416452 0.034805 -1.880226
v 0.080171 0.023992 -2.147717
v 0.752734 0.023992 -1.612735
v 0.829200 0.056432 1.742410
v 0.829200 0.078058 1.742410
v 1.096690 0.067245 1.406128
v 0.561709 0.067245 2.078692
v 1.899163 0.056432 0.397282
v 1.899163 0.078058 0.397282
v 2.166653 0.067245 0.061000
v 1.631672 0.067245 0.733564
v 1.899163 0.013179 0.397282
v 1.899163 0.034805 0.397282
v 2.166653 0.023992 0.061000
v 1.631672 0.023992 0.733564
v -1.455983 0.002366 0.473747
v -1.524774 0.002366 -0.130025
v -0.110855 0.002366 1.543710
v 0.492918 0.002366 1.474919
v 1.494089 0.002366 -0.473981
v 1.562881 0.002366 0.129791
v 0.148962 0.088871 -1.543944
v -0.454811 0.088871 -1.475153
v 1.494089 0.088871 -0.473981
v 1.562881 0.088871 0.129791
v -0.110855 0.088871 1.543710
v 0.492918 0.088871 1.474919
v -1.455983 0.088871 0.473747
v -1.524774 0.088871 -0.130025
v 0.148962 0.002366 -1.543944
v -0.454811 0.002366 -1.475153
v 0.829200 0.013179 1.742410
v 0.829200 0.034805 1.742410
v 1.096690 0.023992 1.406128
v 0.561709 0.023992 2.078692
v 1.761580 0.013179 -0.810263
v 1.761580 0.034805 -0.810263
v 1.425298 0.023992 -1.077754
v 2.097862 0.023992 -0.542772
v -0.791093 0.013179 -1.742644
v -0.791093 0.034805 -1.742644
v -1.058584 0.023992 -1.406362
v -0.523602 0.023992 -2.078926
v -1.723473 0.013179 0.810029
v -1.723473 0.034805 0.810029
v -1.387192 0.023992 1.077520
v -2.059755 0.023992 0.542539
v -2.059755 0.034805 0.542539
v -1.387192 0.034805 1.077520
v -1.387192 0.013179 1.077520
v -0.523602 0.034805 -2.078926
v -1.058584 0.034805 -1.406362
v -1.058584 0.013179 -1.406362
v 2.097862 0.034805 -0.542772
v 1.425298 0.034805 -1.077754
v 1.425298 0.013179 -1.077754
v 0.561709 0.034805 2.078692
v 1.096690 0.034805 1.406128
v 1.096690 0.013179 1.406128
v -0.722302 0.002366 -1.138871
v 0.485244 0.002366 -1.276453
v -1.257283 0.088871 -0.466307
v -1.119701 0.088871 0.741238
v 0.760408 0.088871 1.138637
v 0.225427 0.088871 1.811201
v 1.157807 0.088871 -0.741472
v 1.830371 0.088871 -0.206491
v 1.295390 0.088871 0.466073
v -0.187320 0.088871 -1.811435
v 0.485244 0.088871 -1.276453
v 1.295390 0.002366 0.466073
v 1.830371 0.002366 -0.206491
v -0.447137 0.002366 1.276220
v 0.225427 0.002366 1.811201
v 0.760408 0.002366 1.138637
v -1.792265 0.002366 0.206257
v -1.119701 0.002366 0.741238
v 1.631672 0.034805 0.733564
v 2.166653 0.034805 0.061000
v 2.166653 0.013179 0.061000
v 1.631672 0.078058 0.733564
v 2.166653 0.078058 0.061000
v 2.166653 0.056432 0.061000
v 0.561709 0.078058 2.078692
v 1.096690 0.078058 1.406128
v 1.096690 0.056432 1.406128
v 0.752734 0.034805 -1.612735
v 0.080171 0.034805 -2.147717
v 0.080171 0.013179 -2.147717
v 0.752734 0.078058 -1.612735
v 0.080171 0.078058 -2.147717
v 0.080171 0.056432 -2.147717
v 2.097862 0.078058 -0.542772
v 1.425298 0.078058 -1.077754
v 1.425298 0.056432 -1.077754
v -1.593565 0.034805 -0.733798
v -2.128547 0.034805 -0.061234
v -2.128547 0.013179 -0.061234
v -1.593565 0.078058 -0.733798
v -2.128547 0.078058 -0.061234
v -2.128547 0.056432 -0.061234
v -0.523602 0.078058 -2.078926
v -1.058584 0.078058 -1.406362
v -1.058584 0.056432 -1.406362
v -0.714628 0.034805 1.612502
v -0.042064 0.034805 2.147483
v -0.042064 0.013179 2.147483
v -0.714628 0.078058 1.612502
v -0.042064 0.078058 2.147483
v -0.042064 0.056432 2.147483
v -2.059755 0.078058 0.542539
v -1.387192 0.078058 1.077520
v -1.387192 0.056432 1.077520
v -2.059755 0.056432 0.542539
v -0.714628 0.056432 1.612502
v -0.714628 0.013179 1.612502
v -0.523602 0.056432 -2.078926
v -1.593565 0.056432 -0.733798
v -1.593565 0.013179 -0.733798
v 2.097862 0.056432 -0.542772
v 0.752734 0.056432 -1.612735
v 0.752734 0.013179 -1.612735
v 0.561709 0.056432 2.078692
v 1.631672 0.056432 0.733564
v 1.631672 0.013179 0.733564
v -1.257283 0.002366 -0.466307
v 1.157807 0.002366 -0.741472
v -0.722302 0.088871 -1.138871
v -0.447137 0.088871 1.276220
v -1.792265 0.088871 0.206257
v -0.187320 0.002366 -1.811435
v 0.561709 0.013179 2.078692
v 2.097862 0.013179 -0.542772
v -0.523602 0.013179 -2.078926
v -2.059755 0.013179 0.542539
vn -0.622500 0.000000 0.782600
vn -0.782600 0.000000 -0.622500
vn 0.622500 0.000000 -0.782600
vn 0.782600 0.000000 0.622500
vn 0.000000 -1.000000 0.000000
vn 0.000000 1.000000 0.000000
usemtl Material.012
s off
f 83//1 3//1 140//1
f 86//2 7//2 143//2
f 89//3 5//3 146//3
f 137//4 1//4 148//4
f 332//5 143//5 7//5
f 331//6 141//6 4//6
f 105//6 10//6 94//6
f 129//6 13//6 150//6
f 107//5 18//5 102//5
f 131//5 15//5 152//5
f 109//4 20//4 136//4
f 110//4 21//4 155//4
f 125//4 9//4 156//4
f 113//3 18//3 134//3
f 114//3 22//3 159//3
f 101//3 17//3 160//3
f 117//2 15//2 131//2
f 118//2 23//2 163//2
f 98//2 14//2 164//2
f 121//1 12//1 128//1
f 122//1 24//1 167//1
f 95//1 11//1 168//1
f 169//1 64//1 124//1
f 170//1 65//1 171//1
f 139//1 39//1 172//1
f 173//1 63//1 123//1
f 174//1 66//1 175//1
f 166//1 62//1 176//1
f 177//1 28//1 84//1
f 178//1 67//1 179//1
f 165//1 61//1 180//1
f 181//2 60//2 120//2
f 182//2 68//2 183//2
f 142//2 42//2 184//2
f 185//2 59//2 119//2
f 186//2 69//2 187//2
f 162//2 58//2 188//2
f 189//2 31//2 87//2
f 190//2 70//2 191//2
f 161//2 57//2 192//2
f 193//3 56//3 116//3
f 194//3 71//3 195//3
f 145//3 45//3 196//3
f 197//3 55//3 115//3
f 198//3 72//3 199//3
f 158//3 54//3 200//3
f 201//3 34//3 90//3
f 202//3 73//3 203//3
f 157//3 53//3 204//3
f 205//4 52//4 112//4
f 206//4 74//4 207//4
f 81//4 25//4 208//4
f 209//4 51//4 111//4
f 210//4 75//4 211//4
f 154//4 50//4 212//4
f 213//4 36//4 92//4
f 214//4 76//4 215//4
f 153//4 49//4 216//4
f 87//5 31//5 218//5
f 221//5 46//5 146//5
f 85//6 29//6 224//6
f 227//6 38//6 138//6
f 264//6 229//6 26//6
f 263//6 97//6 41//6
f 262//5 231//5 34//5
f 99//5 43//5 232//5
f 233//4 48//4 104//4
f 234//4 77//4 235//4
f 93//4 37//4 236//4
f 237//3 46//3 102//3
f 238//3 78//3 239//3
f 133//3 33//3 240//3
f 241//2 43//2 99//2
f 242//2 79//2 243//2
f 130//2 30//2 244//2
f 245//1 40//1 96//1
f 246//1 80//1 247//1
f 127//1 27//1 248//1
f 249//1 248//1 80//1
f 168//1 249//1 246//1
f 11//1 127//1 249//1
f 250//1 247//1 61//1
f 124//1 250//1 165//1
f 64//1 246//1 250//1
f 251//1 96//1 12//1
f 247//1 251//1 121//1
f 80//1 245//1 251//1
f 252//2 244//2 79//2
f 164//2 252//2 242//2
f 14//2 130//2 252//2
f 253//2 243//2 57//2
f 120//2 253//2 161//2
f 60//2 242//2 253//2
f 254//2 99//2 15//2
f 243//2 254//2 117//2
f 79//2 241//2 254//2
f 255//3 240//3 78//3
f 160//3 255//3 238//3
f 17//3 133//3 255//3
f 256//3 239//3 53//3
f 116//3 256//3 157//3
f 56//3 238//3 256//3
f 257//3 102//3 18//3
f 239//3 257//3 113//3
f 78//3 237//3 257//3
f 258//4 236//4 77//4
f 156//4 258//4 234//4
f 9//4 93//4 258//4
f 259//4 235//4 49//4
f 112//4 259//4 153//4
f 52//4 234//4 259//4
f 260//4 104//4 20//4
f 235//4 260//4 109//4
f 77//4 233//4 260//4
f 15//5 99//5 261//5
f 262//5 134//5 18//5
f 13//6 97//6 263//6
f 264//6 126//6 10//6
f 265//6 228//6 35//6
f 106//6 265//6 135//6
f 266//6 138//6 2//6
f 228//6 266//6 91//6
f 132//6 267//6 225//6
f 16//6 149//6 267//6
f 147//6 268//6 226//6
f 88//6 268//6 147//6
f 32//6 225//6 268//6
f 269//6 106//6 19//6
f 47//6 226//6 269//6
f 144//6 270//6 223//6
f 8//6 85//6 270//6
f 100//6 271//6 149//6
f 44//6 223//6 271//6
f 272//5 222//5 36//5
f 108//5 272//5 136//5
f 273//5 146//5 5//5
f 222//5 273//5 92//5
f 28//5 128//5 274//5
f 12//5 151//5 274//5
f 275//5 220//5 48//5
f 84//5 275//5 148//5
f 84//5 28//5 219//5
f 276//5 108//5 20//5
f 48//5 220//5 276//5
f 140//5 277//5 217//5
f 3//5 87//5 277//5
f 96//5 278//5 151//5
f 40//5 217//5 278//5
f 279//4 216//4 76//4
f 155//4 279//4 214//4
f 21//4 153//4 279//4
f 280//4 215//4 33//4
f 111//4 280//4 133//4
f 51//4 214//4 280//4
f 281//4 92//4 5//4
f 215//4 281//4 89//4
f 76//4 213//4 281//4
f 282//4 212//4 75//4
f 103//4 282//4 210//4
f 19//4 154//4 282//4
f 283//4 211//4 45//4
f 147//4 283//4 145//4
f 47//4 210//4 283//4
f 284//4 111//4 17//4
f 211//4 284//4 101//4
f 75//4 209//4 284//4
f 285//4 208//4 74//4
f 91//4 285//4 206//4
f 2//4 81//4 285//4
f 286//4 207//4 50//4
f 135//4 286//4 154//4
f 35//4 206//4 286//4
f 287//4 112//4 21//4
f 207//4 287//4 110//4
f 74//4 205//4 287//4
f 288//3 204//3 73//3
f 159//3 288//3 202//3
f 22//3 157//3 288//3
f 289//3 203//3 30//3
f 115//3 289//3 130//3
f 55//3 202//3 289//3
f 290//3 90//3 7//3
f 203//3 290//3 86//3
f 73//3 201//3 290//3
f 291//3 200//3 72//3
f 100//3 291//3 198//3
f 16//3 158//3 291//3
f 292//3 199//3 42//3
f 144//3 292//3 142//3
f 44//3 198//3 292//3
f 293//3 115//3 14//3
f 199//3 293//3 98//3
f 72//3 197//3 293//3
f 294//3 196//3 71//3
f 88//3 294//3 194//3
f 6//3 145//3 294//3
f 295//3 195//3 54//3
f 132//3 295//3 158//3
f 32//3 194//3 295//3
f 296//3 116//3 22//3
f 195//3 296//3 114//3
f 71//3 193//3 296//3
f 297//2 192//2 70//2
f 163//2 297//2 190//2
f 23//2 161//2 297//2
f 298//2 191//2 27//2
f 119//2 298//2 127//2
f 59//2 190//2 298//2
f 299//2 87//2 3//2
f 191//2 299//2 83//2
f 70//2 189//2 299//2
f 300//2 188//2 69//2
f 97//2 300//2 186//2
f 13//2 162//2 300//2
f 301//2 187//2 39//2
f 141//2 301//2 139//2
f 41//2 186//2 301//2
f 302//2 119//2 11//2
f 187//2 302//2 95//2
f 69//2 185//2 302//2
f 303//2 184//2 68//2
f 85//2 303//2 182//2
f 8//2 142//2 303//2
f 304//2 183//2 58//2
f 129//2 304//2 162//2
f 29//2 182//2 304//2
f 305//2 120//2 23//2
f 183//2 305//2 118//2
f 68//2 181//2 305//2
f 306//1 180//1 67//1
f 167//1 306//1 178//1
f 24//1 165//1 306//1
f 307//1 179//1 37//1
f 123//1 307//1 93//1
f 63//1 178//1 307//1
f 308//1 84//1 1//1
f 179//1 308//1 137//1
f 67//1 177//1 308//1
f 309//1 176//1 66//1
f 94//1 309//1 174//1
f 10//1 166//1 309//1
f 310//1 175//1 25//1
f 138//1 310//1 81//1
f 38//1 174//1 310//1
f 311//1 123//1 9//1
f 175//1 311//1 125//1
f 66//1 173//1 311//1
f 312//1 172//1 65//1
f 82//1 312//1 170//1
f 4//1 139//1 312//1
f 313//1 171//1 62//1
f 126//1 313//1 166//1
f 26//1 170//1 313//1
f 314//1 124//1 24//1
f 171//1 314//1 122//1
f 65//1 169//1 314//1
f 315//1 168//1 64//1
f 172//1 315//1 169//1
f 39//1 95//1 315//1
f 316//1 167//1 63//1
f 176//1 316//1 173//1
f 62//1 122//1 316//1
f 317//1 128//1 28//1
f 180//1 317//1 177//1
f 61//1 121//1 317//1
f 318//2 164//2 60//2
f 184//2 318//2 181//2
f 42//2 98//2 318//2
f 319//2 163//2 59//2
f 188//2 319//2 185//2
f 58//2 118//2 319//2
f 320//2 131//2 31//2
f 192//2 320//2 189//2
f 57//2 117//2 320//2
f 321//3 160//3 56//3
f 196//3 321//3 193//3
f 45//3 101//3 321//3
f 322//3 159//3 55//3
f 200//3 322//3 197//3
f 54//3 114//3 322//3
f 323//3 134//3 34//3
f 204//3 323//3 201//3
f 53//3 113//3 323//3
f 324//4 156//4 52//4
f 208//4 324//4 205//4
f 25//4 125//4 324//4
f 325//4 155//4 51//4
f 212//4 325//4 209//4
f 50//4 110//4 325//4
f 326//4 136//4 36//4
f 216//4 326//4 213//4
f 49//4 109//4 326//4
f 31//5 131//5 327//5
f 328//5 102//5 46//5
f 29//6 129//6 329//6
f 330//6 94//6 38//6
f 331//6 82//6 26//6
f 41//6 141//6 331//6
f 332//5 90//5 34//5
f 43//5 143//5 332//5
f 333//4 148//4 48//4
f 236//4 333//4 233//4
f 37//4 137//4 333//4
f 334//3 146//3 46//3
f 240//3 334//3 237//3
f 33//3 89//3 334//3
f 335//2 143//2 43//2
f 244//2 335//2 241//2
f 30//2 86//2 335//2
f 336//1 140//1 40//1
f 248//1 336//1 245//1
f 27//1 83//1 336//1
f 336//1 83//1 140//1
f 335//2 86//2 143//2
f 334//3 89//3 146//3
f 333//4 137//4 148//4
f 90//5 332//5 7//5
f 82//6 331//6 4//6
f 330//6 105//6 94//6
f 329//6 129//6 150//6
f 328//5 107//5 102//5
f 327//5 131//5 152//5
f 326//4 109//4 136//4
f 325//4 110//4 155//4
f 324//4 125//4 156//4
f 323//3 113//3 134//3
f 322//3 114//3 159//3
f 321//3 101//3 160//3
f 320//2 117//2 131//2
f 319//2 118//2 163//2
f 318//2 98//2 164//2
f 317//1 121//1 128//1
f 316//1 122//1 167//1
f 315//1 95//1 168//1
f 314//1 169//1 124//1
f 313//1 170//1 171//1
f 312//1 139//1 172//1
f 311//1 173//1 123//1
f 310//1 174//1 175//1
f 309//1 166//1 176//1
f 308//1 177//1 84//1
f 307//1 178//1 179//1
f 306//1 165//1 180//1
f 305//2 181//2 120//2
f 304//2 182//2 183//2
f 303//2 142//2 184//2
f 302//2 185//2 119//2
f 301//2 186//2 187//2
f 300//2 162//2 188//2
f 299//2 189//2 87//2
f 298//2 190//2 191//2
f 297//2 161//2 192//2
f 296//3 193//3 116//3
f 295//3 194//3 195//3
f 294//3 145//3 196//3
f 293//3 197//3 115//3
f 292//3 198//3 199//3
f 291//3 158//3 200//3
f 290//3 201//3 90//3
f 289//3 202//3 203//3
f 288//3 157//3 204//3
f 287//4 205//4 112//4
f 286//4 206//4 207//4
f 285//4 81//4 208//4
f 284//4 209//4 111//4
f 283//4 210//4 211//4
f 282//4 154//4 212//4
f 281//4 213//4 92//4
f 280//4 214//4 215//4
f 279//4 153//4 216//4
f 277//5 87//5 218//5
f 273//5 221//5 146//5
f 270//6 85//6 224//6
f 266//6 227//6 138//6
f 126//6 264//6 26//6
f 230//6 263//6 41//6
f 134//5 262//5 34//5
f 261//5 99//5 232//5
f 260//4 233//4 104//4
f 259//4 234//4 235//4
f 258//4 93//4 236//4
f 257//3 237//3 102//3
f 256//3 238//3 239//3
f 255//3 133//3 240//3
f 254//2 241//2 99//2
f 253//2 242//2 243//2
f 252//2 130//2 244//2
f 251//1 245//1 96//1
f 250//1 246//1 247//1
f 249//1 127//1 248//1
f 246//1 249//1 80//1
f 64//1 168//1 246//1
f 168//1 11//1 249//1
f 165//1 250//1 61//1
f 24//1 124//1 165//1
f 124//1 64//1 250//1
f 121//1 251//1 12//1
f 61//1 247//1 121//1
f 247//1 80//1 251//1
f 242//2 252//2 79//2
f 60//2 164//2 242//2
f 164//2 14//2 252//2
f 161//2 253//2 57//2
f 23//2 120//2 161//2
f 120//2 60//2 253//2
f 117//2 254//2 15//2
f 57//2 243//2 117//2
f 243//2 79//2 254//2
f 238//3 255//3 78//3
f 56//3 160//3 238//3
f 160//3 17//3 255//3
f 157//3 256//3 53//3
f 22//3 116//3 157//3
f 116//3 56//3 256//3
f 113//3 257//3 18//3
f 53//3 239//3 113//3
f 239//3 78//3 257//3
f 234//4 258//4 77//4
f 52//4 156//4 234//4
f 156//4 9//4 258//4
f 153//4 259//4 49//4
f 21//4 112//4 153//4
f 112//4 52//4 259//4
f 109//4 260//4 20//4
f 49//4 235//4 109//4
f 235//4 77//4 260//4
f 152//5 15//5 261//5
f 107//5 262//5 18//5
f 150//6 13//6 263//6
f 105//6 264//6 10//6
f 135//6 265//6 35//6
f 19//6 106//6 135//6
f 91//6 266//6 2//6
f 35//6 228//6 91//6
f 32//6 132//6 225//6
f 132//6 16//6 267//6
f 47//6 147//6 226//6
f 6//6 88//6 147//6
f 88//6 32//6 268//6
f 103//6 269//6 19//6
f 103//6 47//6 269//6
f 44//6 144//6 223//6
f 144//6 8//6 270//6
f 16//6 100//6 149//6
f 100//6 44//6 271//6
f 136//5 272//5 36//5
f 20//5 108//5 136//5
f 92//5 273//5 5//5
f 36//5 222//5 92//5
f 219//5 28//5 274//5
f 128//5 12//5 274//5
f 148//5 275//5 48//5
f 1//5 84//5 148//5
f 275//5 84//5 219//5
f 104//5 276//5 20//5
f 104//5 48//5 276//5
f 40//5 140//5 217//5
f 140//5 3//5 277//5
f 12//5 96//5 151//5
f 96//5 40//5 278//5
f 214//4 279//4 76//4
f 51//4 155//4 214//4
f 155//4 21//4 279//4
f 133//4 280//4 33//4
f 17//4 111//4 133//4
f 111//4 51//4 280//4
f 89//4 281//4 5//4
f 33//4 215//4 89//4
f 215//4 76//4 281//4
f 210//4 282//4 75//4
f 47//4 103//4 210//4
f 103//4 19//4 282//4
f 145//4 283//4 45//4
f 6//4 147//4 145//4
f 147//4 47//4 283//4
f 101//4 284//4 17//4
f 45//4 211//4 101//4
f 211//4 75//4 284//4
f 206//4 285//4 74//4
f 35//4 91//4 206//4
f 91//4 2//4 285//4
f 154//4 286//4 50//4
f 19//4 135//4 154//4
f 135//4 35//4 286//4
f 110//4 287//4 21//4
f 50//4 207//4 110//4
f 207//4 74//4 287//4
f 202//3 288//3 73//3
f 55//3 159//3 202//3
f 159//3 22//3 288//3
f 130//3 289//3 30//3
f 14//3 115//3 130//3
f 115//3 55//3 289//3
f 86//3 290//3 7//3
f 30//3 203//3 86//3
f 203//3 73//3 290//3
f 198//3 291//3 72//3
f 44//3 100//3 198//3
f 100//3 16//3 291//3
f 142//3 292//3 42//3
f 8//3 144//3 142//3
f 144//3 44//3 292//3
f 98//3 293//3 14//3
f 42//3 199//3 98//3
f 199//3 72//3 293//3
f 194//3 294//3 71//3
f 32//3 88//3 194//3
f 88//3 6//3 294//3
f 158//3 295//3 54//3
f 16//3 132//3 158//3
f 132//3 32//3 295//3
f 114//3 296//3 22//3
f 54//3 195//3 114//3
f 195//3 71//3 296//3
f 190//2 297//2 70//2
f 59//2 163//2 190//2
f 163//2 23//2 297//2
f 127//2 298//2 27//2
f 11//2 119//2 127//2
f 119//2 59//2 298//2
f 83//2 299//2 3//2
f 27//2 191//2 83//2
f 191//2 70//2 299//2
f 186//2 300//2 69//2
f 41//2 97//2 186//2
f 97//2 13//2 300//2
f 139//2 301//2 39//2
f 4//2 141//2 139//2
f 141//2 41//2 301//2
f 95//2 302//2 11//2
f 39//2 187//2 95//2
f 187//2 69//2 302//2
f 182//2 303//2 68//2
f 29//2 85//2 182//2
f 85//2 8//2 303//2
f 162//2 304//2 58//2
f 13//2 129//2 162//2
f 129//2 29//2 304//2
f 118//2 305//2 23//2
f 58//2 183//2 118//2
f 183//2 68//2 305//2
f 178//1 306//1 67//1
f 63//1 167//1 178//1
f 167//1 24//1 306//1
f 93//1 307//1 37//1
f 9//1 123//1 93//1
f 123//1 63//1 307//1
f 137//1 308//1 1//1
f 37//1 179//1 137//1
f 179//1 67//1 308//1
f 174//1 309//1 66//1
f 38//1 94//1 174//1
f 94//1 10//1 309//1
f 81//1 310//1 25//1
f 2//1 138//1 81//1
f 138//1 38//1 310//1
f 125//1 311//1 9//1
f 25//1 175//1 125//1
f 175//1 66//1 311//1
f 170//1 312//1 65//1
f 26//1 82//1 170//1
f 82//1 4//1 312//1
f 166//1 313//1 62//1
f 10//1 126//1 166//1
f 126//1 26//1 313//1
f 122//1 314//1 24//1
f 62//1 171//1 122//1
f 171//1 65//1 314//1
f 169//1 315//1 64//1
f 65//1 172//1 169//1
f 172//1 39//1 315//1
f 173//1 316//1 63//1
f 66//1 176//1 173//1
f 176//1 62//1 316//1
f 177//1 317//1 28//1
f 67//1 180//1 177//1
f 180//1 61//1 317//1
f 181//2 318//2 60//2
f 68//2 184//2 181//2
f 184//2 42//2 318//2
f 185//2 319//2 59//2
f 69//2 188//2 185//2
f 188//2 58//2 319//2
f 189//2 320//2 31//2
f 70//2 192//2 189//2
f 192//2 57//2 320//2
f 193//3 321//3 56//3
f 71//3 196//3 193//3
f 196//3 45//3 321//3
f 197//3 322//3 55//3
f 72//3 200//3 197//3
f 200//3 54//3 322//3
f 201//3 323//3 34//3
f 73//3 204//3 201//3
f 204//3 53//3 323//3
f 205//4 324//4 52//4
f 74//4 208//4 205//4
f 208//4 25//4 324//4
f 209//4 325//4 51//4
f 75//4 212//4 209//4
f 212//4 50//4 325//4
f 213//4 326//4 36//4
f 76//4 216//4 213//4
f 216//4 49//4 326//4
f 218//5 31//5 327//5
f 221//5 328//5 46//5
f 224//6 29//6 329//6
f 227//6 330//6 38//6
f 229//6 331//6 26//6
f 230//6 41//6 331//6
f 231//5 332//5 34//5
f 232//5 43//5 332//5
f 233//4 333//4 48//4
f 77//4 236//4 233//4
f 236//4 37//4 333//4
f 237//3 334//3 46//3
f 78//3 240//3 237//3
f 240//3 33//3 334//3
f 241//2 335//2 43//2
f 79//2 244//2 241//2
f 244//2 30//2 335//2
f 245//1 336//1 40//1
f 80//1 248//1 245//1
f 248//1 27//1 336//1
