# Blender v2.74 (sub 0) OBJ File: ''
# www.blender.org
mtllib cloud.mtl
o Icosphere_Icosphere.001
v 0.000000 0.025948 0.000000
v 0.723607 0.578729 0.525725
v -0.276388 0.823550 1.304429
v -0.894426 0.578733 0.000000
v -0.276388 0.578728 -1.295334
v 0.723607 0.578729 -0.970410
v 0.276388 1.717989 1.304429
v -0.992242 1.473168 0.525725
v -0.992242 1.473168 -0.525725
v 0.276388 1.717989 -0.850649
v 1.077684 1.473164 0.000000
v 0.000000 2.025948 0.000000
v -0.162456 0.175294 0.499995
v 0.425323 0.175294 0.309011
v 0.262869 0.745032 1.262791
v 0.850648 0.500212 0.000000
v 0.425323 0.175294 -0.309011
v -0.525730 0.175296 0.000000
v -0.688189 0.500212 0.499997
v -0.162456 0.175294 -0.499995
v -0.688189 0.500212 -0.499997
v 0.262869 0.500211 -1.253696
v 1.134316 1.025948 0.309013
v 0.951058 1.025948 -0.753698
v 0.000000 1.270770 1.453780
v 0.587786 1.270770 1.262796
v -1.219693 1.025948 0.309013
v -0.856421 1.025948 0.809017
v -0.587786 1.270770 -1.253702
v -0.951058 1.025948 -0.309013
v 0.587786 1.270770 -0.809017
v 0.000000 1.270770 -1.444685
v 0.688189 1.551684 0.499997
v -0.262869 1.796507 1.262791
v -1.119283 1.551684 0.000000
v -0.531504 1.796507 -0.809012
v 0.688189 1.796506 -0.499997
v 0.162456 1.876603 0.499995
v 0.525730 1.876600 0.000000
v -0.693958 1.876602 0.309011
v -0.693958 1.876602 -0.309011
v 0.162456 1.876603 -0.499995
vn 0.102400 -0.943500 0.315100
vn 0.700200 -0.661700 0.268000
vn -0.268000 -0.943500 0.194700
vn -0.268000 -0.943500 -0.194700
vn 0.102400 -0.943500 -0.315100
vn 0.770800 -0.575900 0.272300
vn 0.024700 -0.330400 0.943500
vn -0.724300 -0.661400 0.194900
vn -0.820400 -0.341600 -0.458500
vn 0.465900 0.286700 -0.837100
vn 0.736800 -0.419800 0.530000
vn -0.619200 0.123700 0.775500
vn -0.854000 -0.364600 -0.371200
vn -0.308000 -0.081600 -0.947900
vn 0.323000 0.274600 -0.905700
vn 0.523500 0.847000 0.092900
vn -0.652600 0.671300 0.351400
vn -0.700200 0.661700 -0.268000
vn 0.068900 0.917200 -0.392500
vn 0.589000 0.805800 0.062300
vn 0.268000 0.943500 -0.194700
vn 0.149700 0.982700 -0.108800
vn 0.139900 0.918400 -0.370000
vn -0.068200 0.949600 -0.305800
vn -0.037900 0.984700 -0.170100
vn -0.668900 0.668800 -0.324500
vn -0.210400 0.977600 0.000000
vn -0.607100 0.794700 0.000000
vn -0.700200 0.661700 0.268000
vn -0.068200 0.949600 0.305800
vn -0.020700 0.995500 0.093000
vn 0.128700 0.976300 0.174300
vn 0.268000 0.943500 0.194700
vn 0.491100 0.794700 0.356800
vn 0.559900 0.766000 0.315900
vn 0.829100 0.408500 -0.381700
vn 0.399200 0.406700 -0.821700
vn 0.574600 0.330400 -0.748800
vn 0.044900 0.787900 -0.614100
vn -0.236900 0.642100 -0.729100
vn -0.681200 0.513900 -0.521400
vn -0.960800 -0.187400 -0.204200
vn -0.915500 -0.059000 -0.397900
vn -0.905000 0.330400 0.268000
vn -0.738000 0.186600 0.648500
vn -0.599800 -0.009200 0.800100
vn -0.024700 0.330400 0.943500
vn 0.796000 0.526500 0.298700
vn 0.778000 0.549500 0.304700
vn 0.739500 0.443500 0.506400
vn 0.670000 0.408900 -0.619600
vn 0.731800 0.081900 -0.676600
vn 0.042100 -0.226800 -0.973000
vn -0.870500 -0.277200 -0.406600
vn -0.867400 -0.285600 -0.407600
vn -0.889700 -0.330400 -0.315100
vn -0.802600 0.125600 0.583100
vn -0.692400 -0.517200 0.503000
vn -0.650400 -0.528700 0.545400
vn 0.306600 0.125600 0.943500
vn 0.303500 -0.187600 0.934200
vn 0.713100 -0.440700 0.545200
vn 0.985400 0.007400 -0.169900
vn 0.904700 -0.396400 -0.156000
vn 0.908800 -0.389300 -0.150500
vn 0.366700 -0.858600 -0.358400
vn 0.110500 -0.933800 -0.340200
vn -0.096100 -0.893200 -0.439300
vn -0.495200 -0.801300 -0.335500
vn -0.491100 -0.794700 -0.356800
vn -0.724000 -0.661700 -0.194700
vn -0.724000 -0.661700 0.194700
vn -0.491100 -0.794700 0.356800
vn -0.448600 -0.725900 0.521400
vn 0.665500 -0.731900 -0.146300
vn 0.607100 -0.794700 0.000000
vn 0.331300 -0.943500 0.000000
vn -0.065900 -0.781500 0.620400
vn 0.171100 -0.832700 0.526600
vn 0.549700 -0.672600 0.495400
usemtl Material.001
s off
f 1//1 14//1 13//1
f 2//2 14//2 16//2
f 1//3 13//3 18//3
f 1//4 18//4 20//4
f 1//5 20//5 17//5
f 2//6 16//6 23//6
f 3//7 15//7 25//7
f 4//8 19//8 27//8
f 5//9 21//9 29//9
f 6//10 22//10 31//10
f 2//11 23//11 26//11
f 3//12 25//12 28//12
f 4//13 27//13 30//13
f 5//14 29//14 32//14
f 6//15 31//15 24//15
f 7//16 33//16 38//16
f 8//17 34//17 40//17
f 9//18 35//18 41//18
f 10//19 36//19 42//19
f 11//20 37//20 39//20
f 39//21 42//21 12//21
f 39//22 37//22 42//22
f 37//23 10//23 42//23
f 42//24 41//24 12//24
f 42//25 36//25 41//25
f 36//26 9//26 41//26
f 41//27 40//27 12//27
f 41//28 35//28 40//28
f 35//29 8//29 40//29
f 40//30 38//30 12//30
f 40//31 34//31 38//31
f 34//32 7//32 38//32
f 38//33 39//33 12//33
f 38//34 33//34 39//34
f 33//35 11//35 39//35
f 24//36 37//36 11//36
f 24//37 31//37 37//37
f 31//38 10//38 37//38
f 32//39 36//39 10//39
f 32//40 29//40 36//40
f 29//41 9//41 36//41
f 30//42 35//42 9//42
f 30//43 27//43 35//43
f 27//44 8//44 35//44
f 28//45 34//45 8//45
f 28//46 25//46 34//46
f 25//47 7//47 34//47
f 26//48 33//48 7//48
f 26//49 23//49 33//49
f 23//50 11//50 33//50
f 31//51 32//51 10//51
f 31//52 22//52 32//52
f 22//53 5//53 32//53
f 29//54 30//54 9//54
f 29//55 21//55 30//55
f 21//56 4//56 30//56
f 27//57 28//57 8//57
f 27//58 19//58 28//58
f 19//59 3//59 28//59
f 25//60 26//60 7//60
f 25//61 15//61 26//61
f 15//62 2//62 26//62
f 23//63 24//63 11//63
f 23//64 16//64 24//64
f 16//65 6//65 24//65
f 17//66 22//66 6//66
f 17//67 20//67 22//67
f 20//68 5//68 22//68
f 20//69 21//69 5//69
f 20//70 18//70 21//70
f 18//71 4//71 21//71
f 18//72 19//72 4//72
f 18//73 13//73 19//73
f 13//74 3//74 19//74
f 16//75 17//75 6//75
f 16//76 14//76 17//76
f 14//77 1//77 17//77
f 13//78 15//78 3//78
f 13//79 14//79 15//79
f 14//80 2//80 15//80
