# Blender v2.74 (sub 0) OBJ File: ''
# www.blender.org
mtllib lightball.mtl
o Icosphere
v -0.008921 0.007202 0.001737
v 0.058461 0.022509 0.050693
v -0.034659 0.022509 0.080949
v 0.241340 0.198386 0.183562
v 0.200130 0.130735 0.153621
v 0.267511 0.182211 0.104666
v -0.092210 0.022509 0.001737
v -0.034659 0.022509 -0.077475
v 0.058461 0.022509 -0.047218
v 0.283418 0.265500 0.153621
v -0.104513 0.198386 0.295937
v -0.021389 0.182211 0.296446
v -0.063034 0.265500 0.326703
v -0.318262 0.198386 0.001737
v -0.293060 0.182211 0.080949
v -0.334705 0.265500 0.050694
v -0.104513 0.198386 -0.292462
v -0.172061 0.182211 -0.244016
v -0.156154 0.265500 -0.292972
v 0.241340 0.198386 -0.180087
v 0.174392 0.182211 -0.229358
v 0.225867 0.265500 -0.229358
v 0.225867 0.265500 0.232833
v -0.156154 0.265500 0.296446
v -0.334705 0.265500 -0.047218
v -0.063034 0.265500 -0.323228
v 0.283418 0.265500 -0.150146
v 0.086669 0.507728 0.295937
v 0.154217 0.523903 0.247491
v 0.070928 0.575379 0.247491
v -0.259184 0.507728 0.183562
v -0.192236 0.523903 0.232833
v -0.217973 0.575379 0.153621
v -0.259184 0.507728 -0.180087
v -0.285355 0.523903 -0.101190
v -0.217973 0.575379 -0.150146
v 0.086669 0.507728 -0.292462
v 0.003546 0.523903 -0.292972
v 0.070928 0.575379 -0.244015
v 0.300418 0.507728 0.001737
v 0.275217 0.523903 -0.077475
v 0.249479 0.575379 0.001737
v 0.168416 0.639999 0.001737
v 0.114464 0.653899 -0.087908
v 0.074366 0.683604 0.001737
v 0.204978 0.597958 -0.087908
v 0.223217 0.530397 -0.166921
v 0.154217 0.523903 -0.244016
v 0.142434 0.597958 -0.173990
v 0.045878 0.639999 -0.166921
v -0.056051 0.653899 -0.143311
v 0.016815 0.683604 -0.077475
v -0.028081 0.597958 -0.229394
v -0.097591 0.530397 -0.271158
v -0.192236 0.523903 -0.229358
v -0.129278 0.597958 -0.196513
v -0.152392 0.639999 -0.102499
v -0.161436 0.653899 0.001737
v -0.076304 0.683605 -0.047218
v -0.234662 0.597959 -0.051465
v -0.295862 0.530397 0.001737
v -0.285355 0.523903 0.104666
v -0.234662 0.597959 0.054939
v -0.152392 0.639999 0.105974
v -0.056051 0.653899 0.146786
v -0.076304 0.683605 0.050693
v -0.129278 0.597958 0.199988
v -0.097591 0.530397 0.274633
v 0.003546 0.523903 0.296446
v -0.028081 0.597958 0.232869
v 0.045878 0.639999 0.170396
v 0.114464 0.653899 0.091382
v 0.016815 0.683604 0.080949
v 0.142434 0.597958 0.177466
v 0.223218 0.530397 0.170396
v 0.275217 0.523903 0.080949
v 0.204978 0.597958 0.091382
v 0.311887 0.353057 -0.102499
v 0.281234 0.445444 -0.143311
v 0.316861 0.440614 -0.047218
v 0.263948 0.354930 -0.196513
v 0.189349 0.353057 -0.271158
v 0.138311 0.440614 -0.292972
v 0.218691 0.445444 -0.229394
v -0.008922 0.353057 -0.335580
v -0.057209 0.445444 -0.319039
v 0.045191 0.440614 -0.323228
v -0.113149 0.354930 -0.319039
v -0.207193 0.353057 -0.271158
v -0.243711 0.440614 -0.229359
v -0.158406 0.445444 -0.286158
v -0.329731 0.353057 -0.102499
v -0.328921 0.445444 -0.051465
v -0.301262 0.440614 -0.150146
v -0.346208 0.354930 0.001737
v -0.329731 0.353057 0.105974
v -0.301262 0.440614 0.153621
v -0.328921 0.445444 0.054939
v -0.207193 0.353057 0.274633
v -0.158406 0.445444 0.289633
v -0.243711 0.440614 0.232833
v -0.113149 0.354930 0.322514
v -0.008922 0.353057 0.339055
v 0.045191 0.440614 0.326703
v -0.057209 0.445444 0.322514
v 0.189349 0.353057 0.274633
v 0.218691 0.445444 0.232869
v 0.138311 0.440614 0.296446
v 0.263948 0.354930 0.199988
v 0.311887 0.353057 0.105974
v 0.316861 0.440614 0.050694
v 0.281234 0.445444 0.146786
v 0.095305 0.351184 -0.319039
v 0.140562 0.260670 -0.286158
v 0.079748 0.175717 -0.271158
v -0.021389 0.182211 -0.292972
v 0.039365 0.260670 -0.319039
v -0.281792 0.351184 -0.196513
v -0.236535 0.260671 -0.229394
v -0.241061 0.175717 -0.166921
v -0.293060 0.182211 -0.077475
v -0.299078 0.260671 -0.143311
v -0.281792 0.351184 0.199988
v -0.299078 0.260671 0.146786
v -0.241061 0.175717 0.170396
v -0.172061 0.182211 0.247491
v -0.236535 0.260671 0.232869
v 0.095305 0.351184 0.322514
v 0.039365 0.260670 0.322514
v 0.079748 0.175717 0.274633
v 0.174392 0.182211 0.232833
v 0.140562 0.260670 0.289633
v 0.328364 0.351184 0.001737
v 0.311078 0.260670 0.054939
v 0.278018 0.175717 0.001737
v 0.267511 0.182211 -0.101190
v 0.311078 0.260670 -0.051465
v 0.134549 0.066115 -0.102499
v 0.111435 0.108155 -0.196513
v 0.200130 0.130735 -0.150146
v 0.038208 0.052215 -0.143311
v -0.063722 0.066115 -0.166921
v -0.088772 0.130735 -0.244016
v 0.010238 0.108155 -0.229394
v -0.160278 0.108156 -0.173990
v -0.132308 0.052215 -0.087908
v -0.186260 0.066115 0.001737
v -0.267323 0.130735 0.001737
v -0.222821 0.108156 -0.087908
v -0.222821 0.108156 0.091382
v -0.132308 0.052215 0.091382
v -0.063722 0.066115 0.170396
v -0.088772 0.130735 0.247491
v -0.160278 0.108156 0.177466
v 0.216819 0.108155 -0.051465
v 0.216819 0.108155 0.054939
v 0.134549 0.066115 0.105974
v 0.143592 0.052215 0.001737
v 0.010238 0.108155 0.232869
v 0.038208 0.052215 0.146786
v 0.111435 0.108155 0.199988
v -0.008923 0.698912 0.001737
vn -0.068500 0.975200 -0.210700
vn -0.717300 0.596400 -0.360200
vn 0.179200 0.975200 -0.130200
vn 0.179200 0.975200 0.130200
vn -0.068500 0.975200 0.210700
vn -0.854200 0.374900 -0.360200
vn 0.078600 0.374900 -0.923700
vn 0.902800 0.374900 -0.210700
vn 0.479400 0.374900 0.793500
vn -0.606600 0.374900 0.701100
vn -0.785800 0.238000 -0.570900
vn 0.300100 0.238000 -0.923700
vn 0.971300 0.238000 0.000000
vn 0.300100 0.238000 0.923700
vn -0.785800 0.238000 0.570900
vn -0.368600 -0.596400 -0.713100
vn 0.564300 -0.596400 -0.570900
vn 0.717300 -0.596400 0.360200
vn -0.120900 -0.596400 0.793500
vn -0.792100 -0.596400 0.130200
vn -0.418000 -0.901500 0.111800
vn -0.517000 -0.836500 0.181400
vn -0.561900 -0.613800 0.554600
vn -0.022900 -0.901500 0.432100
vn 0.012800 -0.836500 0.547800
vn 0.353800 -0.613800 0.705700
vn 0.403900 -0.901500 0.155300
vn 0.524900 -0.836500 0.157100
vn 0.780500 -0.613800 -0.118400
vn 0.272500 -0.901500 -0.336100
vn 0.311600 -0.836500 -0.450700
vn 0.128600 -0.613800 -0.778900
vn -0.235500 -0.901500 -0.363000
vn -0.332300 -0.836500 -0.435600
vn -0.701100 -0.613800 -0.363000
vn -0.928200 -0.159500 0.336100
vn -0.887600 -0.095400 0.450700
vn -0.606500 -0.159500 0.778900
vn 0.032800 -0.159500 0.986700
vn 0.154400 -0.095400 0.983400
vn 0.553400 -0.159500 0.817500
vn 0.948500 -0.159500 0.273700
vn 0.983000 -0.095400 0.157100
vn 0.948500 -0.159500 -0.273700
vn 0.553400 -0.159500 -0.817500
vn 0.453200 -0.095400 -0.886300
vn 0.032800 -0.159500 -0.986700
vn -0.606500 -0.159500 -0.778900
vn -0.702900 -0.095400 -0.704900
vn -0.928200 -0.159500 -0.336100
vn -0.452700 -0.042000 0.890700
vn -0.453200 0.095400 0.886300
vn -0.164900 0.423600 0.890700
vn 0.707200 -0.042000 0.705700
vn 0.702900 0.095400 0.704900
vn 0.796100 0.423600 0.432100
vn 0.889700 -0.042000 -0.454500
vn 0.887600 0.095400 -0.450700
vn 0.657000 0.423600 -0.623700
vn -0.157300 -0.042000 -0.986700
vn -0.154400 0.095400 -0.983400
vn -0.390100 0.423600 -0.817500
vn -0.987000 -0.042000 -0.155300
vn -0.983000 0.095400 -0.157100
vn -0.898100 0.423600 0.118400
vn -0.435400 0.777000 0.454500
vn -0.311600 0.836500 0.450700
vn 0.085100 0.777000 0.623700
vn 0.297700 0.777000 0.554600
vn 0.332300 0.836500 0.435600
vn 0.619400 0.777000 0.111800
vn 0.619400 0.777000 -0.111800
vn 0.517000 0.836500 -0.181500
vn 0.297700 0.777000 -0.554600
vn -0.780500 0.613800 0.118400
vn -0.741100 0.671300 0.000000
vn -0.403900 0.901500 -0.155300
vn 0.085100 0.777000 -0.623700
vn -0.012800 0.836500 -0.547800
vn -0.435400 0.777000 -0.454500
vn -0.353800 0.613800 -0.705700
vn -0.473000 0.660600 -0.583000
vn -0.564300 0.596400 -0.570900
vn -0.229000 0.671300 -0.704900
vn -0.187600 0.794700 -0.577400
vn -0.311600 0.836500 -0.450700
vn 0.120900 0.596400 -0.793500
vn 0.040000 0.660600 -0.749600
vn -0.128600 0.613800 -0.778900
vn -0.403900 0.901500 0.155300
vn -0.329500 0.944200 0.000000
vn -0.221500 0.975200 0.000000
vn -0.524900 0.836500 0.157100
vn -0.607100 0.794700 0.000000
vn -0.524900 0.836500 -0.157100
vn -0.717300 0.596400 0.360200
vn -0.700600 0.660600 0.269700
vn -0.566800 0.777000 0.273700
vn 0.561900 0.613800 -0.554600
vn 0.408300 0.660600 -0.630000
vn 0.368600 0.596400 -0.713100
vn 0.599600 0.671400 -0.435600
vn 0.491100 0.794700 -0.356800
vn 0.332300 0.836500 -0.435600
vn 0.792100 0.596400 -0.130200
vn 0.725300 0.660600 -0.193700
vn 0.701100 0.613800 -0.363000
vn 0.701100 0.613800 0.363000
vn 0.725300 0.660600 0.193700
vn 0.792100 0.596400 0.130200
vn 0.599600 0.671400 0.435600
vn 0.491100 0.794700 0.356800
vn 0.517000 0.836500 0.181500
vn 0.368600 0.596400 0.713100
vn 0.408300 0.660600 0.630000
vn 0.561900 0.613800 0.554600
vn -0.128600 0.613800 0.778900
vn 0.040000 0.660600 0.749600
vn 0.120900 0.596400 0.793500
vn -0.229000 0.671300 0.704900
vn -0.187600 0.794700 0.577400
vn -0.012800 0.836500 0.547800
vn -0.564200 0.596400 0.570900
vn -0.473000 0.660600 0.583000
vn -0.353800 0.613800 0.705700
vn -0.948500 0.159500 0.273700
vn -0.904200 0.331200 0.269700
vn -0.854200 0.374900 0.360200
vn -0.983000 0.095400 0.157100
vn -0.982200 0.187600 0.000000
vn -0.931900 0.362700 0.000000
vn -0.971300 -0.238000 0.000000
vn -0.991800 -0.127600 0.000000
vn -0.987000 -0.042000 0.155300
vn -0.553400 0.159500 -0.817500
vn -0.535900 0.331200 -0.776600
vn -0.606600 0.374900 -0.701100
vn -0.453200 0.095400 -0.886300
vn -0.303500 0.187600 -0.934200
vn -0.288000 0.362700 -0.886300
vn -0.300100 -0.238000 -0.923700
vn -0.306500 -0.127600 -0.943300
vn -0.452700 -0.042000 -0.890700
vn 0.606500 0.159500 -0.778900
vn 0.573000 0.331200 -0.749600
vn 0.479400 0.374900 -0.793500
vn 0.702900 0.095400 -0.704900
vn 0.794700 0.187600 -0.577400
vn 0.753900 0.362700 -0.547800
vn 0.785800 -0.238000 -0.570900
vn 0.802400 -0.127600 -0.583000
vn 0.707200 -0.042000 -0.705700
vn 0.928200 0.159500 0.336100
vn 0.890000 0.331200 0.313300
vn 0.902800 0.374900 0.210700
vn 0.887600 0.095400 0.450700
vn 0.794700 0.187600 0.577400
vn 0.753900 0.362700 0.547800
vn 0.785800 -0.238000 0.570900
vn 0.802400 -0.127600 0.583000
vn 0.889700 -0.042000 0.454500
vn -0.032800 0.159500 0.986700
vn -0.023000 0.331200 0.943300
vn 0.078600 0.374900 0.923700
vn -0.154300 0.095400 0.983400
vn -0.303500 0.187600 0.934200
vn -0.288000 0.362700 0.886300
vn -0.300100 -0.238000 0.923700
vn -0.306500 -0.127600 0.943300
vn -0.157300 -0.042000 0.986700
vn -0.796100 -0.423600 -0.432100
vn -0.890000 -0.331200 -0.313300
vn -0.902800 -0.374900 -0.210700
vn -0.753900 -0.362700 -0.547800
vn -0.794700 -0.187600 -0.577400
vn -0.887600 -0.095400 -0.450700
vn -0.479400 -0.374900 -0.793500
vn -0.573000 -0.331200 -0.749600
vn -0.657000 -0.423600 -0.623700
vn 0.164900 -0.423600 -0.890700
vn 0.023000 -0.331200 -0.943300
vn -0.078600 -0.374900 -0.923700
vn 0.288000 -0.362700 -0.886300
vn 0.303500 -0.187600 -0.934200
vn 0.154400 -0.095400 -0.983400
vn 0.606600 -0.374900 -0.701100
vn 0.535900 -0.331200 -0.776600
vn 0.390100 -0.423600 -0.817500
vn 0.898100 -0.423600 -0.118400
vn 0.904200 -0.331200 -0.269700
vn 0.854200 -0.374900 -0.360200
vn 0.931900 -0.362700 0.000000
vn 0.982200 -0.187600 0.000000
vn 0.983000 -0.095400 -0.157100
vn 0.854200 -0.374900 0.360200
vn 0.904200 -0.331200 0.269700
vn 0.898100 -0.423600 0.118400
vn 0.390100 -0.423600 0.817500
vn 0.535900 -0.331200 0.776600
vn 0.606600 -0.374900 0.701100
vn 0.288000 -0.362700 0.886300
vn 0.303500 -0.187600 0.934200
vn 0.453200 -0.095400 0.886300
vn -0.078600 -0.374900 0.923700
vn 0.023000 -0.331200 0.943300
vn 0.164900 -0.423600 0.890700
vn -0.657000 -0.423600 0.623700
vn -0.573000 -0.331200 0.749600
vn -0.479400 -0.374900 0.793500
vn -0.753900 -0.362700 0.547800
vn -0.794700 -0.187600 0.577400
vn -0.702900 -0.095400 0.704900
vn -0.902800 -0.374900 0.210700
vn -0.890000 -0.331200 0.313300
vn -0.796100 -0.423600 0.432100
vn -0.619400 -0.777000 -0.111800
vn -0.725300 -0.660600 -0.193700
vn -0.792100 -0.596400 -0.130200
vn -0.517000 -0.836500 -0.181400
vn -0.491100 -0.794700 -0.356800
vn -0.599600 -0.671400 -0.435600
vn -0.179200 -0.975200 -0.130200
vn -0.266500 -0.944200 -0.193600
vn -0.418000 -0.901500 -0.111800
vn -0.085100 -0.777000 -0.623700
vn -0.040000 -0.660600 -0.749600
vn -0.120900 -0.596400 -0.793500
vn 0.012800 -0.836500 -0.547800
vn 0.187600 -0.794700 -0.577400
vn 0.229000 -0.671400 -0.704900
vn 0.068500 -0.975200 -0.210700
vn 0.101800 -0.944200 -0.313300
vn -0.022900 -0.901500 -0.432100
vn 0.566800 -0.777000 -0.273700
vn 0.700600 -0.660600 -0.269700
vn 0.717300 -0.596400 -0.360200
vn 0.524900 -0.836500 -0.157100
vn 0.607100 -0.794700 0.000000
vn 0.741100 -0.671300 0.000000
vn 0.221500 -0.975200 0.000000
vn 0.329500 -0.944200 0.000000
vn 0.403900 -0.901500 -0.155300
vn 0.435400 -0.777000 0.454500
vn 0.473000 -0.660600 0.583000
vn 0.564200 -0.596400 0.570900
vn 0.311600 -0.836500 0.450700
vn 0.187600 -0.794700 0.577400
vn 0.229000 -0.671300 0.704900
vn 0.068500 -0.975200 0.210700
vn 0.101800 -0.944200 0.313300
vn 0.272500 -0.901500 0.336100
vn -0.297700 -0.777000 0.554600
vn -0.408300 -0.660600 0.630000
vn -0.368600 -0.596400 0.713100
vn -0.332300 -0.836500 0.435600
vn -0.491100 -0.794700 0.356800
vn -0.599600 -0.671400 0.435600
vn -0.179200 -0.975200 0.130200
vn -0.266500 -0.944200 0.193600
vn -0.235500 -0.901500 0.363000
vn -0.619400 -0.777000 0.111800
vn -0.725300 -0.660600 0.193700
vn -0.701100 -0.613800 0.363000
vn -0.085100 -0.777000 0.623700
vn -0.040000 -0.660600 0.749600
vn 0.128600 -0.613800 0.778900
vn 0.566800 -0.777000 0.273700
vn 0.700600 -0.660600 0.269700
vn 0.780500 -0.613800 0.118400
vn 0.435400 -0.777000 -0.454500
vn 0.473000 -0.660600 -0.583000
vn 0.353800 -0.613800 -0.705700
vn -0.297700 -0.777000 -0.554600
vn -0.408300 -0.660600 -0.630000
vn -0.561900 -0.613800 -0.554600
vn -0.889700 0.041900 0.454500
vn -0.802400 0.127600 0.583000
vn -0.707200 0.041900 0.705700
vn 0.157300 0.042000 0.986700
vn 0.306500 0.127600 0.943300
vn 0.452700 0.042000 0.890700
vn 0.987000 0.042000 0.155300
vn 0.991800 0.127600 0.000000
vn 0.987000 0.042000 -0.155300
vn 0.452700 0.042000 -0.890700
vn 0.306500 0.127600 -0.943300
vn 0.157300 0.042000 -0.986700
vn -0.707200 0.042000 -0.705700
vn -0.802400 0.127600 -0.583000
vn -0.889700 0.041900 -0.454500
vn -0.553400 0.159500 0.817500
vn -0.535900 0.331200 0.776600
vn -0.390100 0.423600 0.817500
vn 0.606500 0.159500 0.778900
vn 0.573000 0.331200 0.749600
vn 0.657000 0.423600 0.623700
vn 0.928200 0.159500 -0.336100
vn 0.890000 0.331200 -0.313300
vn 0.796100 0.423600 -0.432100
vn -0.032800 0.159500 -0.986700
vn -0.023000 0.331200 -0.943300
vn -0.164900 0.423600 -0.890700
vn -0.948500 0.159500 -0.273700
vn -0.904200 0.331200 -0.269600
vn -0.898100 0.423600 -0.118400
vn -0.272500 0.901500 0.336100
vn -0.101800 0.944200 0.313300
vn 0.022900 0.901500 0.432100
vn 0.235500 0.901500 0.363000
vn 0.266500 0.944200 0.193700
vn 0.418000 0.901500 0.111800
vn 0.418000 0.901500 -0.111800
vn 0.266500 0.944200 -0.193700
vn 0.235500 0.901500 -0.363000
vn -0.780500 0.613800 -0.118400
vn -0.700600 0.660600 -0.269700
vn -0.566800 0.777000 -0.273700
vn 0.022900 0.901500 -0.432100
vn -0.101800 0.944200 -0.313300
vn -0.272500 0.901500 -0.336100
usemtl Material.001
s 1
f 1//1 3//1 2//1
f 4//2 6//2 5//2
f 1//3 7//3 3//3
f 1//4 8//4 7//4
f 1//5 9//5 8//5
f 4//6 10//6 6//6
f 11//7 13//7 12//7
f 14//8 16//8 15//8
f 17//9 19//9 18//9
f 20//10 22//10 21//10
f 4//11 23//11 10//11
f 11//12 24//12 13//12
f 14//13 25//13 16//13
f 17//14 26//14 19//14
f 20//15 27//15 22//15
f 28//16 30//16 29//16
f 31//17 33//17 32//17
f 34//18 36//18 35//18
f 37//19 39//19 38//19
f 40//20 42//20 41//20
f 43//21 45//21 44//21
f 43//22 44//22 46//22
f 47//23 49//23 48//23
f 50//24 52//24 51//24
f 50//25 51//25 53//25
f 54//26 56//26 55//26
f 57//27 59//27 58//27
f 57//28 58//28 60//28
f 61//29 63//29 62//29
f 64//30 66//30 65//30
f 64//31 65//31 67//31
f 68//32 70//32 69//32
f 71//33 73//33 72//33
f 71//34 72//34 74//34
f 75//35 77//35 76//35
f 78//36 80//36 79//36
f 78//37 79//37 81//37
f 82//38 84//38 83//38
f 85//39 87//39 86//39
f 85//40 86//40 88//40
f 89//41 91//41 90//41
f 92//42 94//42 93//42
f 92//43 93//43 95//43
f 96//44 98//44 97//44
f 99//45 101//45 100//45
f 99//46 100//46 102//46
f 103//47 105//47 104//47
f 106//48 108//48 107//48
f 106//49 107//49 109//49
f 110//50 112//50 111//50
f 82//51 83//51 113//51
f 82//52 113//52 114//52
f 115//53 117//53 116//53
f 89//54 90//54 118//54
f 89//55 118//55 119//55
f 120//56 122//56 121//56
f 96//57 97//57 123//57
f 96//58 123//58 124//58
f 125//59 127//59 126//59
f 103//60 104//60 128//60
f 103//61 128//61 129//61
f 130//62 132//62 131//62
f 110//63 111//63 133//63
f 110//64 133//64 134//64
f 135//65 137//65 136//65
f 138//66 140//66 139//66
f 138//67 139//67 141//67
f 142//68 144//68 143//68
f 142//69 143//69 145//69
f 142//70 145//70 146//70
f 147//71 149//71 148//71
f 147//72 148//72 150//72
f 147//73 150//73 151//73
f 152//74 154//74 153//74
f 135//75 136//75 155//75
f 135//76 155//76 156//76
f 157//77 158//77 2//77
f 152//78 153//78 159//78
f 152//79 159//79 160//79
f 157//80 161//80 5//80
f 161//81 130//81 131//81
f 161//82 131//82 5//82
f 5//83 131//83 4//83
f 159//84 130//84 161//84
f 159//85 161//85 160//85
f 160//86 161//86 157//86
f 153//87 11//87 12//87
f 153//88 12//88 159//88
f 159//89 12//89 130//89
f 158//90 138//90 9//90
f 158//91 9//91 2//91
f 2//92 9//92 1//92
f 155//93 138//93 158//93
f 155//94 158//94 156//94
f 156//95 158//95 157//95
f 136//96 20//96 140//96
f 136//97 140//97 155//97
f 155//98 140//98 138//98
f 154//99 125//99 126//99
f 154//100 126//100 153//100
f 153//101 126//101 11//101
f 150//102 125//102 154//102
f 150//103 154//103 151//103
f 151//104 154//104 152//104
f 148//105 14//105 15//105
f 148//106 15//106 150//106
f 150//107 15//107 125//107
f 149//108 120//108 121//108
f 149//109 121//109 148//109
f 148//110 121//110 14//110
f 145//111 120//111 149//111
f 145//112 149//112 146//112
f 146//113 149//113 147//113
f 143//114 17//114 18//114
f 143//115 18//115 145//115
f 145//116 18//116 120//116
f 144//117 115//117 116//117
f 144//118 116//118 143//118
f 143//119 116//119 17//119
f 139//120 115//120 144//120
f 139//121 144//121 141//121
f 141//122 144//122 142//122
f 140//123 20//123 21//123
f 140//124 21//124 139//124
f 139//125 21//125 115//125
f 137//126 78//126 27//126
f 137//127 27//127 136//127
f 136//128 27//128 20//128
f 133//129 78//129 137//129
f 133//130 137//130 134//130
f 134//131 137//131 135//131
f 111//132 40//132 80//132
f 111//133 80//133 133//133
f 133//134 80//134 78//134
f 132//135 106//135 23//135
f 132//136 23//136 131//136
f 131//137 23//137 4//137
f 128//138 106//138 132//138
f 128//139 132//139 129//139
f 129//140 132//140 130//140
f 104//141 28//141 108//141
f 104//142 108//142 128//142
f 128//143 108//143 106//143
f 127//144 99//144 24//144
f 127//145 24//145 126//145
f 126//146 24//146 11//146
f 123//147 99//147 127//147
f 123//148 127//148 124//148
f 124//149 127//149 125//149
f 97//150 31//150 101//150
f 97//151 101//151 123//151
f 123//152 101//152 99//152
f 122//153 92//153 25//153
f 122//154 25//154 121//154
f 121//155 25//155 14//155
f 118//156 92//156 122//156
f 118//157 122//157 119//157
f 119//158 122//158 120//158
f 90//159 34//159 94//159
f 90//160 94//160 118//160
f 118//161 94//161 92//161
f 117//162 85//162 26//162
f 117//163 26//163 116//163
f 116//164 26//164 17//164
f 113//165 85//165 117//165
f 113//166 117//166 114//166
f 114//167 117//167 115//167
f 83//168 37//168 87//168
f 83//169 87//169 113//169
f 113//170 87//170 85//170
f 112//171 75//171 76//171
f 112//172 76//172 111//172
f 111//173 76//173 40//173
f 107//174 75//174 112//174
f 107//175 112//175 109//175
f 109//176 112//176 110//176
f 108//177 28//177 29//177
f 108//178 29//178 107//178
f 107//179 29//179 75//179
f 105//180 68//180 69//180
f 105//181 69//181 104//181
f 104//182 69//182 28//182
f 100//183 68//183 105//183
f 100//184 105//184 102//184
f 102//185 105//185 103//185
f 101//186 31//186 32//186
f 101//187 32//187 100//187
f 100//188 32//188 68//188
f 98//189 61//189 62//189
f 98//190 62//190 97//190
f 97//191 62//191 31//191
f 93//192 61//192 98//192
f 93//193 98//193 95//193
f 95//194 98//194 96//194
f 94//195 34//195 35//195
f 94//196 35//196 93//196
f 93//197 35//197 61//197
f 91//198 54//198 55//198
f 91//199 55//199 90//199
f 90//200 55//200 34//200
f 86//201 54//201 91//201
f 86//202 91//202 88//202
f 88//203 91//203 89//203
f 87//204 37//204 38//204
f 87//205 38//205 86//205
f 86//206 38//206 54//206
f 84//207 47//207 48//207
f 84//208 48//208 83//208
f 83//209 48//209 37//209
f 79//210 47//210 84//210
f 79//211 84//211 81//211
f 81//212 84//212 82//212
f 80//213 40//213 41//213
f 80//214 41//214 79//214
f 79//215 41//215 47//215
f 77//216 43//216 42//216
f 77//217 42//217 76//217
f 76//218 42//218 40//218
f 72//219 43//219 77//219
f 72//220 77//220 74//220
f 74//221 77//221 75//221
f 73//222 162//222 45//222
f 73//223 45//223 72//223
f 72//224 45//224 43//224
f 70//225 71//225 30//225
f 70//226 30//226 69//226
f 69//227 30//227 28//227
f 65//228 71//228 70//228
f 65//229 70//229 67//229
f 67//230 70//230 68//230
f 66//231 162//231 73//231
f 66//232 73//232 65//232
f 65//233 73//233 71//233
f 63//234 64//234 33//234
f 63//235 33//235 62//235
f 62//236 33//236 31//236
f 58//237 64//237 63//237
f 58//238 63//238 60//238
f 60//239 63//239 61//239
f 59//240 162//240 66//240
f 59//241 66//241 58//241
f 58//242 66//242 64//242
f 56//243 57//243 36//243
f 56//244 36//244 55//244
f 55//245 36//245 34//245
f 51//246 57//246 56//246
f 51//247 56//247 53//247
f 53//248 56//248 54//248
f 52//249 162//249 59//249
f 52//250 59//250 51//250
f 51//251 59//251 57//251
f 49//252 50//252 39//252
f 49//253 39//253 48//253
f 48//254 39//254 37//254
f 44//255 50//255 49//255
f 44//256 49//256 46//256
f 46//257 49//257 47//257
f 45//258 162//258 52//258
f 45//259 52//259 44//259
f 44//260 52//260 50//260
f 42//261 43//261 46//261
f 42//262 46//262 41//262
f 41//263 46//263 47//263
f 39//264 50//264 53//264
f 39//265 53//265 38//265
f 38//266 53//266 54//266
f 36//267 57//267 60//267
f 36//268 60//268 35//268
f 35//269 60//269 61//269
f 33//270 64//270 67//270
f 33//271 67//271 32//271
f 32//272 67//272 68//272
f 30//273 71//273 74//273
f 30//274 74//274 29//274
f 29//275 74//275 75//275
f 27//276 78//276 81//276
f 27//277 81//277 22//277
f 22//278 81//278 82//278
f 26//279 85//279 88//279
f 26//280 88//280 19//280
f 19//281 88//281 89//281
f 25//282 92//282 95//282
f 25//283 95//283 16//283
f 16//284 95//284 96//284
f 24//285 99//285 102//285
f 24//286 102//286 13//286
f 13//287 102//287 103//287
f 23//288 106//288 109//288
f 23//289 109//289 10//289
f 10//290 109//290 110//290
f 22//291 82//291 114//291
f 22//292 114//292 21//292
f 21//293 114//293 115//293
f 19//294 89//294 119//294
f 19//295 119//295 18//295
f 18//296 119//296 120//296
f 16//297 96//297 124//297
f 16//298 124//298 15//298
f 15//299 124//299 125//299
f 13//300 103//300 129//300
f 13//301 129//301 12//301
f 12//302 129//302 130//302
f 10//303 110//303 134//303
f 10//304 134//304 6//304
f 6//305 134//305 135//305
f 9//306 138//306 141//306
f 9//307 141//307 8//307
f 8//308 141//308 142//308
f 8//309 142//309 146//309
f 8//310 146//310 7//310
f 7//311 146//311 147//311
f 7//312 147//312 151//312
f 7//313 151//313 3//313
f 3//314 151//314 152//314
f 6//315 135//315 156//315
f 6//316 156//316 5//316
f 5//317 156//317 157//317
f 3//318 152//318 160//318
f 3//319 160//319 2//319
f 2//320 160//320 157//320
