# Blender v2.74 (sub 0) OBJ File: ''
# www.blender.org
mtllib cube.mtl
o Cube
v -1.000000 0.000711 1.000000
v -1.000000 2.000711 1.000000
v -1.000000 0.000711 -1.000000
v -1.000000 2.000711 -1.000000
v 1.000000 0.000711 1.000000
v 1.000000 2.000711 1.000000
v 1.000000 0.000711 -1.000000
v 1.000000 2.000711 -1.000000
v -1.000000 1.000711 1.000000
v -1.000000 2.000711 0.000000
v -1.000000 1.000711 -1.000000
v -1.000000 0.000711 0.000000
v 0.000000 2.000711 -1.000000
v 1.000000 1.000711 -1.000000
v 0.000000 0.000711 -1.000000
v 1.000000 2.000711 0.000000
v 1.000000 1.000711 1.000000
v 1.000000 0.000711 0.000000
v 0.000000 2.000711 1.000000
v 0.000000 0.000711 1.000000
v 0.000000 2.000711 0.000000
v 0.000000 0.000711 0.000000
v 0.000000 1.000711 1.000000
v 1.000000 1.000711 0.000000
v 0.000000 1.000711 -1.000000
v -1.000000 1.000711 0.000000
v -1.000000 1.500711 1.000000
v -1.000000 2.000711 -0.500000
v -1.000000 0.500711 -1.000000
v -1.000000 0.000711 0.500000
v 0.500000 2.000711 -1.000000
v 1.000000 0.500711 -1.000000
v -0.500000 0.000711 -1.000000
v 1.000000 2.000711 0.500000
v 1.000000 0.500711 1.000000
v 1.000000 0.000711 -0.500000
v -0.500000 2.000711 1.000000
v 0.500000 0.000711 1.000000
v -1.000000 0.500711 1.000000
v -1.000000 2.000711 0.500000
v -1.000000 1.500711 -1.000000
v -1.000000 0.000711 -0.500000
v -0.500000 2.000711 -1.000000
v 1.000000 1.500711 -1.000000
v 0.500000 0.000711 -1.000000
v 1.000000 2.000711 -0.500000
v 1.000000 1.500711 1.000000
v 1.000000 0.000711 0.500000
v 0.500000 2.000711 1.000000
v -0.500000 0.000711 1.000000
v -0.500000 2.000711 0.000000
v 0.500000 2.000711 0.000000
v 0.000000 2.000711 0.500000
v 0.000000 2.000711 -0.500000
v 0.500000 0.000711 0.000000
v -0.500000 0.000711 0.000000
v 0.000000 0.000711 0.500000
v 0.000000 0.000711 -0.500000
v 0.000000 0.500711 1.000000
v 0.000000 1.500711 1.000000
v 0.500000 1.000711 1.000000
v -0.500000 1.000711 1.000000
v 1.000000 0.500711 0.000000
v 1.000000 1.500711 0.000000
v 1.000000 1.000711 -0.500000
v 1.000000 1.000711 0.500000
v 0.000000 0.500711 -1.000000
v 0.000000 1.500711 -1.000000
v -0.500000 1.000711 -1.000000
v 0.500000 1.000711 -1.000000
v -1.000000 0.500711 0.000000
v -1.000000 1.500711 0.000000
v -1.000000 1.000711 0.500000
v -1.000000 1.000711 -0.500000
v -1.000000 1.500711 -0.500000
v -1.000000 1.500711 0.500000
v -1.000000 0.500711 0.500000
v 0.500000 1.500711 -1.000000
v -0.500000 1.500711 -1.000000
v -0.500000 0.500711 -1.000000
v 1.000000 1.500711 0.500000
v 1.000000 1.500711 -0.500000
v 1.000000 0.500711 -0.500000
v -0.500000 1.500711 1.000000
v 0.500000 1.500711 1.000000
v 0.500000 0.500711 1.000000
v -0.500000 0.000711 -0.500000
v -0.500000 0.000711 0.500000
v 0.500000 0.000711 0.500000
v 0.500000 2.000711 -0.500000
v 0.500000 2.000711 0.500000
v -0.500000 2.000711 0.500000
v -0.500000 2.000711 -0.500000
v 0.500000 0.000711 -0.500000
v -0.500000 0.500711 1.000000
v 1.000000 0.500711 0.500000
v 0.500000 0.500711 -1.000000
v -1.000000 0.500711 -0.500000
vn -1.000000 0.000000 0.000000
vn 0.000000 0.000000 -1.000000
vn 1.000000 0.000000 0.000000
vn 0.000000 0.000000 1.000000
vn 0.000000 1.000000 0.000000
vn 0.000000 -1.000000 0.000000
usemtl Material
s off
f 29//1 3//1 42//1
f 32//2 7//2 45//2
f 35//3 5//3 48//3
f 39//4 1//4 50//4
f 43//5 4//5 28//5
f 51//5 10//5 40//5
f 52//5 21//5 53//5
f 31//5 13//5 54//5
f 59//4 20//4 38//4
f 60//4 23//4 61//4
f 27//4 9//4 62//4
f 63//3 18//3 36//3
f 64//3 24//3 65//3
f 47//3 17//3 66//3
f 67//2 15//2 33//2
f 68//2 25//2 69//2
f 44//2 14//2 70//2
f 71//1 12//1 30//1
f 72//1 26//1 73//1
f 41//1 11//1 74//1
f 28//1 75//1 72//1
f 40//1 76//1 27//1
f 73//1 77//1 39//1
f 31//2 78//2 68//2
f 43//2 79//2 41//2
f 69//2 80//2 29//2
f 34//3 81//3 64//3
f 46//3 82//3 44//3
f 65//3 83//3 32//3
f 37//4 84//4 60//4
f 49//4 85//4 47//4
f 61//4 86//4 35//4
f 87//6 58//6 22//6
f 3//6 33//6 87//6
f 88//6 57//6 20//6
f 12//6 56//6 88//6
f 89//6 48//6 5//6
f 22//6 55//6 89//6
f 46//5 90//5 52//5
f 34//5 91//5 49//5
f 53//5 92//5 37//5
f 54//5 93//5 51//5
f 94//6 36//6 18//6
f 15//6 45//6 94//6
f 62//4 95//4 59//4
f 66//3 96//3 63//3
f 70//2 97//2 67//2
f 74//1 98//1 71//1
f 98//1 29//1 42//1
f 97//2 32//2 45//2
f 96//3 35//3 48//3
f 95//4 39//4 50//4
f 93//5 43//5 28//5
f 92//5 51//5 40//5
f 91//5 52//5 53//5
f 90//5 31//5 54//5
f 86//4 59//4 38//4
f 85//4 60//4 61//4
f 84//4 27//4 62//4
f 83//3 63//3 36//3
f 82//3 64//3 65//3
f 81//3 47//3 66//3
f 80//2 67//2 33//2
f 79//2 68//2 69//2
f 78//2 44//2 70//2
f 77//1 71//1 30//1
f 76//1 72//1 73//1
f 75//1 41//1 74//1
f 10//1 28//1 72//1
f 2//1 40//1 27//1
f 9//1 73//1 39//1
f 13//2 31//2 68//2
f 4//2 43//2 41//2
f 11//2 69//2 29//2
f 16//3 34//3 64//3
f 8//3 46//3 44//3
f 14//3 65//3 32//3
f 19//4 37//4 60//4
f 6//4 49//4 47//4
f 17//4 61//4 35//4
f 56//6 87//6 22//6
f 42//6 3//6 87//6
f 50//6 88//6 20//6
f 30//6 12//6 88//6
f 38//6 89//6 5//6
f 57//6 22//6 89//6
f 16//5 46//5 52//5
f 6//5 34//5 49//5
f 19//5 53//5 37//5
f 21//5 54//5 51//5
f 55//6 94//6 18//6
f 58//6 15//6 94//6
f 23//4 62//4 59//4
f 24//3 66//3 63//3
f 25//2 70//2 67//2
f 26//1 74//1 71//1
usemtl Material.001
f 75//1 74//1 26//1
f 4//1 41//1 75//1
f 76//1 73//1 9//1
f 10//1 72//1 76//1
f 77//1 30//1 1//1
f 26//1 71//1 77//1
f 81//3 66//3 24//3
f 6//3 47//3 81//3
f 82//3 65//3 14//3
f 16//3 64//3 82//3
f 83//3 36//3 7//3
f 24//3 63//3 83//3
f 96//3 48//3 18//3
f 17//3 35//3 96//3
f 98//1 42//1 12//1
f 11//1 29//1 98//1
f 72//1 75//1 26//1
f 28//1 4//1 75//1
f 27//1 76//1 9//1
f 40//1 10//1 76//1
f 39//1 77//1 1//1
f 73//1 26//1 77//1
f 64//3 81//3 24//3
f 34//3 6//3 81//3
f 44//3 82//3 14//3
f 46//3 16//3 82//3
f 32//3 83//3 7//3
f 65//3 24//3 83//3
f 63//3 96//3 18//3
f 66//3 17//3 96//3
f 71//1 98//1 12//1
f 74//1 11//1 98//1
usemtl Material.002
f 45//6 7//6 36//6
f 55//6 18//6 48//6
f 56//6 22//6 57//6
f 33//6 15//6 58//6
f 78//2 70//2 25//2
f 8//2 44//2 78//2
f 79//2 69//2 11//2
f 13//2 68//2 79//2
f 80//2 33//2 3//2
f 25//2 67//2 80//2
f 84//4 62//4 23//4
f 2//4 27//4 84//4
f 85//4 61//4 17//4
f 19//4 60//4 85//4
f 86//4 38//4 5//4
f 23//4 59//4 86//4
f 42//6 87//6 56//6
f 30//6 88//6 50//6
f 57//6 89//6 38//6
f 90//5 54//5 21//5
f 8//5 31//5 90//5
f 91//5 53//5 19//5
f 16//5 52//5 91//5
f 92//5 40//5 2//5
f 21//5 51//5 92//5
f 93//5 28//5 10//5
f 13//5 43//5 93//5
f 58//6 94//6 55//6
f 95//4 50//4 20//4
f 9//4 39//4 95//4
f 97//2 45//2 15//2
f 14//2 32//2 97//2
f 94//6 45//6 36//6
f 89//6 55//6 48//6
f 88//6 56//6 57//6
f 87//6 33//6 58//6
f 68//2 78//2 25//2
f 31//2 8//2 78//2
f 41//2 79//2 11//2
f 43//2 13//2 79//2
f 29//2 80//2 3//2
f 69//2 25//2 80//2
f 60//4 84//4 23//4
f 37//4 2//4 84//4
f 47//4 85//4 17//4
f 49//4 19//4 85//4
f 35//4 86//4 5//4
f 61//4 23//4 86//4
f 12//6 42//6 56//6
f 1//6 30//6 50//6
f 20//6 57//6 38//6
f 52//5 90//5 21//5
f 46//5 8//5 90//5
f 49//5 91//5 19//5
f 34//5 16//5 91//5
f 37//5 92//5 2//5
f 53//5 21//5 92//5
f 51//5 93//5 10//5
f 54//5 13//5 93//5
f 22//6 58//6 55//6
f 59//4 95//4 20//4
f 62//4 9//4 95//4
f 67//2 97//2 15//2
f 70//2 14//2 97//2
