# Blender v2.74 (sub 0) OBJ File: ''
# www.blender.org
mtllib garbage_bag.mtl
o Icosphere
v 0.064938 1.584211 0.250413
v 0.060246 1.075174 0.101996
v 0.211908 1.554246 0.167278
v 0.211713 1.533131 -0.129964
v 0.058430 1.525101 -0.201227
v -0.098809 1.558436 0.192273
v -0.170104 1.476671 0.022798
v 0.297425 1.534231 0.024733
v -0.090605 1.495946 -0.131801
v 0.415535 1.098795 -0.413961
v 0.125076 1.281945 0.377599
v 0.579090 0.894201 0.318550
v 0.678437 0.540834 -0.170520
v -0.191739 0.814169 0.719231
v 0.577057 0.508162 0.398604
v -0.599541 0.383002 -0.330293
v 0.002481 0.556866 -0.738487
v -0.216587 0.015555 -0.275574
v -0.366054 0.111012 0.309717
v 0.481708 0.117951 -0.046865
v 0.160738 0.005892 0.260478
v 0.308868 0.348869 -0.572790
v -0.223673 0.399952 0.645889
v -0.729282 0.749344 0.048315
v -0.475987 1.061694 -0.401603
v -0.100288 1.065449 -0.558090
v -0.232624 1.312319 0.109286
vn 0.436000 -0.255600 0.862900
vn 0.383400 -0.515100 -0.766600
vn -0.285100 -0.265900 0.920900
vn -0.789000 -0.353600 0.502500
vn 0.791400 -0.321400 0.519900
vn 0.773100 -0.470900 -0.425000
vn -0.737300 -0.510300 -0.442700
vn -0.121400 0.990100 -0.070300
vn -0.266600 -0.539400 -0.798700
vn 0.652900 0.754600 0.065000
vn 0.915900 0.389800 -0.095600
vn 0.438900 0.180200 0.880300
vn -0.377600 -0.508800 -0.773700
vn -0.686900 -0.724500 -0.057300
vn 0.192200 -0.969400 -0.152700
vn -0.184400 -0.976400 0.112200
vn -0.023800 -0.644200 -0.764500
vn 0.274700 -0.843900 -0.460800
vn 0.747700 -0.481500 -0.457200
vn 0.912800 -0.383500 0.140600
vn 0.634500 -0.643600 0.428000
vn -0.084600 -0.737700 0.669800
vn -0.883800 -0.449000 0.131600
vn -0.564300 0.016000 -0.825400
vn -0.375200 0.241600 -0.894900
vn 0.526700 0.103800 -0.843700
vn 0.725600 0.042200 -0.686800
vn 0.317100 -0.486700 0.814000
vn 0.313000 -0.188900 0.930800
vn -0.805500 -0.235700 0.543700
vn -0.777000 -0.051200 0.627500
vn -0.898300 0.119100 -0.423000
vn 0.228400 0.366100 -0.902100
vn 0.983700 0.031500 0.177000
vn 0.404500 0.344700 0.847100
vn -0.389200 0.700500 0.598200
vn -0.678900 0.545700 0.491200
vn -0.751300 0.659100 0.034600
vn -0.163500 0.914300 -0.370600
vn 0.034500 0.939500 -0.340700
vn 0.196300 0.968700 -0.152100
vn -0.016800 0.930800 -0.365200
vn -0.536400 0.826000 -0.172900
vn -0.121600 0.981000 0.151000
vn 0.114500 0.990900 -0.070500
vn -0.002000 0.981900 -0.189400
usemtl Material
s 1
f 1//1 2//1 3//1
f 4//2 2//2 5//2
f 2//3 1//3 6//3
f 2//4 6//4 7//4
f 3//5 2//5 8//5
f 8//6 2//6 4//6
f 2//7 7//7 9//7
f 9//8 3//8 4//8
f 2//9 9//9 5//9
f 10//10 11//10 12//10
f 10//11 12//11 13//11
f 12//12 14//12 15//12
f 16//13 17//13 18//13
f 19//14 16//14 18//14
f 20//15 21//15 18//15
f 21//16 19//16 18//16
f 18//17 17//17 22//17
f 22//18 20//18 18//18
f 22//19 13//19 20//19
f 15//20 20//20 13//20
f 15//21 21//21 20//21
f 23//22 19//22 21//22
f 24//23 16//23 19//23
f 25//24 17//24 16//24
f 25//25 26//25 17//25
f 10//26 22//26 17//26
f 10//27 13//27 22//27
f 15//28 23//28 21//28
f 15//29 14//29 23//29
f 23//30 24//30 19//30
f 23//31 14//31 24//31
f 24//32 25//32 16//32
f 26//33 10//33 17//33
f 13//34 12//34 15//34
f 11//35 14//35 12//35
f 11//36 27//36 14//36
f 27//37 24//37 14//37
f 27//38 25//38 24//38
f 27//39 26//39 25//39
f 27//40 10//40 26//40
f 27//41 11//41 10//41
f 3//42 6//42 1//42
f 6//43 9//43 7//43
f 9//44 4//44 5//44
f 4//45 3//45 8//45
f 3//46 9//46 6//46
