# Blender v2.74 (sub 0) OBJ File: ''
# www.blender.org
mtllib selector_5.mtl
o Torus.006
v -0.828056 -0.040978 1.434236
v 0.000000 -0.040978 1.656113
v 0.000000 0.040978 1.656113
v -1.656113 0.040978 0.000000
v -1.656113 -0.040978 -0.000000
v -1.434236 -0.040978 0.828057
v -2.048908 -0.000000 1.182938
v -1.182938 -0.000000 2.048908
v -2.365876 0.000000 0.000000
v -1.434236 0.040978 0.828057
v 0.828056 0.040978 1.434236
v 0.828056 -0.040978 1.434236
v 1.434236 -0.040978 0.828057
v 0.000000 -0.000000 2.365876
v 1.434236 0.040978 0.828057
v 1.656113 0.040978 0.000000
v 2.365876 0.000000 0.000000
v 1.182938 -0.000000 2.048909
v 2.048908 -0.000000 1.182939
v 1.434236 -0.040978 -0.828056
v 1.656113 -0.040978 -0.000000
v 1.434236 0.040978 -0.828056
v 2.048909 0.000000 -1.182938
v 1.182938 0.000000 -2.048909
v 0.828056 -0.040978 -1.434236
v 0.828056 0.040978 -1.434236
v 0.000000 0.040978 -1.656113
v 0.000000 0.000000 -2.365876
v 0.000000 -0.040978 -1.656113
v -1.182938 0.000000 -2.048908
v -0.828056 -0.040978 -1.434236
v -1.434236 -0.040978 -0.828057
v -2.048908 0.000000 -1.182938
v -0.828056 0.040978 -1.434236
v -0.828056 0.040978 1.434236
v -1.434236 0.040978 -0.828057
vn 0.258800 0.000000 -0.965900
vn 0.965900 0.000000 -0.258800
vn -0.042200 -0.998200 0.042200
vn -0.057600 0.998200 0.015400
vn -0.707100 0.000000 -0.707100
vn 0.015400 -0.998200 0.057600
vn 0.015400 0.998200 0.057600
vn 0.057600 0.998200 0.015400
vn 0.042200 -0.998200 0.042200
vn 0.042200 0.998200 0.042200
vn 0.057600 -0.998200 0.015400
vn 0.057600 -0.998200 -0.015400
vn 0.057600 0.998200 -0.015400
vn 0.042200 -0.998200 -0.042200
vn -0.965900 0.000000 0.258800
vn -0.707100 0.000000 0.707100
vn 0.042200 0.998200 -0.042200
vn 0.015400 0.998200 -0.057600
vn 0.015400 -0.998200 -0.057600
vn -0.258800 0.000000 0.965900
vn -0.015400 -0.998200 -0.057600
vn -0.015400 0.998200 -0.057600
vn 0.258800 0.000000 0.965900
vn -0.042200 -0.998200 -0.042200
vn -0.042200 0.998200 -0.042200
vn -0.057600 -0.998200 -0.015400
vn 0.707100 0.000000 0.707100
vn -0.042200 0.998200 0.042200
vn -0.057600 0.998200 -0.015400
vn 0.965900 0.000000 0.258800
vn 0.707100 0.000000 -0.707100
vn -0.057600 -0.998200 0.015400
vn -0.015400 0.998200 0.057600
vn -0.965900 0.000000 -0.258800
vn -0.015400 -0.998200 0.057600
vn -0.258800 0.000000 -0.965900
usemtl Material.006
s 1
f 1//1 3//1 2//1
f 4//2 6//2 5//2
f 6//3 8//3 7//3
f 9//4 10//4 4//4
f 11//5 13//5 12//5
f 12//6 14//6 2//6
f 14//7 11//7 3//7
f 15//8 17//8 16//8
f 12//9 19//9 18//9
f 18//10 15//10 11//10
f 13//11 17//11 19//11
f 20//12 17//12 21//12
f 17//13 22//13 16//13
f 20//14 24//14 23//14
f 16//15 20//15 21//15
f 20//16 26//16 25//16
f 24//17 22//17 23//17
f 26//18 28//18 27//18
f 25//19 28//19 24//19
f 26//20 29//20 25//20
f 29//21 30//21 28//21
f 30//22 27//22 28//22
f 27//23 31//23 29//23
f 32//24 30//24 31//24
f 33//25 34//25 30//25
f 9//26 32//26 5//26
f 34//27 32//27 31//27
f 7//28 35//28 10//28
f 9//29 36//29 33//29
f 4//30 32//30 36//30
f 10//31 1//31 6//31
f 6//32 9//32 5//32
f 8//33 3//33 35//33
f 15//34 21//34 13//34
f 8//35 2//35 14//35
f 3//36 12//36 2//36
f 35//1 3//1 1//1
f 10//2 6//2 4//2
f 1//3 8//3 6//3
f 7//4 10//4 9//4
f 15//5 13//5 11//5
f 18//6 14//6 12//6
f 18//7 11//7 14//7
f 19//8 17//8 15//8
f 13//9 19//9 12//9
f 19//10 15//10 18//10
f 21//11 17//11 13//11
f 23//12 17//12 20//12
f 23//13 22//13 17//13
f 25//14 24//14 20//14
f 22//15 20//15 16//15
f 22//16 26//16 20//16
f 26//17 22//17 24//17
f 24//18 28//18 26//18
f 29//19 28//19 25//19
f 27//20 29//20 26//20
f 31//21 30//21 29//21
f 34//22 27//22 30//22
f 34//23 31//23 27//23
f 33//24 30//24 32//24
f 36//25 34//25 33//25
f 33//26 32//26 9//26
f 36//27 32//27 34//27
f 8//28 35//28 7//28
f 4//29 36//29 9//29
f 5//30 32//30 4//30
f 35//31 1//31 10//31
f 7//32 9//32 6//32
f 14//33 3//33 8//33
f 16//34 21//34 15//34
f 1//35 2//35 8//35
f 11//36 12//36 3//36
