# Blender v2.74 (sub 0) OBJ File: ''
# www.blender.org
mtllib selector_3.mtl
o Torus.004
v -0.727183 -0.035986 1.259518
v 0.000000 -0.035986 1.454366
v 0.000000 0.035986 1.454366
v -1.454366 0.035986 0.000000
v -1.454366 -0.035986 -0.000000
v -1.259518 -0.035986 0.727183
v -1.799311 -0.000000 1.038833
v -1.038833 -0.000000 1.799311
v -2.077666 0.000000 0.000000
v -1.259518 0.035986 0.727183
v 0.727183 0.035986 1.259518
v 0.727183 -0.035986 1.259518
v 1.259518 -0.035986 0.727183
v 0.000000 -0.000000 2.077666
v 1.038833 -0.000000 1.799311
v 1.259518 0.035986 0.727183
v 1.454366 0.035986 0.000000
v 2.077666 0.000000 0.000000
v 1.799311 -0.000000 1.038833
v 1.259518 -0.035986 -0.727183
v 1.454366 -0.035986 -0.000000
v 1.259518 0.035986 -0.727183
v 1.799312 0.000000 -1.038833
v 1.038833 0.000000 -1.799311
v 0.727183 -0.035986 -1.259518
v 0.727183 0.035986 -1.259518
v 0.000000 0.035986 -1.454366
v 0.000000 0.000000 -2.077666
v 0.000000 -0.035986 -1.454366
v -1.038833 0.000000 -1.799311
v -0.727183 0.035986 -1.259518
v -0.727183 -0.035986 -1.259518
v -1.259518 -0.035986 -0.727183
v -1.259518 0.035986 -0.727183
v -1.799311 0.000000 -1.038833
v -0.727183 0.035986 1.259518
vn 0.258800 0.000000 -0.965900
vn 0.965900 0.000000 -0.258800
vn -0.042200 -0.998200 0.042200
vn -0.057600 0.998200 0.015400
vn -0.707100 0.000000 -0.707100
vn 0.015400 -0.998200 0.057600
vn 0.015400 0.998200 0.057600
vn 0.057600 0.998200 0.015400
vn 0.042200 -0.998200 0.042200
vn 0.042200 0.998200 0.042200
vn 0.057600 -0.998200 0.015400
vn 0.057600 -0.998200 -0.015400
vn 0.057600 0.998200 -0.015400
vn 0.042200 -0.998200 -0.042200
vn -0.965900 0.000000 0.258800
vn -0.707100 0.000000 0.707100
vn 0.042200 0.998200 -0.042200
vn 0.015400 0.998200 -0.057600
vn 0.015400 -0.998200 -0.057600
vn -0.258800 0.000000 0.965900
vn -0.015400 -0.998200 -0.057600
vn -0.015400 0.998200 -0.057600
vn 0.258800 0.000000 0.965900
vn -0.042200 -0.998200 -0.042200
vn -0.042200 0.998200 -0.042200
vn -0.057600 -0.998200 -0.015400
vn 0.707100 0.000000 0.707100
vn -0.042200 0.998200 0.042200
vn -0.057600 0.998200 -0.015400
vn 0.965900 0.000000 0.258800
vn 0.707100 0.000000 -0.707100
vn -0.057600 -0.998200 0.015400
vn -0.015400 0.998200 0.057600
vn -0.965900 0.000000 -0.258800
vn -0.015400 -0.998200 0.057600
vn -0.258800 0.000000 -0.965900
usemtl Material.004
s 1
f 1//1 3//1 2//1
f 4//2 6//2 5//2
f 6//3 8//3 7//3
f 9//4 10//4 4//4
f 11//5 13//5 12//5
f 2//6 15//6 14//6
f 14//7 11//7 3//7
f 16//8 18//8 17//8
f 12//9 19//9 15//9
f 15//10 16//10 11//10
f 13//11 18//11 19//11
f 20//12 18//12 21//12
f 18//13 22//13 17//13
f 20//14 24//14 23//14
f 17//15 20//15 21//15
f 20//16 26//16 25//16
f 23//17 26//17 22//17
f 26//18 28//18 27//18
f 25//19 28//19 24//19
f 26//20 29//20 25//20
f 29//21 30//21 28//21
f 28//22 31//22 27//22
f 27//23 32//23 29//23
f 33//24 30//24 32//24
f 30//25 34//25 31//25
f 9//26 33//26 5//26
f 31//27 33//27 32//27
f 8//28 10//28 7//28
f 9//29 34//29 35//29
f 4//30 33//30 34//30
f 10//31 1//31 6//31
f 5//32 7//32 9//32
f 8//33 3//33 36//33
f 16//34 21//34 13//34
f 8//35 2//35 14//35
f 3//36 12//36 2//36
f 36//1 3//1 1//1
f 10//2 6//2 4//2
f 1//3 8//3 6//3
f 7//4 10//4 9//4
f 16//5 13//5 11//5
f 12//6 15//6 2//6
f 15//7 11//7 14//7
f 19//8 18//8 16//8
f 13//9 19//9 12//9
f 19//10 16//10 15//10
f 21//11 18//11 13//11
f 23//12 18//12 20//12
f 23//13 22//13 18//13
f 25//14 24//14 20//14
f 22//15 20//15 17//15
f 22//16 26//16 20//16
f 24//17 26//17 23//17
f 24//18 28//18 26//18
f 29//19 28//19 25//19
f 27//20 29//20 26//20
f 32//21 30//21 29//21
f 30//22 31//22 28//22
f 31//23 32//23 27//23
f 35//24 30//24 33//24
f 35//25 34//25 30//25
f 35//26 33//26 9//26
f 34//27 33//27 31//27
f 36//28 10//28 8//28
f 4//29 34//29 9//29
f 5//30 33//30 4//30
f 36//31 1//31 10//31
f 6//32 7//32 5//32
f 14//33 3//33 8//33
f 17//34 21//34 16//34
f 1//35 2//35 8//35
f 11//36 12//36 3//36
